<svg width="20" height="10" viewBox="0 0 20 10" fill="none" xmlns="http://www.w3.org/2000/svg">
<path d="M3.30664 1.8457H4.70117V4.74023H7.50781V6.09375H4.70117V9H3.30664V6.09375H0.488281V4.74023H3.30664V1.8457ZM16.1738 2.16211H13.6777C13.2637 2.16211 12.9609 2.23242 12.7695 2.37305C12.582 2.50977 12.4883 2.72656 12.4883 3.02344C12.4883 3.32422 12.5762 3.53711 12.752 3.66211C12.9316 3.78711 13.2402 3.84961 13.6777 3.84961H16.1738C16.5879 3.84961 16.8867 3.7832 17.0703 3.65039C17.2539 3.51367 17.3457 3.29297 17.3457 2.98828C17.3457 2.68359 17.2578 2.4707 17.082 2.34961C16.9102 2.22461 16.6074 2.16211 16.1738 2.16211ZM19.8652 2.92969V6.3457C19.8652 7.39258 19.5547 8.11523 18.9336 8.51367C18.3164 8.9082 17.1523 9.10547 15.4414 9.10547H13.0273C11.9102 9.10547 11.0957 8.93164 10.584 8.58398C10.0762 8.23633 9.82227 7.67969 9.82227 6.91406C9.82227 6.86328 9.82422 6.80664 9.82812 6.74414C9.83203 6.67773 9.83984 6.58203 9.85156 6.45703H12.248C12.2793 6.72266 12.3887 6.91406 12.5762 7.03125C12.7676 7.14453 13.0664 7.20117 13.4727 7.20117H15.9805C16.4766 7.20117 16.8242 7.12109 17.0234 6.96094C17.2227 6.80078 17.3223 6.5293 17.3223 6.14648V5.17383C17.1504 5.4082 16.9023 5.57617 16.5781 5.67773C16.2539 5.7793 15.8027 5.83008 15.2246 5.83008H13.3262C12.1074 5.83008 11.2441 5.68164 10.7363 5.38477C10.2324 5.08398 9.98047 4.58594 9.98047 3.89062V2.16211C9.98047 1.49023 10.1992 0.990234 10.6367 0.662109C11.0742 0.333984 11.7402 0.169922 12.6348 0.169922H16.5312C17.6914 0.169922 18.5371 0.390625 19.0684 0.832031C19.5996 1.27344 19.8652 1.97266 19.8652 2.92969Z" fill="#1D2E43"/>
</svg>
