<svg width="276" height="20" viewBox="0 0 276 20" fill="none" xmlns="http://www.w3.org/2000/svg">
<path d="M5.48806 19.7623H-0.000732422V0.238511H8.32831L14.9248 12.4337L21.6278 0.238511H29.8432V19.7623H24.3828V5.84871L16.7426 19.7623H13.0573L5.48806 5.84871V19.7623Z" fill="#1D2E43"/>
<path d="M37.9588 19.7623H31.8026L41.8925 0.238511H49.0926L58.998 19.7623H52.8062L51.0169 16.5131H39.7553L37.9588 19.7623ZM41.8925 11.8127H48.9932L45.4074 4.90285L41.8925 11.8127Z" fill="#1D2E43"/>
<path d="M75.8276 0.238511C78.7531 0.238511 80.7483 0.700612 81.8063 1.61759C82.8643 2.53458 83.3969 4.20969 83.3969 6.63573C83.3969 8.32529 83.1625 9.57441 82.6868 10.3975C82.2182 11.2206 81.4229 11.7694 80.3152 12.051C81.2951 12.2965 82.0264 12.7297 82.5093 13.3506C82.9992 13.9716 83.2407 14.773 83.2407 15.7622V19.7623H77.5957V16.7875C77.5957 16.0149 77.4252 15.4879 77.0773 15.199C76.7365 14.9102 76.0548 14.7658 75.0465 14.7658H66.6323V19.7623H60.9731V0.238511H75.8276ZM75.6146 5.10502H66.6394V9.87766H75.6146C76.3673 9.87766 76.8927 9.68993 77.198 9.32169C77.5033 8.95346 77.6525 8.28196 77.6525 7.30722C77.6525 6.53464 77.4891 5.97868 77.1696 5.6321C76.843 5.2783 76.3246 5.10502 75.6146 5.10502Z" fill="#1D2E43"/>
<path d="M95.0902 7.48773L102.489 0.238511H109.987L99.9896 9.87766L111.294 19.7623H103.448L95.0831 12.3831H92.7115V19.7623H87.0736V0.238511H92.7115V7.48773H95.0902Z" fill="#1D2E43"/>
<path d="M112.821 13.271L118.395 13.2565V13.6103C118.395 14.3468 118.565 14.8378 118.906 15.0977C119.247 15.3577 119.957 15.4876 121.043 15.4876H128.129C128.825 15.4876 129.322 15.3649 129.621 15.1122C129.919 14.8667 130.068 14.4479 130.068 13.8703C130.068 13.2854 129.898 12.8666 129.55 12.6139C129.209 12.3612 128.47 12.1879 127.334 12.1013L118.473 11.8919C116.257 11.8197 114.759 11.3792 113.971 10.5561C113.19 9.73301 112.799 8.2384 112.799 6.0723C112.799 4.95315 112.906 4.02895 113.112 3.30691C113.318 2.58488 113.651 1.97837 114.106 1.49461C114.645 0.953084 115.348 0.570406 116.215 0.339355C117.081 0.115525 118.501 0 120.461 0H129.074C131.211 0 132.745 0.411558 133.682 1.23468C134.619 2.05779 135.088 3.38634 135.088 5.23474C135.088 5.35749 135.088 5.48746 135.081 5.62464C135.074 5.76183 135.06 5.99288 135.038 6.30335H129.599V6.22393C129.599 5.5741 129.443 5.09034 129.131 4.76542C128.818 4.4405 128.357 4.28166 127.732 4.28166H121.228C120.141 4.28166 119.431 4.39719 119.083 4.62102C118.735 4.84485 118.565 5.24918 118.565 5.81237C118.565 6.37556 118.721 6.77267 119.034 7.02539C119.346 7.27088 119.928 7.43694 120.773 7.50193L130.054 7.66078C132.17 7.71854 133.661 8.22396 134.527 9.16983C135.393 10.1157 135.827 11.7258 135.827 14.0075C135.827 15.3649 135.67 16.4118 135.351 17.1555C135.031 17.8992 134.499 18.5346 133.746 19.0545C133.249 19.3866 132.574 19.6249 131.722 19.7693C130.87 19.9137 129.635 19.9859 128.023 19.9859H120.503C117.415 19.9859 115.355 19.6177 114.312 18.8884C113.268 18.1591 112.75 16.7945 112.75 14.8017C112.75 14.6862 112.757 14.4984 112.771 14.2313C112.785 13.9641 112.799 13.6537 112.821 13.271Z" fill="#1D2E43"/>
<path d="M163.293 7.22723C163.293 6.32469 163.037 5.71096 162.526 5.37883C162.015 5.04669 160.857 4.88062 159.054 4.88062H155.766C153.835 4.88062 152.599 5.12611 152.06 5.6171C151.52 6.10808 151.243 7.14059 151.243 8.72184V11.4367C151.243 12.8447 151.549 13.8122 152.159 14.332C152.77 14.8519 153.977 15.1191 155.781 15.1191H159.047C160.666 15.1191 161.788 14.9602 162.398 14.657C163.009 14.3465 163.314 13.8122 163.314 13.054C163.314 12.9457 163.3 12.7724 163.265 12.527C163.265 12.4981 163.265 12.4764 163.265 12.462H156.625V8.51245H169.137V14.9241C169.137 16.7581 168.491 18.065 167.205 18.8375C165.92 19.6101 163.676 20 160.488 20H154.211C152.287 20 150.86 19.8917 149.944 19.6751C149.028 19.4585 148.247 19.083 147.608 18.5632C146.862 17.9422 146.322 17.1769 145.982 16.2743C145.641 15.3718 145.47 14.2237 145.47 12.8447V7.52326C145.47 4.72899 146.095 2.77228 147.352 1.66757C148.609 0.56286 150.881 0.00689507 154.183 0.00689507H160.488C162.526 0.00689507 164.024 0.100759 164.99 0.295708C165.956 0.490657 166.723 0.808352 167.276 1.26323C167.859 1.73256 168.285 2.36794 168.562 3.1694C168.839 3.97086 168.981 4.97449 168.981 6.18028C168.981 6.4691 168.981 6.69292 168.973 6.85177C168.966 7.01062 168.966 7.15503 168.952 7.28499H163.293V7.22723Z" fill="#1D2E43"/>
<path d="M187.485 0.238511C190.41 0.238511 192.405 0.700612 193.463 1.61759C194.521 2.53458 195.054 4.20969 195.054 6.63573C195.054 8.32529 194.82 9.57441 194.344 10.3975C193.875 11.2206 193.08 11.7694 191.972 12.051C192.952 12.2965 193.683 12.7297 194.166 13.3506C194.656 13.9716 194.898 14.773 194.898 15.7622V19.7623H189.253V16.7875C189.253 16.0149 189.082 15.4879 188.741 15.199C188.401 14.9102 187.719 14.7658 186.711 14.7658H178.296V19.7623H172.637V0.238511H187.485ZM187.272 5.10502H178.296V9.87766H187.272C188.024 9.87766 188.55 9.68993 188.855 9.32169C189.153 8.95346 189.309 8.28196 189.309 7.30722C189.309 6.53464 189.146 5.97868 188.827 5.6321C188.5 5.2783 187.982 5.10502 187.272 5.10502Z" fill="#1D2E43"/>
<path d="M207.43 19.9928C205.271 19.9928 203.688 19.8917 202.686 19.6823C201.685 19.4801 200.869 19.1263 200.244 18.6281C199.534 18.0722 199.015 17.3357 198.703 16.4332C198.391 15.5306 198.234 14.332 198.234 12.8374V7.51604C198.234 5.88425 198.391 4.58459 198.703 3.63872C199.015 2.68564 199.534 1.9275 200.244 1.37154C200.862 0.880555 201.692 0.533979 202.722 0.324589C203.752 0.115199 205.314 0.00689507 207.408 0.00689507H214.047C216.149 0.00689507 217.719 0.115199 218.755 0.324589C219.792 0.533979 220.616 0.887776 221.233 1.37154C221.922 1.92028 222.419 2.6712 222.739 3.62428C223.058 4.57737 223.214 5.7976 223.214 7.28499V12.7291C223.214 14.231 223.058 15.4512 222.739 16.3898C222.419 17.3285 221.915 18.0794 221.233 18.6354C220.616 19.1336 219.792 19.4874 218.777 19.6895C217.761 19.8917 216.185 20 214.047 20H207.43V19.9928ZM208.956 15.1191H212.542C214.537 15.1191 215.858 14.8519 216.511 14.3248C217.165 13.7977 217.491 12.8158 217.491 11.3789V8.61354C217.491 7.17669 217.165 6.20194 216.511 5.66764C215.858 5.14055 214.53 4.8734 212.542 4.8734H208.928C206.89 4.8734 205.555 5.14055 204.923 5.67486C204.291 6.20916 203.972 7.22001 203.972 8.71462V11.4295C203.972 12.8374 204.305 13.805 204.973 14.3248C205.64 14.8591 206.968 15.1191 208.956 15.1191Z" fill="#1D2E43"/>
<path d="M226.581 0.238511H232.219V11.8127C232.219 13.134 232.503 14.0149 233.071 14.4698C233.639 14.9175 234.874 15.1413 236.777 15.1413H239.98C241.563 15.1413 242.621 14.903 243.154 14.4265C243.693 13.9499 243.963 13.0763 243.963 11.8127V0.238511H249.608V13.6611C249.608 15.9572 249.026 17.589 247.854 18.5493C246.683 19.5096 244.659 19.9933 241.776 19.9933H235.471C232.084 19.9933 229.762 19.5312 228.491 18.6143C227.22 17.6973 226.588 16.0438 226.588 13.6611V0.238511H226.581Z" fill="#1D2E43"/>
<path d="M267.508 0.238511C268.765 0.238511 269.766 0.303494 270.518 0.42624C271.264 0.556206 271.903 0.758374 272.421 1.04719C273.359 1.55983 274.033 2.33241 274.459 3.35048C274.878 4.36854 275.091 5.77651 275.091 7.56715C275.091 10.2387 274.672 12.1304 273.827 13.2351C272.982 14.3398 271.555 14.8958 269.546 14.8958H258.994V19.7623H253.335V0.238511H267.508ZM267.309 5.10502H258.994V10.0509H267.309C268.062 10.0509 268.587 9.856 268.892 9.4661C269.198 9.0762 269.347 8.38305 269.347 7.38664C269.347 6.59241 269.184 6.01478 268.864 5.64654C268.537 5.28553 268.019 5.10502 267.309 5.10502Z" fill="#1D2E43"/>
</svg>