<svg width="796" height="41" viewBox="0 0 796 41" fill="none" xmlns="http://www.w3.org/2000/svg">
<path d="M9.142 15V8.476L6.594 13.334H5.516L2.968 8.476V15H1.036V5.06H3.108L6.048 10.716L9.016 5.06H11.074V15H9.142ZM12.3933 15L16.2293 9.848L12.6733 5.06H14.9133L17.8113 9.064H18.6513V5.06H20.5693V9.064H21.4093L24.3073 5.06H26.5473L22.9913 9.848L26.8273 15H24.6153L21.4373 10.814H20.5693V15H18.6513V10.814H17.7693L14.6053 15H12.3933ZM28.1753 15V5.06H30.0933V9.064H31.0733L34.0273 5.06H36.1833L32.5713 9.876L36.4633 15H34.1253L31.0453 10.814H30.0933V15H28.1753ZM41.0132 15V5.06H48.1812V6.726H42.9312V9.12H45.6332C46.7439 9.12 47.5792 9.38133 48.1392 9.904C48.6992 10.4267 48.9792 11.1267 48.9792 12.004C48.9792 12.592 48.8579 13.11 48.6152 13.558C48.3726 14.006 48.0132 14.3607 47.5372 14.622C47.0612 14.874 46.4592 15 45.7312 15H41.0132ZM42.9312 13.334H45.4652C45.8386 13.334 46.1372 13.2687 46.3612 13.138C46.5852 12.998 46.7486 12.8253 46.8512 12.62C46.9539 12.4053 47.0052 12.1813 47.0052 11.948C47.0052 11.7147 46.9586 11.5 46.8652 11.304C46.7812 11.0987 46.6272 10.9353 46.4032 10.814C46.1792 10.6833 45.8572 10.618 45.4372 10.618H42.9312V13.334ZM49.6508 12.83C49.6508 12.354 49.7814 11.9387 50.0428 11.584C50.3134 11.22 50.6868 10.94 51.1628 10.744C51.6388 10.548 52.1848 10.45 52.8008 10.45C53.1088 10.45 53.4214 10.4733 53.7388 10.52C54.0561 10.5667 54.3314 10.6413 54.5648 10.744V10.352C54.5648 9.88533 54.4248 9.526 54.1448 9.274C53.8741 9.022 53.4681 8.896 52.9268 8.896C52.5254 8.896 52.1428 8.966 51.7788 9.106C51.4148 9.246 51.0321 9.45133 50.6308 9.722L50.0288 8.49C50.5141 8.17267 51.0088 7.93467 51.5128 7.776C52.0261 7.61733 52.5628 7.538 53.1228 7.538C54.1681 7.538 54.9801 7.79933 55.5588 8.322C56.1468 8.84467 56.4408 9.59133 56.4408 10.562V12.9C56.4408 13.096 56.4734 13.236 56.5388 13.32C56.6134 13.404 56.7301 13.4553 56.8888 13.474V15C56.7208 15.028 56.5668 15.0513 56.4268 15.07C56.2961 15.0887 56.1841 15.098 56.0908 15.098C55.7174 15.098 55.4328 15.014 55.2368 14.846C55.0501 14.678 54.9334 14.4727 54.8868 14.23L54.8448 13.852C54.5274 14.2627 54.1308 14.58 53.6548 14.804C53.1788 15.028 52.6934 15.14 52.1988 15.14C51.7134 15.14 51.2748 15.042 50.8828 14.846C50.5001 14.6407 50.1968 14.3653 49.9728 14.02C49.7581 13.6653 49.6508 13.2687 49.6508 12.83ZM54.2148 13.208C54.3174 13.096 54.4014 12.984 54.4668 12.872C54.5321 12.76 54.5648 12.6573 54.5648 12.564V11.822C54.3408 11.7287 54.0981 11.6587 53.8368 11.612C53.5754 11.556 53.3281 11.528 53.0948 11.528C52.6094 11.528 52.2081 11.6353 51.8908 11.85C51.5828 12.0553 51.4288 12.3307 51.4288 12.676C51.4288 12.8627 51.4801 13.04 51.5828 13.208C51.6854 13.376 51.8348 13.5113 52.0308 13.614C52.2268 13.7167 52.4601 13.768 52.7308 13.768C53.0108 13.768 53.2861 13.7167 53.5568 13.614C53.8274 13.502 54.0468 13.3667 54.2148 13.208ZM57.5918 16.778V13.362H57.7878C57.9745 13.362 58.1472 13.3107 58.3058 13.208C58.4738 13.1053 58.6185 12.9327 58.7398 12.69C58.8705 12.438 58.9732 12.0927 59.0478 11.654C59.1318 11.2153 59.1878 10.6553 59.2158 9.974L59.2998 7.664H64.8018V13.362H65.8238V16.778H64.1858V15H59.2438V16.778H57.5918ZM60.1538 13.362H62.9258V9.246H60.9378L60.8958 10.156C60.8678 10.772 60.8212 11.2947 60.7558 11.724C60.6998 12.144 60.6205 12.4893 60.5178 12.76C60.4245 13.0213 60.3032 13.222 60.1538 13.362ZM66.5355 12.83C66.5355 12.354 66.6662 11.9387 66.9275 11.584C67.1982 11.22 67.5715 10.94 68.0475 10.744C68.5235 10.548 69.0695 10.45 69.6855 10.45C69.9935 10.45 70.3062 10.4733 70.6235 10.52C70.9409 10.5667 71.2162 10.6413 71.4495 10.744V10.352C71.4495 9.88533 71.3095 9.526 71.0295 9.274C70.7589 9.022 70.3529 8.896 69.8115 8.896C69.4102 8.896 69.0275 8.966 68.6635 9.106C68.2995 9.246 67.9169 9.45133 67.5155 9.722L66.9135 8.49C67.3989 8.17267 67.8935 7.93467 68.3975 7.776C68.9109 7.61733 69.4475 7.538 70.0075 7.538C71.0529 7.538 71.8649 7.79933 72.4435 8.322C73.0315 8.84467 73.3255 9.59133 73.3255 10.562V12.9C73.3255 13.096 73.3582 13.236 73.4235 13.32C73.4982 13.404 73.6149 13.4553 73.7735 13.474V15C73.6055 15.028 73.4515 15.0513 73.3115 15.07C73.1809 15.0887 73.0689 15.098 72.9755 15.098C72.6022 15.098 72.3175 15.014 72.1215 14.846C71.9349 14.678 71.8182 14.4727 71.7715 14.23L71.7295 13.852C71.4122 14.2627 71.0155 14.58 70.5395 14.804C70.0635 15.028 69.5782 15.14 69.0835 15.14C68.5982 15.14 68.1595 15.042 67.7675 14.846C67.3849 14.6407 67.0815 14.3653 66.8575 14.02C66.6429 13.6653 66.5355 13.2687 66.5355 12.83ZM71.0995 13.208C71.2022 13.096 71.2862 12.984 71.3515 12.872C71.4169 12.76 71.4495 12.6573 71.4495 12.564V11.822C71.2255 11.7287 70.9829 11.6587 70.7215 11.612C70.4602 11.556 70.2129 11.528 69.9795 11.528C69.4942 11.528 69.0929 11.6353 68.7755 11.85C68.4675 12.0553 68.3135 12.3307 68.3135 12.676C68.3135 12.8627 68.3649 13.04 68.4675 13.208C68.5702 13.376 68.7195 13.5113 68.9155 13.614C69.1115 13.7167 69.3449 13.768 69.6155 13.768C69.8955 13.768 70.1709 13.7167 70.4415 13.614C70.7122 13.502 70.9315 13.3667 71.0995 13.208ZM78.4806 15.14C77.8926 15.14 77.3606 15.042 76.8846 14.846C76.4086 14.6407 76.0026 14.3653 75.6666 14.02C75.3306 13.6653 75.0693 13.264 74.8826 12.816C74.7053 12.3587 74.6166 11.878 74.6166 11.374C74.6166 10.674 74.7706 10.0347 75.0786 9.456C75.3959 8.87733 75.8439 8.41533 76.4226 8.07C77.0106 7.71533 77.7013 7.538 78.4946 7.538C79.2973 7.538 79.9833 7.71533 80.5526 8.07C81.1219 8.41533 81.5559 8.87733 81.8546 9.456C82.1626 10.0253 82.3166 10.6413 82.3166 11.304C82.3166 11.416 82.3119 11.5327 82.3026 11.654C82.2933 11.766 82.2839 11.8593 82.2746 11.934H76.6046C76.6419 12.3073 76.7493 12.634 76.9266 12.914C77.1133 13.194 77.3466 13.4087 77.6266 13.558C77.9159 13.698 78.2239 13.768 78.5506 13.768C78.9239 13.768 79.2739 13.6793 79.6006 13.502C79.9366 13.3153 80.1653 13.0727 80.2866 12.774L81.8966 13.222C81.7193 13.5953 81.4626 13.9267 81.1266 14.216C80.7999 14.5053 80.4126 14.734 79.9646 14.902C79.5166 15.0607 79.0219 15.14 78.4806 15.14ZM76.5626 10.744H80.3986C80.3613 10.3707 80.2539 10.0487 80.0766 9.778C79.9086 9.498 79.6846 9.28333 79.4046 9.134C79.1246 8.97533 78.8119 8.896 78.4666 8.896C78.1306 8.896 77.8226 8.97533 77.5426 9.134C77.2719 9.28333 77.0479 9.498 76.8706 9.778C76.7026 10.0487 76.5999 10.3707 76.5626 10.744ZM83.4595 15V7.664H87.5475C88.0515 7.664 88.4575 7.748 88.7655 7.916C89.0828 8.084 89.3161 8.30333 89.4655 8.574C89.6148 8.84467 89.6895 9.134 89.6895 9.442C89.6895 9.85267 89.5961 10.212 89.4095 10.52C89.2321 10.828 88.9521 11.066 88.5695 11.234C88.9988 11.3553 89.3488 11.5653 89.6195 11.864C89.8901 12.1533 90.0255 12.536 90.0255 13.012C90.0255 13.4693 89.9181 13.8473 89.7035 14.146C89.4888 14.4353 89.1808 14.65 88.7795 14.79C88.3781 14.93 87.9021 15 87.3515 15H83.4595ZM85.2375 13.726H87.2955C87.4635 13.726 87.6175 13.684 87.7575 13.6C87.8975 13.516 88.0048 13.404 88.0795 13.264C88.1635 13.124 88.2055 12.97 88.2055 12.802C88.2055 12.6247 88.1681 12.4707 88.0935 12.34C88.0188 12.2 87.9115 12.0927 87.7715 12.018C87.6408 11.934 87.4868 11.892 87.3095 11.892H85.2375V13.726ZM85.2375 10.716H87.0715C87.2395 10.716 87.3888 10.674 87.5195 10.59C87.6501 10.506 87.7481 10.394 87.8135 10.254C87.8881 10.114 87.9255 9.96 87.9255 9.792C87.9255 9.54933 87.8461 9.34867 87.6875 9.19C87.5381 9.022 87.3375 8.938 87.0855 8.938H85.2375V10.716ZM91.3892 15V7.664H93.2652V10.436H93.8952L95.8832 7.664H97.9272L95.3232 11.206L98.2072 15H96.0652L93.8672 12.088H93.2652V15H91.3892ZM99.3735 15V7.678H101.25V12.494L104.54 7.664H106.248V15H104.372V10.296L101.124 15H99.3735ZM107.959 15V7.678H109.835V12.494L113.125 7.664H114.833V15H112.957V10.296L109.709 15H107.959ZM111.403 6.978C110.685 6.978 110.12 6.796 109.709 6.432C109.299 6.05867 109.093 5.58267 109.093 5.004H110.255C110.255 5.284 110.349 5.51733 110.535 5.704C110.722 5.89067 111.011 5.984 111.403 5.984C111.795 5.984 112.075 5.89533 112.243 5.718C112.421 5.54067 112.528 5.30267 112.565 5.004H113.727C113.727 5.58267 113.522 6.05867 113.111 6.432C112.701 6.796 112.131 6.978 111.403 6.978Z" fill="#1D2E43"/>
<path d="M3.94 33.31H1.43V38H0.76V32.79H3.94V33.31ZM4.10703 38V37.02H4.69703V38H4.10703ZM15.0904 38V32.17L12.5004 36.68H12.0904L9.50039 32.17V38H8.80039V30.9H9.52039L12.2904 35.76L15.0804 30.9H15.7904V38H15.0904ZM19.6009 38.1C19.2209 38.1 18.8742 38.03 18.5609 37.89C18.2475 37.7433 17.9742 37.5467 17.7409 37.3C17.5142 37.0533 17.3375 36.7667 17.2109 36.44C17.0842 36.1133 17.0209 35.77 17.0209 35.41C17.0209 35.0433 17.0842 34.6967 17.2109 34.37C17.3442 34.0433 17.5242 33.7567 17.7509 33.51C17.9842 33.2633 18.2575 33.0667 18.5709 32.92C18.8842 32.7733 19.2275 32.7 19.6009 32.7C19.9742 32.7 20.3175 32.7733 20.6309 32.92C20.9509 33.0667 21.2242 33.2633 21.4509 33.51C21.6842 33.7567 21.8642 34.0433 21.9909 34.37C22.1242 34.6967 22.1909 35.0433 22.1909 35.41C22.1909 35.77 22.1275 36.1133 22.0009 36.44C21.8742 36.7667 21.6942 37.0533 21.4609 37.3C21.2342 37.5467 20.9609 37.7433 20.6409 37.89C20.3275 38.03 19.9809 38.1 19.6009 38.1ZM17.7109 35.42C17.7109 35.7133 17.7609 35.9867 17.8609 36.24C17.9609 36.4867 18.0942 36.7067 18.2609 36.9C18.4342 37.0867 18.6342 37.2333 18.8609 37.34C19.0942 37.4467 19.3409 37.5 19.6009 37.5C19.8609 37.5 20.1042 37.4467 20.3309 37.34C20.5642 37.2267 20.7675 37.0767 20.9409 36.89C21.1142 36.6967 21.2509 36.4733 21.3509 36.22C21.4509 35.9667 21.5009 35.6933 21.5009 35.4C21.5009 35.1133 21.4509 34.8433 21.3509 34.59C21.2509 34.33 21.1142 34.1067 20.9409 33.92C20.7675 33.7267 20.5642 33.5767 20.3309 33.47C20.1042 33.3567 19.8609 33.3 19.6009 33.3C19.3409 33.3 19.0975 33.3567 18.8709 33.47C18.6442 33.5767 18.4442 33.7267 18.2709 33.92C18.0975 34.1133 17.9609 34.34 17.8609 34.6C17.7609 34.8533 17.7109 35.1267 17.7109 35.42ZM22.9681 35.38C22.9681 35.0133 23.0315 34.6667 23.1581 34.34C23.2848 34.0133 23.4615 33.73 23.6881 33.49C23.9215 33.2433 24.1981 33.05 24.5181 32.91C24.8381 32.77 25.1915 32.7 25.5781 32.7C26.0715 32.7 26.5015 32.8133 26.8681 33.04C27.2348 33.26 27.5115 33.56 27.6981 33.94L27.0381 34.15C26.8915 33.8833 26.6848 33.6767 26.4181 33.53C26.1581 33.3767 25.8681 33.3 25.5481 33.3C25.2815 33.3 25.0315 33.3533 24.7981 33.46C24.5715 33.5667 24.3715 33.7133 24.1981 33.9C24.0315 34.08 23.8981 34.2967 23.7981 34.55C23.7048 34.8033 23.6581 35.08 23.6581 35.38C23.6581 35.6733 23.7081 35.95 23.8081 36.21C23.9081 36.47 24.0448 36.6967 24.2181 36.89C24.3915 37.0767 24.5915 37.2267 24.8181 37.34C25.0515 37.4467 25.2981 37.5 25.5581 37.5C25.7248 37.5 25.8881 37.4767 26.0481 37.43C26.2148 37.3833 26.3681 37.32 26.5081 37.24C26.6481 37.1533 26.7681 37.0567 26.8681 36.95C26.9681 36.8433 27.0381 36.73 27.0781 36.61L27.7481 36.81C27.6748 36.9967 27.5681 37.17 27.4281 37.33C27.2881 37.4833 27.1215 37.62 26.9281 37.74C26.7415 37.8533 26.5315 37.94 26.2981 38C26.0715 38.0667 25.8348 38.1 25.5881 38.1C25.2081 38.1 24.8581 38.03 24.5381 37.89C24.2181 37.7433 23.9415 37.5467 23.7081 37.3C23.4748 37.0467 23.2915 36.7567 23.1581 36.43C23.0315 36.1033 22.9681 35.7533 22.9681 35.38ZM31.9064 32.79H32.6664L30.6964 35.31L32.8364 38H32.0764L30.2364 35.62H29.4964V38H28.8264V32.79H29.4964V35.09H30.1764L31.9064 32.79ZM36.2402 32.79C36.4268 32.79 36.5968 32.8233 36.7502 32.89C36.9102 32.9567 37.0468 33.05 37.1602 33.17C37.2802 33.2833 37.3702 33.4167 37.4302 33.57C37.4968 33.7233 37.5302 33.89 37.5302 34.07C37.5302 34.19 37.5135 34.31 37.4802 34.43C37.4535 34.55 37.4102 34.6667 37.3502 34.78C37.2902 34.8867 37.2135 34.9867 37.1202 35.08C37.0268 35.1667 36.9168 35.2367 36.7902 35.29C37.0835 35.37 37.3135 35.5233 37.4802 35.75C37.6468 35.9767 37.7302 36.25 37.7302 36.57C37.7302 36.7833 37.6902 36.9767 37.6102 37.15C37.5368 37.3233 37.4302 37.4733 37.2902 37.6C37.1568 37.7267 36.9968 37.8267 36.8102 37.9C36.6235 37.9667 36.4202 38 36.2002 38H33.6902V32.79H36.2402ZM35.9702 35.09C36.2435 35.09 36.4602 35.0033 36.6202 34.83C36.7802 34.6567 36.8602 34.4367 36.8602 34.17C36.8602 33.9367 36.7935 33.7333 36.6602 33.56C36.5268 33.3867 36.3202 33.3 36.0402 33.3H34.3502V35.09H35.9702ZM36.1302 37.49C36.2702 37.49 36.3968 37.4633 36.5102 37.41C36.6302 37.3567 36.7302 37.2867 36.8102 37.2C36.8902 37.1067 36.9535 37.0033 37.0002 36.89C37.0468 36.7767 37.0702 36.6567 37.0702 36.53C37.0702 36.29 36.9868 36.0767 36.8202 35.89C36.6602 35.7033 36.4368 35.61 36.1502 35.61H34.3502V37.49H36.1302ZM40.2045 38.1C39.9579 38.1 39.7279 38.06 39.5145 37.98C39.3079 37.8933 39.1245 37.7767 38.9645 37.63C38.8112 37.4833 38.6912 37.3133 38.6045 37.12C38.5179 36.92 38.4745 36.7067 38.4745 36.48C38.4745 36.2533 38.5279 36.0433 38.6345 35.85C38.7412 35.6567 38.8912 35.49 39.0845 35.35C39.2779 35.21 39.5079 35.1033 39.7745 35.03C40.0412 34.95 40.3345 34.91 40.6545 34.91C40.9212 34.91 41.1912 34.9333 41.4645 34.98C41.7379 35.0267 41.9812 35.0933 42.1945 35.18V34.71C42.1945 34.25 42.0645 33.8867 41.8045 33.62C41.5445 33.3467 41.1845 33.21 40.7245 33.21C40.4579 33.21 40.1845 33.2633 39.9045 33.37C39.6245 33.4767 39.3412 33.63 39.0545 33.83L38.8145 33.38C39.4879 32.9267 40.1412 32.7 40.7745 32.7C41.4279 32.7 41.9412 32.8833 42.3145 33.25C42.6879 33.6167 42.8745 34.1233 42.8745 34.77V37.12C42.8745 37.3067 42.9579 37.4 43.1245 37.4V38C43.0112 38.02 42.9245 38.03 42.8645 38.03C42.6912 38.03 42.5545 37.9867 42.4545 37.9C42.3612 37.8133 42.3112 37.6933 42.3045 37.54L42.2845 37.13C42.0445 37.4433 41.7412 37.6833 41.3745 37.85C41.0145 38.0167 40.6245 38.1 40.2045 38.1ZM40.3645 37.58C40.7179 37.58 41.0412 37.5133 41.3345 37.38C41.6345 37.2467 41.8612 37.07 42.0145 36.85C42.0745 36.79 42.1179 36.7267 42.1445 36.66C42.1779 36.5867 42.1945 36.52 42.1945 36.46V35.61C41.9679 35.5233 41.7312 35.4567 41.4845 35.41C41.2445 35.3633 40.9979 35.34 40.7445 35.34C40.2645 35.34 39.8745 35.44 39.5745 35.64C39.2745 35.84 39.1245 36.1033 39.1245 36.43C39.1245 36.59 39.1545 36.74 39.2145 36.88C39.2812 37.02 39.3679 37.1433 39.4745 37.25C39.5879 37.35 39.7212 37.43 39.8745 37.49C40.0279 37.55 40.1912 37.58 40.3645 37.58ZM44.4635 38.81L44.6335 37.97H44.4035V37.02H45.0635V37.97L44.8135 38.81H44.4635ZM49.9984 34.05H51.0784L53.3984 30.9H54.1984L51.7084 34.32L54.4584 38H53.6584L51.1384 34.67H49.9984V38H49.3084V30.9H49.9984V34.05ZM54.8711 39.38C54.9711 39.4733 55.0711 39.5367 55.1711 39.57C55.2711 39.6033 55.3778 39.62 55.4911 39.62C55.5778 39.62 55.6611 39.5933 55.7411 39.54C55.8278 39.4933 55.9111 39.4067 55.9911 39.28C56.0778 39.16 56.1644 38.9967 56.2511 38.79C56.3378 38.5833 56.4344 38.32 56.5411 38L54.2711 32.79H54.9711L56.9011 37.37L58.6911 32.79H59.3411L56.9111 38.86C56.8111 39.12 56.7078 39.3367 56.6011 39.51C56.5011 39.6833 56.3944 39.8233 56.2811 39.93C56.1744 40.0367 56.0578 40.11 55.9311 40.15C55.8111 40.1967 55.6778 40.22 55.5311 40.22C55.2311 40.22 55.0011 40.14 54.8411 39.98L54.8711 39.38ZM62.241 38H61.581V33.38H59.751V32.79H64.071V33.38H62.241V38ZM65.0273 39.38C65.1273 39.4733 65.2273 39.5367 65.3273 39.57C65.4273 39.6033 65.534 39.62 65.6473 39.62C65.734 39.62 65.8173 39.5933 65.8973 39.54C65.984 39.4933 66.0673 39.4067 66.1473 39.28C66.234 39.16 66.3207 38.9967 66.4073 38.79C66.494 38.5833 66.5907 38.32 66.6973 38L64.4273 32.79H65.1273L67.0573 37.37L68.8473 32.79H69.4973L67.0673 38.86C66.9673 39.12 66.864 39.3367 66.7573 39.51C66.6573 39.6833 66.5507 39.8233 66.4373 39.93C66.3307 40.0367 66.214 40.11 66.0873 40.15C65.9673 40.1967 65.834 40.22 65.6873 40.22C65.3873 40.22 65.1573 40.14 64.9973 39.98L65.0273 39.38ZM70.1084 33.34C70.2951 33.1267 70.5118 32.9667 70.7584 32.86C71.0118 32.7533 71.2851 32.7 71.5784 32.7C72.0384 32.7 72.4018 32.8133 72.6684 33.04C72.9351 33.2667 73.0684 33.57 73.0684 33.95C73.0684 34.2567 72.9851 34.5133 72.8184 34.72C72.6584 34.9267 72.4384 35.0533 72.1584 35.1C72.5318 35.1533 72.8251 35.3067 73.0384 35.56C73.2518 35.8067 73.3584 36.1167 73.3584 36.49C73.3584 36.73 73.3151 36.95 73.2284 37.15C73.1418 37.3433 73.0184 37.51 72.8584 37.65C72.6984 37.79 72.5051 37.9 72.2784 37.98C72.0518 38.06 71.8018 38.1 71.5284 38.1C71.1684 38.1 70.8618 38.0367 70.6084 37.91C70.3551 37.7767 70.1318 37.5867 69.9384 37.34L70.3184 36.87C70.4718 37.0833 70.6451 37.2433 70.8384 37.35C71.0384 37.45 71.2784 37.5 71.5584 37.5C71.9251 37.5 72.2051 37.41 72.3984 37.23C72.5984 37.0433 72.6984 36.7933 72.6984 36.48C72.6984 36.1333 72.5784 35.8667 72.3384 35.68C72.0984 35.4933 71.7551 35.4 71.3084 35.4H70.9584V34.87H71.3084C71.6618 34.87 71.9384 34.7967 72.1384 34.65C72.3384 34.4967 72.4384 34.28 72.4384 34C72.4384 33.7667 72.3584 33.5833 72.1984 33.45C72.0384 33.3167 71.8184 33.25 71.5384 33.25C71.3384 33.25 71.1484 33.2867 70.9684 33.36C70.7951 33.4333 70.6218 33.5567 70.4484 33.73L70.1084 33.34ZM76.7102 38.1C76.3302 38.1 75.9836 38.03 75.6702 37.89C75.3569 37.7433 75.0836 37.5467 74.8502 37.3C74.6236 37.0533 74.4469 36.7667 74.3202 36.44C74.1936 36.1133 74.1302 35.77 74.1302 35.41C74.1302 35.0433 74.1936 34.6967 74.3202 34.37C74.4536 34.0433 74.6336 33.7567 74.8602 33.51C75.0936 33.2633 75.3669 33.0667 75.6802 32.92C75.9936 32.7733 76.3369 32.7 76.7102 32.7C77.0836 32.7 77.4269 32.7733 77.7402 32.92C78.0602 33.0667 78.3336 33.2633 78.5602 33.51C78.7936 33.7567 78.9736 34.0433 79.1002 34.37C79.2336 34.6967 79.3002 35.0433 79.3002 35.41C79.3002 35.77 79.2369 36.1133 79.1102 36.44C78.9836 36.7667 78.8036 37.0533 78.5702 37.3C78.3436 37.5467 78.0702 37.7433 77.7502 37.89C77.4369 38.03 77.0902 38.1 76.7102 38.1ZM74.8202 35.42C74.8202 35.7133 74.8702 35.9867 74.9702 36.24C75.0702 36.4867 75.2036 36.7067 75.3702 36.9C75.5436 37.0867 75.7436 37.2333 75.9702 37.34C76.2036 37.4467 76.4502 37.5 76.7102 37.5C76.9702 37.5 77.2136 37.4467 77.4402 37.34C77.6736 37.2267 77.8769 37.0767 78.0502 36.89C78.2236 36.6967 78.3602 36.4733 78.4602 36.22C78.5602 35.9667 78.6102 35.6933 78.6102 35.4C78.6102 35.1133 78.5602 34.8433 78.4602 34.59C78.3602 34.33 78.2236 34.1067 78.0502 33.92C77.8769 33.7267 77.6736 33.5767 77.4402 33.47C77.2136 33.3567 76.9702 33.3 76.7102 33.3C76.4502 33.3 76.2069 33.3567 75.9802 33.47C75.7536 33.5767 75.5536 33.7267 75.3802 33.92C75.2069 34.1133 75.0702 34.34 74.9702 34.6C74.8702 34.8533 74.8202 35.1267 74.8202 35.42ZM83.0175 32.79C83.2042 32.79 83.3742 32.8233 83.5275 32.89C83.6875 32.9567 83.8242 33.05 83.9375 33.17C84.0575 33.2833 84.1475 33.4167 84.2075 33.57C84.2742 33.7233 84.3075 33.89 84.3075 34.07C84.3075 34.19 84.2908 34.31 84.2575 34.43C84.2308 34.55 84.1875 34.6667 84.1275 34.78C84.0675 34.8867 83.9908 34.9867 83.8975 35.08C83.8042 35.1667 83.6942 35.2367 83.5675 35.29C83.8608 35.37 84.0908 35.5233 84.2575 35.75C84.4242 35.9767 84.5075 36.25 84.5075 36.57C84.5075 36.7833 84.4675 36.9767 84.3875 37.15C84.3142 37.3233 84.2075 37.4733 84.0675 37.6C83.9342 37.7267 83.7742 37.8267 83.5875 37.9C83.4008 37.9667 83.1975 38 82.9775 38H80.4675V32.79H83.0175ZM82.7475 35.09C83.0208 35.09 83.2375 35.0033 83.3975 34.83C83.5575 34.6567 83.6375 34.4367 83.6375 34.17C83.6375 33.9367 83.5708 33.7333 83.4375 33.56C83.3042 33.3867 83.0975 33.3 82.8175 33.3H81.1275V35.09H82.7475ZM82.9075 37.49C83.0475 37.49 83.1742 37.4633 83.2875 37.41C83.4075 37.3567 83.5075 37.2867 83.5875 37.2C83.6675 37.1067 83.7308 37.0033 83.7775 36.89C83.8242 36.7767 83.8475 36.6567 83.8475 36.53C83.8475 36.29 83.7642 36.0767 83.5975 35.89C83.4375 35.7033 83.2142 35.61 82.9275 35.61H81.1275V37.49H82.9075ZM85.3119 35.38C85.3119 35.0133 85.3752 34.6667 85.5019 34.34C85.6285 34.0133 85.8052 33.73 86.0319 33.49C86.2652 33.2433 86.5419 33.05 86.8619 32.91C87.1819 32.77 87.5352 32.7 87.9219 32.7C88.4152 32.7 88.8452 32.8133 89.2119 33.04C89.5785 33.26 89.8552 33.56 90.0419 33.94L89.3819 34.15C89.2352 33.8833 89.0285 33.6767 88.7619 33.53C88.5019 33.3767 88.2119 33.3 87.8919 33.3C87.6252 33.3 87.3752 33.3533 87.1419 33.46C86.9152 33.5667 86.7152 33.7133 86.5419 33.9C86.3752 34.08 86.2419 34.2967 86.1419 34.55C86.0485 34.8033 86.0019 35.08 86.0019 35.38C86.0019 35.6733 86.0519 35.95 86.1519 36.21C86.2519 36.47 86.3885 36.6967 86.5619 36.89C86.7352 37.0767 86.9352 37.2267 87.1619 37.34C87.3952 37.4467 87.6419 37.5 87.9019 37.5C88.0685 37.5 88.2319 37.4767 88.3919 37.43C88.5585 37.3833 88.7119 37.32 88.8519 37.24C88.9919 37.1533 89.1119 37.0567 89.2119 36.95C89.3119 36.8433 89.3819 36.73 89.4219 36.61L90.0919 36.81C90.0185 36.9967 89.9119 37.17 89.7719 37.33C89.6319 37.4833 89.4652 37.62 89.2719 37.74C89.0852 37.8533 88.8752 37.94 88.6419 38C88.4152 38.0667 88.1785 38.1 87.9319 38.1C87.5519 38.1 87.2019 38.03 86.8819 37.89C86.5619 37.7433 86.2852 37.5467 86.0519 37.3C85.8185 37.0467 85.6352 36.7567 85.5019 36.43C85.3752 36.1033 85.3119 35.7533 85.3119 35.38ZM94.2502 32.79H95.0102L93.0402 35.31L95.1802 38H94.4202L92.5802 35.62H91.8402V38H91.1702V32.79H91.8402V35.09H92.5202L94.2502 32.79ZM96.6839 37.04L99.7939 32.79H100.344V38H99.6739V33.83L96.6239 38H96.0139V32.79H96.6839V37.04ZM105.503 30.84C105.49 31.1533 105.36 31.3933 105.113 31.56C104.873 31.72 104.54 31.8 104.113 31.8C103.68 31.8 103.343 31.72 103.103 31.56C102.863 31.3933 102.733 31.1533 102.713 30.84H103.143C103.157 31.0667 103.243 31.2267 103.403 31.32C103.563 31.4067 103.8 31.45 104.113 31.45C104.427 31.45 104.66 31.4067 104.813 31.32C104.973 31.2333 105.063 31.0733 105.083 30.84H105.503ZM102.543 37.04L105.653 32.79H106.203V38H105.533V33.83L102.483 38H101.873V32.79H102.543V37.04ZM114.372 38H113.712V33.38H110.942V38H110.272V32.79H114.372V38ZM118.566 38.1C118.126 38.1 117.736 37.99 117.396 37.77C117.063 37.5433 116.793 37.26 116.586 36.92V40.13H115.906V32.79H116.516V33.8C116.73 33.4733 117.006 33.21 117.346 33.01C117.686 32.8033 118.056 32.7 118.456 32.7C118.816 32.7 119.146 32.7767 119.446 32.93C119.746 33.0767 120.006 33.2767 120.226 33.53C120.446 33.7767 120.616 34.0633 120.736 34.39C120.863 34.7167 120.926 35.0533 120.926 35.4C120.926 35.7667 120.87 36.1133 120.756 36.44C120.643 36.7667 120.48 37.0533 120.266 37.3C120.06 37.5467 119.81 37.7433 119.516 37.89C119.23 38.03 118.913 38.1 118.566 38.1ZM118.376 37.5C118.656 37.5 118.91 37.44 119.136 37.32C119.37 37.2 119.566 37.0433 119.726 36.85C119.893 36.65 120.02 36.4267 120.106 36.18C120.193 35.9267 120.236 35.6667 120.236 35.4C120.236 35.12 120.186 34.8533 120.086 34.6C119.986 34.3467 119.85 34.1233 119.676 33.93C119.503 33.7367 119.296 33.5833 119.056 33.47C118.823 33.3567 118.57 33.3 118.296 33.3C118.123 33.3 117.94 33.3367 117.746 33.41C117.56 33.4767 117.383 33.57 117.216 33.69C117.056 33.8033 116.916 33.94 116.796 34.1C116.683 34.2533 116.613 34.4167 116.586 34.59V36.19C116.666 36.3767 116.766 36.55 116.886 36.71C117.013 36.87 117.153 37.01 117.306 37.13C117.466 37.2433 117.636 37.3333 117.816 37.4C117.996 37.4667 118.183 37.5 118.376 37.5ZM124.308 38.1C123.928 38.1 123.581 38.03 123.268 37.89C122.955 37.7433 122.681 37.5467 122.448 37.3C122.221 37.0533 122.045 36.7667 121.918 36.44C121.791 36.1133 121.728 35.77 121.728 35.41C121.728 35.0433 121.791 34.6967 121.918 34.37C122.051 34.0433 122.231 33.7567 122.458 33.51C122.691 33.2633 122.965 33.0667 123.278 32.92C123.591 32.7733 123.935 32.7 124.308 32.7C124.681 32.7 125.025 32.7733 125.338 32.92C125.658 33.0667 125.931 33.2633 126.158 33.51C126.391 33.7567 126.571 34.0433 126.698 34.37C126.831 34.6967 126.898 35.0433 126.898 35.41C126.898 35.77 126.835 36.1133 126.708 36.44C126.581 36.7667 126.401 37.0533 126.168 37.3C125.941 37.5467 125.668 37.7433 125.348 37.89C125.035 38.03 124.688 38.1 124.308 38.1ZM122.418 35.42C122.418 35.7133 122.468 35.9867 122.568 36.24C122.668 36.4867 122.801 36.7067 122.968 36.9C123.141 37.0867 123.341 37.2333 123.568 37.34C123.801 37.4467 124.048 37.5 124.308 37.5C124.568 37.5 124.811 37.4467 125.038 37.34C125.271 37.2267 125.475 37.0767 125.648 36.89C125.821 36.6967 125.958 36.4733 126.058 36.22C126.158 35.9667 126.208 35.6933 126.208 35.4C126.208 35.1133 126.158 34.8433 126.058 34.59C125.958 34.33 125.821 34.1067 125.648 33.92C125.475 33.7267 125.271 33.5767 125.038 33.47C124.811 33.3567 124.568 33.3 124.308 33.3C124.048 33.3 123.805 33.3567 123.578 33.47C123.351 33.5767 123.151 33.7267 122.978 33.92C122.805 34.1133 122.668 34.34 122.568 34.6C122.468 34.8533 122.418 35.1267 122.418 35.42ZM127.675 35.38C127.675 35.0133 127.738 34.6667 127.865 34.34C127.992 34.0133 128.168 33.73 128.395 33.49C128.628 33.2433 128.905 33.05 129.225 32.91C129.545 32.77 129.898 32.7 130.285 32.7C130.778 32.7 131.208 32.8133 131.575 33.04C131.942 33.26 132.218 33.56 132.405 33.94L131.745 34.15C131.598 33.8833 131.392 33.6767 131.125 33.53C130.865 33.3767 130.575 33.3 130.255 33.3C129.988 33.3 129.738 33.3533 129.505 33.46C129.278 33.5667 129.078 33.7133 128.905 33.9C128.738 34.08 128.605 34.2967 128.505 34.55C128.412 34.8033 128.365 35.08 128.365 35.38C128.365 35.6733 128.415 35.95 128.515 36.21C128.615 36.47 128.752 36.6967 128.925 36.89C129.098 37.0767 129.298 37.2267 129.525 37.34C129.758 37.4467 130.005 37.5 130.265 37.5C130.432 37.5 130.595 37.4767 130.755 37.43C130.922 37.3833 131.075 37.32 131.215 37.24C131.355 37.1533 131.475 37.0567 131.575 36.95C131.675 36.8433 131.745 36.73 131.785 36.61L132.455 36.81C132.382 36.9967 132.275 37.17 132.135 37.33C131.995 37.4833 131.828 37.62 131.635 37.74C131.448 37.8533 131.238 37.94 131.005 38C130.778 38.0667 130.542 38.1 130.295 38.1C129.915 38.1 129.565 38.03 129.245 37.89C128.925 37.7433 128.648 37.5467 128.415 37.3C128.182 37.0467 127.998 36.7567 127.865 36.43C127.738 36.1033 127.675 35.7533 127.675 35.38ZM137.633 38H136.973V33.38H134.203V38H133.533V32.79H137.633V38ZM141.408 38.1C141.028 38.1 140.678 38.03 140.358 37.89C140.045 37.7433 139.772 37.5467 139.538 37.3C139.305 37.0467 139.122 36.7567 138.988 36.43C138.862 36.1033 138.798 35.7533 138.798 35.38C138.798 35.0133 138.862 34.67 138.988 34.35C139.122 34.0233 139.302 33.74 139.528 33.5C139.762 33.2533 140.038 33.06 140.358 32.92C140.678 32.7733 141.025 32.7 141.398 32.7C141.778 32.7 142.125 32.7733 142.438 32.92C142.758 33.06 143.032 33.2533 143.258 33.5C143.485 33.7467 143.662 34.03 143.788 34.35C143.915 34.67 143.978 35.01 143.978 35.37C143.978 35.4233 143.978 35.4767 143.978 35.53C143.978 35.5833 143.975 35.62 143.968 35.64H139.508C139.528 35.92 139.592 36.18 139.698 36.42C139.812 36.6533 139.955 36.8567 140.128 37.03C140.302 37.2033 140.498 37.34 140.718 37.44C140.945 37.5333 141.185 37.58 141.438 37.58C141.605 37.58 141.772 37.5567 141.938 37.51C142.105 37.4633 142.258 37.4 142.398 37.32C142.538 37.24 142.665 37.1433 142.778 37.03C142.892 36.91 142.978 36.78 143.038 36.64L143.628 36.8C143.548 36.9933 143.435 37.17 143.288 37.33C143.142 37.4833 142.972 37.62 142.778 37.74C142.585 37.8533 142.372 37.94 142.138 38C141.905 38.0667 141.662 38.1 141.408 38.1ZM143.328 35.12C143.308 34.84 143.242 34.5867 143.128 34.36C143.022 34.1267 142.882 33.9267 142.708 33.76C142.542 33.5933 142.345 33.4633 142.118 33.37C141.898 33.2767 141.662 33.23 141.408 33.23C141.155 33.23 140.915 33.2767 140.688 33.37C140.462 33.4633 140.262 33.5933 140.088 33.76C139.922 33.9267 139.785 34.1267 139.678 34.36C139.578 34.5933 139.518 34.8467 139.498 35.12H143.328ZM148.117 32.79H148.877L146.907 35.31L149.047 38H148.287L146.447 35.62H145.707V38H145.037V32.79H145.707V35.09H146.387L148.117 32.79ZM151.821 38H151.161V33.38H149.331V32.79H153.651V33.38H151.821V38Z" fill="#959DA6"/>
<circle cx="163" cy="34" r="1" fill="#959DA6"/>
<path d="M172.764 38C172.764 37.7733 172.784 37.5467 172.824 37.32C172.864 37.0867 172.941 36.8567 173.054 36.63C173.174 36.4033 173.341 36.1867 173.554 35.98C173.774 35.7667 174.064 35.5667 174.424 35.38C174.618 35.28 174.818 35.1833 175.024 35.09C175.238 34.99 175.431 34.88 175.604 34.76C175.784 34.64 175.931 34.5067 176.044 34.36C176.158 34.2067 176.214 34.03 176.214 33.83C176.214 33.7033 176.184 33.58 176.124 33.46C176.071 33.3333 175.988 33.2233 175.874 33.13C175.768 33.03 175.631 32.95 175.464 32.89C175.304 32.83 175.114 32.8 174.894 32.8C174.674 32.8 174.478 32.8333 174.304 32.9C174.131 32.96 173.978 33.0333 173.844 33.12C173.718 33.2067 173.608 33.3 173.514 33.4C173.421 33.4933 173.351 33.57 173.304 33.63L172.854 33.14C172.894 33.1 172.971 33.0267 173.084 32.92C173.198 32.8133 173.344 32.7067 173.524 32.6C173.711 32.4933 173.928 32.4 174.174 32.32C174.421 32.2333 174.698 32.19 175.004 32.19C175.311 32.19 175.584 32.2333 175.824 32.32C176.064 32.4 176.268 32.5133 176.434 32.66C176.601 32.8067 176.728 32.9767 176.814 33.17C176.901 33.3567 176.944 33.5533 176.944 33.76C176.944 34.0333 176.884 34.27 176.764 34.47C176.644 34.67 176.494 34.8433 176.314 34.99C176.141 35.1367 175.954 35.2633 175.754 35.37C175.554 35.47 175.374 35.5567 175.214 35.63C175.001 35.7233 174.791 35.83 174.584 35.95C174.384 36.0633 174.204 36.19 174.044 36.33C173.884 36.47 173.751 36.6267 173.644 36.8C173.544 36.9733 173.494 37.1667 173.494 37.38H177.054V38H172.764ZM183.109 35.07C183.109 35.51 183.046 35.9167 182.919 36.29C182.792 36.6567 182.616 36.9767 182.389 37.25C182.169 37.5167 181.906 37.7267 181.599 37.88C181.292 38.0267 180.959 38.1 180.599 38.1C180.239 38.1 179.906 38.0267 179.599 37.88C179.292 37.7267 179.026 37.5167 178.799 37.25C178.579 36.9767 178.406 36.6567 178.279 36.29C178.152 35.9167 178.089 35.51 178.089 35.07C178.089 34.63 178.152 34.2267 178.279 33.86C178.406 33.4867 178.579 33.1667 178.799 32.9C179.026 32.6267 179.292 32.4133 179.599 32.26C179.906 32.1067 180.239 32.03 180.599 32.03C180.959 32.03 181.292 32.1067 181.599 32.26C181.906 32.4133 182.169 32.6267 182.389 32.9C182.616 33.1667 182.792 33.4867 182.919 33.86C183.046 34.2267 183.109 34.63 183.109 35.07ZM182.419 35.07C182.419 34.71 182.372 34.3833 182.279 34.09C182.192 33.7967 182.069 33.5467 181.909 33.34C181.749 33.1267 181.556 32.9633 181.329 32.85C181.109 32.73 180.866 32.67 180.599 32.67C180.326 32.67 180.076 32.73 179.849 32.85C179.629 32.9633 179.439 33.1267 179.279 33.34C179.119 33.5467 178.992 33.7967 178.899 34.09C178.812 34.3833 178.769 34.71 178.769 35.07C178.769 35.43 178.812 35.7567 178.899 36.05C178.992 36.3433 179.119 36.5967 179.279 36.81C179.439 37.0167 179.629 37.1767 179.849 37.29C180.076 37.4033 180.326 37.46 180.599 37.46C180.866 37.46 181.109 37.4033 181.329 37.29C181.556 37.1767 181.749 37.0167 181.909 36.81C182.069 36.5967 182.192 36.3433 182.279 36.05C182.372 35.7567 182.419 35.43 182.419 35.07ZM184.102 38C184.102 37.7733 184.122 37.5467 184.162 37.32C184.202 37.0867 184.279 36.8567 184.392 36.63C184.512 36.4033 184.679 36.1867 184.892 35.98C185.112 35.7667 185.402 35.5667 185.762 35.38C185.955 35.28 186.155 35.1833 186.362 35.09C186.575 34.99 186.769 34.88 186.942 34.76C187.122 34.64 187.269 34.5067 187.382 34.36C187.495 34.2067 187.552 34.03 187.552 33.83C187.552 33.7033 187.522 33.58 187.462 33.46C187.409 33.3333 187.325 33.2233 187.212 33.13C187.105 33.03 186.969 32.95 186.802 32.89C186.642 32.83 186.452 32.8 186.232 32.8C186.012 32.8 185.815 32.8333 185.642 32.9C185.469 32.96 185.315 33.0333 185.182 33.12C185.055 33.2067 184.945 33.3 184.852 33.4C184.759 33.4933 184.689 33.57 184.642 33.63L184.192 33.14C184.232 33.1 184.309 33.0267 184.422 32.92C184.535 32.8133 184.682 32.7067 184.862 32.6C185.049 32.4933 185.265 32.4 185.512 32.32C185.759 32.2333 186.035 32.19 186.342 32.19C186.649 32.19 186.922 32.2333 187.162 32.32C187.402 32.4 187.605 32.5133 187.772 32.66C187.939 32.8067 188.065 32.9767 188.152 33.17C188.239 33.3567 188.282 33.5533 188.282 33.76C188.282 34.0333 188.222 34.27 188.102 34.47C187.982 34.67 187.832 34.8433 187.652 34.99C187.479 35.1367 187.292 35.2633 187.092 35.37C186.892 35.47 186.712 35.5567 186.552 35.63C186.339 35.7233 186.129 35.83 185.922 35.95C185.722 36.0633 185.542 36.19 185.382 36.33C185.222 36.47 185.089 36.6267 184.982 36.8C184.882 36.9733 184.832 37.1667 184.832 37.38H188.392V38H184.102ZM194.447 35.07C194.447 35.51 194.384 35.9167 194.257 36.29C194.13 36.6567 193.954 36.9767 193.727 37.25C193.507 37.5167 193.244 37.7267 192.937 37.88C192.63 38.0267 192.297 38.1 191.937 38.1C191.577 38.1 191.244 38.0267 190.937 37.88C190.63 37.7267 190.364 37.5167 190.137 37.25C189.917 36.9767 189.744 36.6567 189.617 36.29C189.49 35.9167 189.427 35.51 189.427 35.07C189.427 34.63 189.49 34.2267 189.617 33.86C189.744 33.4867 189.917 33.1667 190.137 32.9C190.364 32.6267 190.63 32.4133 190.937 32.26C191.244 32.1067 191.577 32.03 191.937 32.03C192.297 32.03 192.63 32.1067 192.937 32.26C193.244 32.4133 193.507 32.6267 193.727 32.9C193.954 33.1667 194.13 33.4867 194.257 33.86C194.384 34.2267 194.447 34.63 194.447 35.07ZM193.757 35.07C193.757 34.71 193.71 34.3833 193.617 34.09C193.53 33.7967 193.407 33.5467 193.247 33.34C193.087 33.1267 192.894 32.9633 192.667 32.85C192.447 32.73 192.204 32.67 191.937 32.67C191.664 32.67 191.414 32.73 191.187 32.85C190.967 32.9633 190.777 33.1267 190.617 33.34C190.457 33.5467 190.33 33.7967 190.237 34.09C190.15 34.3833 190.107 34.71 190.107 35.07C190.107 35.43 190.15 35.7567 190.237 36.05C190.33 36.3433 190.457 36.5967 190.617 36.81C190.777 37.0167 190.967 37.1767 191.187 37.29C191.414 37.4033 191.664 37.46 191.937 37.46C192.204 37.46 192.447 37.4033 192.667 37.29C192.894 37.1767 193.087 37.0167 193.247 36.81C193.407 36.5967 193.53 36.3433 193.617 36.05C193.71 35.7567 193.757 35.43 193.757 35.07Z" fill="#959DA6"/>
</svg>
