<svg width="558" height="41" viewBox="0 0 558 41" fill="none" xmlns="http://www.w3.org/2000/svg">
<path d="M0.28 15L4.116 9.848L0.56 5.06H2.8L5.698 9.064H6.538V5.06H8.456V9.064H9.296L12.194 5.06H14.434L10.878 9.848L14.714 15H12.502L9.324 10.814H8.456V15H6.538V10.814H5.656L2.492 15H0.28ZM15.852 15V7.678H17.728V12.494L21.018 7.664H22.726V15H20.85V10.296L17.602 15H15.852ZM23.906 15.098V13.432C24.13 13.4227 24.3307 13.3667 24.508 13.264C24.6853 13.1613 24.8393 12.9887 24.97 12.746C25.11 12.494 25.2173 12.144 25.292 11.696C25.376 11.248 25.432 10.674 25.46 9.974L25.558 7.664H31.06V15H29.184V9.302H27.21L27.182 10.156C27.1447 11.1173 27.0513 11.9153 26.902 12.55C26.7527 13.1847 26.5427 13.6887 26.272 14.062C26.0107 14.426 25.684 14.6873 25.292 14.846C24.9 15.0047 24.438 15.0887 23.906 15.098ZM36.1522 15.14C35.5548 15.14 35.0182 15.042 34.5422 14.846C34.0662 14.6407 33.6602 14.3607 33.3242 14.006C32.9975 13.6513 32.7455 13.2453 32.5682 12.788C32.3908 12.3307 32.3022 11.85 32.3022 11.346C32.3022 10.8327 32.3908 10.3473 32.5682 9.89C32.7455 9.43267 32.9975 9.02667 33.3242 8.672C33.6602 8.31733 34.0662 8.042 34.5422 7.846C35.0182 7.64067 35.5548 7.538 36.1522 7.538C36.7495 7.538 37.2815 7.64067 37.7482 7.846C38.2242 8.042 38.6302 8.31733 38.9662 8.672C39.3022 9.02667 39.5542 9.43267 39.7222 9.89C39.8995 10.3473 39.9882 10.8327 39.9882 11.346C39.9882 11.85 39.8995 12.3307 39.7222 12.788C39.5542 13.2453 39.3022 13.6513 38.9662 14.006C38.6395 14.3607 38.2382 14.6407 37.7622 14.846C37.2862 15.042 36.7495 15.14 36.1522 15.14ZM34.2342 11.346C34.2342 11.7753 34.3182 12.158 34.4862 12.494C34.6542 12.8207 34.8828 13.0773 35.1722 13.264C35.4615 13.4507 35.7882 13.544 36.1522 13.544C36.5068 13.544 36.8288 13.4507 37.1182 13.264C37.4075 13.068 37.6362 12.8067 37.8042 12.48C37.9815 12.144 38.0702 11.7613 38.0702 11.332C38.0702 10.912 37.9815 10.534 37.8042 10.198C37.6362 9.862 37.4075 9.60067 37.1182 9.414C36.8288 9.22733 36.5068 9.134 36.1522 9.134C35.7882 9.134 35.4615 9.232 35.1722 9.428C34.8828 9.61467 34.6542 9.876 34.4862 10.212C34.3182 10.5387 34.2342 10.9167 34.2342 11.346ZM41.2544 15V7.678H43.1304V12.494L46.4204 7.664H48.1284V15H46.2524V10.296L43.0044 15H41.2544ZM44.6984 6.978C43.9797 6.978 43.4151 6.796 43.0044 6.432C42.5937 6.05867 42.3884 5.58267 42.3884 5.004H43.5504C43.5504 5.284 43.6437 5.51733 43.8304 5.704C44.0171 5.89067 44.3064 5.984 44.6984 5.984C45.0904 5.984 45.3704 5.89533 45.5384 5.718C45.7157 5.54067 45.8231 5.30267 45.8604 5.004H47.0224C47.0224 5.58267 46.8171 6.05867 46.4064 6.432C45.9957 6.796 45.4264 6.978 44.6984 6.978ZM53.2036 15V7.664H55.0796V10.436H55.7096L57.6976 7.664H59.7416L57.1376 11.206L60.0216 15H57.8796L55.6816 12.088H55.0796V15H53.2036ZM61.188 15V7.664H65.276C65.78 7.664 66.186 7.748 66.494 7.916C66.8113 8.084 67.0447 8.30333 67.194 8.574C67.3433 8.84467 67.418 9.134 67.418 9.442C67.418 9.85267 67.3247 10.212 67.138 10.52C66.9607 10.828 66.6807 11.066 66.298 11.234C66.7273 11.3553 67.0773 11.5653 67.348 11.864C67.6187 12.1533 67.754 12.536 67.754 13.012C67.754 13.4693 67.6467 13.8473 67.432 14.146C67.2173 14.4353 66.9093 14.65 66.508 14.79C66.1067 14.93 65.6307 15 65.08 15H61.188ZM62.966 13.726H65.024C65.192 13.726 65.346 13.684 65.486 13.6C65.626 13.516 65.7333 13.404 65.808 13.264C65.892 13.124 65.934 12.97 65.934 12.802C65.934 12.6247 65.8967 12.4707 65.822 12.34C65.7473 12.2 65.64 12.0927 65.5 12.018C65.3693 11.934 65.2153 11.892 65.038 11.892H62.966V13.726ZM62.966 10.716H64.8C64.968 10.716 65.1173 10.674 65.248 10.59C65.3787 10.506 65.4767 10.394 65.542 10.254C65.6167 10.114 65.654 9.96 65.654 9.792C65.654 9.54933 65.5747 9.34867 65.416 9.19C65.2667 9.022 65.066 8.938 64.814 8.938H62.966V10.716ZM68.6137 12.83C68.6137 12.354 68.7443 11.9387 69.0057 11.584C69.2763 11.22 69.6497 10.94 70.1257 10.744C70.6017 10.548 71.1477 10.45 71.7637 10.45C72.0717 10.45 72.3843 10.4733 72.7017 10.52C73.019 10.5667 73.2943 10.6413 73.5277 10.744V10.352C73.5277 9.88533 73.3877 9.526 73.1077 9.274C72.837 9.022 72.431 8.896 71.8897 8.896C71.4883 8.896 71.1057 8.966 70.7417 9.106C70.3777 9.246 69.995 9.45133 69.5937 9.722L68.9917 8.49C69.477 8.17267 69.9717 7.93467 70.4757 7.776C70.989 7.61733 71.5257 7.538 72.0857 7.538C73.131 7.538 73.943 7.79933 74.5217 8.322C75.1097 8.84467 75.4037 9.59133 75.4037 10.562V12.9C75.4037 13.096 75.4363 13.236 75.5017 13.32C75.5763 13.404 75.693 13.4553 75.8517 13.474V15C75.6837 15.028 75.5297 15.0513 75.3897 15.07C75.259 15.0887 75.147 15.098 75.0537 15.098C74.6803 15.098 74.3957 15.014 74.1997 14.846C74.013 14.678 73.8963 14.4727 73.8497 14.23L73.8077 13.852C73.4903 14.2627 73.0937 14.58 72.6177 14.804C72.1417 15.028 71.6563 15.14 71.1617 15.14C70.6763 15.14 70.2377 15.042 69.8457 14.846C69.463 14.6407 69.1597 14.3653 68.9357 14.02C68.721 13.6653 68.6137 13.2687 68.6137 12.83ZM73.1777 13.208C73.2803 13.096 73.3643 12.984 73.4297 12.872C73.495 12.76 73.5277 12.6573 73.5277 12.564V11.822C73.3037 11.7287 73.061 11.6587 72.7997 11.612C72.5383 11.556 72.291 11.528 72.0577 11.528C71.5723 11.528 71.171 11.6353 70.8537 11.85C70.5457 12.0553 70.3917 12.3307 70.3917 12.676C70.3917 12.8627 70.443 13.04 70.5457 13.208C70.6483 13.376 70.7977 13.5113 70.9937 13.614C71.1897 13.7167 71.423 13.768 71.6937 13.768C71.9737 13.768 72.249 13.7167 72.5197 13.614C72.7903 13.502 73.0097 13.3667 73.1777 13.208ZM81.5527 15.14C80.9834 15.14 80.4794 15.014 80.0407 14.762C79.6114 14.5007 79.2754 14.1507 79.0327 13.712V17.982H77.1567V7.664H78.7947V8.924C79.0747 8.49467 79.4294 8.15867 79.8587 7.916C80.2881 7.664 80.7781 7.538 81.3287 7.538C81.8234 7.538 82.2761 7.636 82.6867 7.832C83.1067 8.028 83.4707 8.30333 83.7787 8.658C84.0867 9.00333 84.3247 9.40467 84.4927 9.862C84.6701 10.31 84.7587 10.7953 84.7587 11.318C84.7587 12.0273 84.6187 12.6713 84.3387 13.25C84.0681 13.8287 83.6901 14.2907 83.2047 14.636C82.7287 14.972 82.1781 15.14 81.5527 15.14ZM80.9227 13.544C81.2121 13.544 81.4734 13.4833 81.7067 13.362C81.9401 13.2407 82.1407 13.0773 82.3087 12.872C82.4861 12.6573 82.6167 12.4193 82.7007 12.158C82.7941 11.8873 82.8407 11.6073 82.8407 11.318C82.8407 11.01 82.7894 10.7253 82.6867 10.464C82.5934 10.2027 82.4534 9.974 82.2667 9.778C82.0801 9.57267 81.8607 9.414 81.6087 9.302C81.3661 9.19 81.1001 9.134 80.8107 9.134C80.6334 9.134 80.4514 9.16667 80.2647 9.232C80.0874 9.288 79.9147 9.372 79.7467 9.484C79.5787 9.596 79.4294 9.72667 79.2987 9.876C79.1774 10.0253 79.0887 10.1887 79.0327 10.366V12.088C79.1447 12.3587 79.2941 12.606 79.4807 12.83C79.6767 13.054 79.9007 13.2313 80.1527 13.362C80.4047 13.4833 80.6614 13.544 80.9227 13.544ZM87.7238 15V9.302H85.3998V7.664H91.9378V9.302H89.5998V15H87.7238ZM92.4574 12.83C92.4574 12.354 92.5881 11.9387 92.8494 11.584C93.1201 11.22 93.4934 10.94 93.9694 10.744C94.4454 10.548 94.9914 10.45 95.6074 10.45C95.9154 10.45 96.2281 10.4733 96.5454 10.52C96.8628 10.5667 97.1381 10.6413 97.3714 10.744V10.352C97.3714 9.88533 97.2314 9.526 96.9514 9.274C96.6808 9.022 96.2748 8.896 95.7334 8.896C95.3321 8.896 94.9494 8.966 94.5854 9.106C94.2214 9.246 93.8388 9.45133 93.4374 9.722L92.8354 8.49C93.3208 8.17267 93.8154 7.93467 94.3194 7.776C94.8328 7.61733 95.3694 7.538 95.9294 7.538C96.9748 7.538 97.7868 7.79933 98.3654 8.322C98.9534 8.84467 99.2474 9.59133 99.2474 10.562V12.9C99.2474 13.096 99.2801 13.236 99.3454 13.32C99.4201 13.404 99.5368 13.4553 99.6954 13.474V15C99.5274 15.028 99.3734 15.0513 99.2334 15.07C99.1028 15.0887 98.9908 15.098 98.8974 15.098C98.5241 15.098 98.2394 15.014 98.0434 14.846C97.8568 14.678 97.7401 14.4727 97.6934 14.23L97.6514 13.852C97.3341 14.2627 96.9374 14.58 96.4614 14.804C95.9854 15.028 95.5001 15.14 95.0054 15.14C94.5201 15.14 94.0814 15.042 93.6894 14.846C93.3068 14.6407 93.0034 14.3653 92.7794 14.02C92.5648 13.6653 92.4574 13.2687 92.4574 12.83ZM97.0214 13.208C97.1241 13.096 97.2081 12.984 97.2734 12.872C97.3388 12.76 97.3714 12.6573 97.3714 12.564V11.822C97.1474 11.7287 96.9048 11.6587 96.6434 11.612C96.3821 11.556 96.1348 11.528 95.9014 11.528C95.4161 11.528 95.0148 11.6353 94.6974 11.85C94.3894 12.0553 94.2354 12.3307 94.2354 12.676C94.2354 12.8627 94.2868 13.04 94.3894 13.208C94.4921 13.376 94.6414 13.5113 94.8374 13.614C95.0334 13.7167 95.2668 13.768 95.5374 13.768C95.8174 13.768 96.0928 13.7167 96.3634 13.614C96.6341 13.502 96.8534 13.3667 97.0214 13.208ZM100.468 15.098V13.432C100.692 13.4227 100.893 13.3667 101.07 13.264C101.248 13.1613 101.402 12.9887 101.532 12.746C101.672 12.494 101.78 12.144 101.854 11.696C101.938 11.248 101.994 10.674 102.022 9.974L102.12 7.664H107.622V15H105.746V9.302H103.772L103.744 10.156C103.707 11.1173 103.614 11.9153 103.464 12.55C103.315 13.1847 103.105 13.6887 102.834 14.062C102.573 14.426 102.246 14.6873 101.854 14.846C101.462 15.0047 101 15.0887 100.468 15.098ZM112.872 15V5.06H117.086C117.543 5.06 117.963 5.15333 118.346 5.34C118.729 5.52667 119.06 5.77867 119.34 6.096C119.629 6.41333 119.853 6.768 120.012 7.16C120.171 7.552 120.25 7.95333 120.25 8.364C120.25 8.924 120.119 9.456 119.858 9.96C119.597 10.464 119.237 10.8747 118.78 11.192C118.323 11.5093 117.781 11.668 117.156 11.668H114.804V15H112.872ZM114.804 9.974H117.044C117.277 9.974 117.487 9.90867 117.674 9.778C117.861 9.64733 118.01 9.46067 118.122 9.218C118.234 8.966 118.29 8.68133 118.29 8.364C118.29 8.01867 118.225 7.72467 118.094 7.482C117.973 7.23933 117.809 7.05733 117.604 6.936C117.408 6.81467 117.193 6.754 116.96 6.754H114.804V9.974ZM121.595 15V5.06H125.991C126.448 5.06 126.868 5.15333 127.251 5.34C127.643 5.52667 127.979 5.77867 128.259 6.096C128.548 6.41333 128.767 6.768 128.917 7.16C129.075 7.552 129.155 7.95333 129.155 8.364C129.155 8.784 129.08 9.19 128.931 9.582C128.791 9.96467 128.585 10.3007 128.315 10.59C128.044 10.8793 127.727 11.1033 127.363 11.262L129.631 15H127.503L125.459 11.668H123.527V15H121.595ZM123.527 9.974H125.949C126.191 9.974 126.406 9.904 126.593 9.764C126.779 9.61467 126.929 9.41867 127.041 9.176C127.153 8.93333 127.209 8.66267 127.209 8.364C127.209 8.04667 127.143 7.77133 127.013 7.538C126.882 7.29533 126.714 7.104 126.509 6.964C126.313 6.824 126.098 6.754 125.865 6.754H123.527V9.974ZM130.905 15V5.06H132.837V15H130.905ZM143.017 15V8.476L140.469 13.334H139.391L136.843 8.476V15H134.911V5.06H136.983L139.923 10.716L142.891 5.06H144.949V15H143.017ZM153.926 13.306V15H147.024V5.06H153.8V6.754H148.956V9.148H153.142V10.716H148.956V13.306H153.926ZM158.796 15V5.06H163.01C163.467 5.06 163.887 5.15333 164.27 5.34C164.652 5.52667 164.984 5.77867 165.264 6.096C165.553 6.41333 165.777 6.768 165.936 7.16C166.094 7.552 166.174 7.95333 166.174 8.364C166.174 8.924 166.043 9.456 165.782 9.96C165.52 10.464 165.161 10.8747 164.704 11.192C164.246 11.5093 163.705 11.668 163.08 11.668H160.728V15H158.796ZM160.728 9.974H162.968C163.201 9.974 163.411 9.90867 163.598 9.778C163.784 9.64733 163.934 9.46067 164.046 9.218C164.158 8.966 164.214 8.68133 164.214 8.364C164.214 8.01867 164.148 7.72467 164.018 7.482C163.896 7.23933 163.733 7.05733 163.528 6.936C163.332 6.81467 163.117 6.754 162.884 6.754H160.728V9.974ZM169.509 5.06H171.469L175.123 15H173.135L172.211 12.522H168.739L167.829 15H165.841L169.509 5.06ZM171.861 11.164L170.489 7.062L169.061 11.164H171.861ZM176.214 15V5.06H180.61C181.067 5.06 181.487 5.15333 181.87 5.34C182.262 5.52667 182.598 5.77867 182.878 6.096C183.167 6.41333 183.386 6.768 183.536 7.16C183.694 7.552 183.774 7.95333 183.774 8.364C183.774 8.784 183.699 9.19 183.55 9.582C183.41 9.96467 183.204 10.3007 182.934 10.59C182.663 10.8793 182.346 11.1033 181.982 11.262L184.25 15H182.122L180.078 11.668H178.146V15H176.214ZM178.146 9.974H180.568C180.81 9.974 181.025 9.904 181.212 9.764C181.398 9.61467 181.548 9.41867 181.66 9.176C181.772 8.93333 181.828 8.66267 181.828 8.364C181.828 8.04667 181.762 7.77133 181.632 7.538C181.501 7.29533 181.333 7.104 181.128 6.964C180.932 6.824 180.717 6.754 180.484 6.754H178.146V9.974ZM185.524 15V5.074H187.456V9.792L191.628 5.06H193.756L189.948 9.47L193.994 15H191.81L188.716 10.716L187.456 12.032V15H185.524Z" fill="#4E4E4E"/>
<path d="M3.94 33.31H1.43V38H0.76V32.79H3.94V33.31ZM4.10703 38V37.02H4.69703V38H4.10703ZM15.0904 38V32.17L12.5004 36.68H12.0904L9.50039 32.17V38H8.80039V30.9H9.52039L12.2904 35.76L15.0804 30.9H15.7904V38H15.0904ZM19.6009 38.1C19.2209 38.1 18.8742 38.03 18.5609 37.89C18.2475 37.7433 17.9742 37.5467 17.7409 37.3C17.5142 37.0533 17.3375 36.7667 17.2109 36.44C17.0842 36.1133 17.0209 35.77 17.0209 35.41C17.0209 35.0433 17.0842 34.6967 17.2109 34.37C17.3442 34.0433 17.5242 33.7567 17.7509 33.51C17.9842 33.2633 18.2575 33.0667 18.5709 32.92C18.8842 32.7733 19.2275 32.7 19.6009 32.7C19.9742 32.7 20.3175 32.7733 20.6309 32.92C20.9509 33.0667 21.2242 33.2633 21.4509 33.51C21.6842 33.7567 21.8642 34.0433 21.9909 34.37C22.1242 34.6967 22.1909 35.0433 22.1909 35.41C22.1909 35.77 22.1275 36.1133 22.0009 36.44C21.8742 36.7667 21.6942 37.0533 21.4609 37.3C21.2342 37.5467 20.9609 37.7433 20.6409 37.89C20.3275 38.03 19.9809 38.1 19.6009 38.1ZM17.7109 35.42C17.7109 35.7133 17.7609 35.9867 17.8609 36.24C17.9609 36.4867 18.0942 36.7067 18.2609 36.9C18.4342 37.0867 18.6342 37.2333 18.8609 37.34C19.0942 37.4467 19.3409 37.5 19.6009 37.5C19.8609 37.5 20.1042 37.4467 20.3309 37.34C20.5642 37.2267 20.7675 37.0767 20.9409 36.89C21.1142 36.6967 21.2509 36.4733 21.3509 36.22C21.4509 35.9667 21.5009 35.6933 21.5009 35.4C21.5009 35.1133 21.4509 34.8433 21.3509 34.59C21.2509 34.33 21.1142 34.1067 20.9409 33.92C20.7675 33.7267 20.5642 33.5767 20.3309 33.47C20.1042 33.3567 19.8609 33.3 19.6009 33.3C19.3409 33.3 19.0975 33.3567 18.8709 33.47C18.6442 33.5767 18.4442 33.7267 18.2709 33.92C18.0975 34.1133 17.9609 34.34 17.8609 34.6C17.7609 34.8533 17.7109 35.1267 17.7109 35.42ZM22.9681 35.38C22.9681 35.0133 23.0315 34.6667 23.1581 34.34C23.2848 34.0133 23.4615 33.73 23.6881 33.49C23.9215 33.2433 24.1981 33.05 24.5181 32.91C24.8381 32.77 25.1915 32.7 25.5781 32.7C26.0715 32.7 26.5015 32.8133 26.8681 33.04C27.2348 33.26 27.5115 33.56 27.6981 33.94L27.0381 34.15C26.8915 33.8833 26.6848 33.6767 26.4181 33.53C26.1581 33.3767 25.8681 33.3 25.5481 33.3C25.2815 33.3 25.0315 33.3533 24.7981 33.46C24.5715 33.5667 24.3715 33.7133 24.1981 33.9C24.0315 34.08 23.8981 34.2967 23.7981 34.55C23.7048 34.8033 23.6581 35.08 23.6581 35.38C23.6581 35.6733 23.7081 35.95 23.8081 36.21C23.9081 36.47 24.0448 36.6967 24.2181 36.89C24.3915 37.0767 24.5915 37.2267 24.8181 37.34C25.0515 37.4467 25.2981 37.5 25.5581 37.5C25.7248 37.5 25.8881 37.4767 26.0481 37.43C26.2148 37.3833 26.3681 37.32 26.5081 37.24C26.6481 37.1533 26.7681 37.0567 26.8681 36.95C26.9681 36.8433 27.0381 36.73 27.0781 36.61L27.7481 36.81C27.6748 36.9967 27.5681 37.17 27.4281 37.33C27.2881 37.4833 27.1215 37.62 26.9281 37.74C26.7415 37.8533 26.5315 37.94 26.2981 38C26.0715 38.0667 25.8348 38.1 25.5881 38.1C25.2081 38.1 24.8581 38.03 24.5381 37.89C24.2181 37.7433 23.9415 37.5467 23.7081 37.3C23.4748 37.0467 23.2915 36.7567 23.1581 36.43C23.0315 36.1033 22.9681 35.7533 22.9681 35.38ZM31.9064 32.79H32.6664L30.6964 35.31L32.8364 38H32.0764L30.2364 35.62H29.4964V38H28.8264V32.79H29.4964V35.09H30.1764L31.9064 32.79ZM36.2402 32.79C36.4268 32.79 36.5968 32.8233 36.7502 32.89C36.9102 32.9567 37.0468 33.05 37.1602 33.17C37.2802 33.2833 37.3702 33.4167 37.4302 33.57C37.4968 33.7233 37.5302 33.89 37.5302 34.07C37.5302 34.19 37.5135 34.31 37.4802 34.43C37.4535 34.55 37.4102 34.6667 37.3502 34.78C37.2902 34.8867 37.2135 34.9867 37.1202 35.08C37.0268 35.1667 36.9168 35.2367 36.7902 35.29C37.0835 35.37 37.3135 35.5233 37.4802 35.75C37.6468 35.9767 37.7302 36.25 37.7302 36.57C37.7302 36.7833 37.6902 36.9767 37.6102 37.15C37.5368 37.3233 37.4302 37.4733 37.2902 37.6C37.1568 37.7267 36.9968 37.8267 36.8102 37.9C36.6235 37.9667 36.4202 38 36.2002 38H33.6902V32.79H36.2402ZM35.9702 35.09C36.2435 35.09 36.4602 35.0033 36.6202 34.83C36.7802 34.6567 36.8602 34.4367 36.8602 34.17C36.8602 33.9367 36.7935 33.7333 36.6602 33.56C36.5268 33.3867 36.3202 33.3 36.0402 33.3H34.3502V35.09H35.9702ZM36.1302 37.49C36.2702 37.49 36.3968 37.4633 36.5102 37.41C36.6302 37.3567 36.7302 37.2867 36.8102 37.2C36.8902 37.1067 36.9535 37.0033 37.0002 36.89C37.0468 36.7767 37.0702 36.6567 37.0702 36.53C37.0702 36.29 36.9868 36.0767 36.8202 35.89C36.6602 35.7033 36.4368 35.61 36.1502 35.61H34.3502V37.49H36.1302ZM40.2045 38.1C39.9579 38.1 39.7279 38.06 39.5145 37.98C39.3079 37.8933 39.1245 37.7767 38.9645 37.63C38.8112 37.4833 38.6912 37.3133 38.6045 37.12C38.5179 36.92 38.4745 36.7067 38.4745 36.48C38.4745 36.2533 38.5279 36.0433 38.6345 35.85C38.7412 35.6567 38.8912 35.49 39.0845 35.35C39.2779 35.21 39.5079 35.1033 39.7745 35.03C40.0412 34.95 40.3345 34.91 40.6545 34.91C40.9212 34.91 41.1912 34.9333 41.4645 34.98C41.7379 35.0267 41.9812 35.0933 42.1945 35.18V34.71C42.1945 34.25 42.0645 33.8867 41.8045 33.62C41.5445 33.3467 41.1845 33.21 40.7245 33.21C40.4579 33.21 40.1845 33.2633 39.9045 33.37C39.6245 33.4767 39.3412 33.63 39.0545 33.83L38.8145 33.38C39.4879 32.9267 40.1412 32.7 40.7745 32.7C41.4279 32.7 41.9412 32.8833 42.3145 33.25C42.6879 33.6167 42.8745 34.1233 42.8745 34.77V37.12C42.8745 37.3067 42.9579 37.4 43.1245 37.4V38C43.0112 38.02 42.9245 38.03 42.8645 38.03C42.6912 38.03 42.5545 37.9867 42.4545 37.9C42.3612 37.8133 42.3112 37.6933 42.3045 37.54L42.2845 37.13C42.0445 37.4433 41.7412 37.6833 41.3745 37.85C41.0145 38.0167 40.6245 38.1 40.2045 38.1ZM40.3645 37.58C40.7179 37.58 41.0412 37.5133 41.3345 37.38C41.6345 37.2467 41.8612 37.07 42.0145 36.85C42.0745 36.79 42.1179 36.7267 42.1445 36.66C42.1779 36.5867 42.1945 36.52 42.1945 36.46V35.61C41.9679 35.5233 41.7312 35.4567 41.4845 35.41C41.2445 35.3633 40.9979 35.34 40.7445 35.34C40.2645 35.34 39.8745 35.44 39.5745 35.64C39.2745 35.84 39.1245 36.1033 39.1245 36.43C39.1245 36.59 39.1545 36.74 39.2145 36.88C39.2812 37.02 39.3679 37.1433 39.4745 37.25C39.5879 37.35 39.7212 37.43 39.8745 37.49C40.0279 37.55 40.1912 37.58 40.3645 37.58ZM44.4635 38.81L44.6335 37.97H44.4035V37.02H45.0635V37.97L44.8135 38.81H44.4635ZM50.9084 32.78C50.8284 33.72 50.7251 34.5233 50.5984 35.19C50.4784 35.8567 50.3251 36.4033 50.1384 36.83C49.9584 37.25 49.7384 37.56 49.4784 37.76C49.2251 37.9533 48.9251 38.05 48.5784 38.05L48.4584 37.38C48.5918 37.3733 48.7184 37.3467 48.8384 37.3C48.9651 37.2533 49.0851 37.17 49.1984 37.05C49.3118 36.9233 49.4184 36.7533 49.5184 36.54C49.6184 36.32 49.7118 36.04 49.7984 35.7C49.8851 35.3533 49.9618 34.9367 50.0284 34.45C50.1018 33.9633 50.1651 33.3867 50.2184 32.72L50.3684 30.9H53.9784V38H53.2884V31.52H51.0084L50.9084 32.78ZM57.834 38.1C57.454 38.1 57.104 38.03 56.784 37.89C56.4707 37.7433 56.1973 37.5467 55.964 37.3C55.7307 37.0467 55.5473 36.7567 55.414 36.43C55.2873 36.1033 55.224 35.7533 55.224 35.38C55.224 35.0133 55.2873 34.67 55.414 34.35C55.5473 34.0233 55.7273 33.74 55.954 33.5C56.1873 33.2533 56.464 33.06 56.784 32.92C57.104 32.7733 57.4507 32.7 57.824 32.7C58.204 32.7 58.5507 32.7733 58.864 32.92C59.184 33.06 59.4573 33.2533 59.684 33.5C59.9107 33.7467 60.0873 34.03 60.214 34.35C60.3407 34.67 60.404 35.01 60.404 35.37C60.404 35.4233 60.404 35.4767 60.404 35.53C60.404 35.5833 60.4007 35.62 60.394 35.64H55.934C55.954 35.92 56.0173 36.18 56.124 36.42C56.2373 36.6533 56.3807 36.8567 56.554 37.03C56.7273 37.2033 56.924 37.34 57.144 37.44C57.3707 37.5333 57.6107 37.58 57.864 37.58C58.0307 37.58 58.1973 37.5567 58.364 37.51C58.5307 37.4633 58.684 37.4 58.824 37.32C58.964 37.24 59.0907 37.1433 59.204 37.03C59.3173 36.91 59.404 36.78 59.464 36.64L60.054 36.8C59.974 36.9933 59.8607 37.17 59.714 37.33C59.5673 37.4833 59.3973 37.62 59.204 37.74C59.0107 37.8533 58.7973 37.94 58.564 38C58.3307 38.0667 58.0873 38.1 57.834 38.1ZM59.754 35.12C59.734 34.84 59.6673 34.5867 59.554 34.36C59.4473 34.1267 59.3073 33.9267 59.134 33.76C58.9673 33.5933 58.7707 33.4633 58.544 33.37C58.324 33.2767 58.0873 33.23 57.834 33.23C57.5807 33.23 57.3407 33.2767 57.114 33.37C56.8873 33.4633 56.6873 33.5933 56.514 33.76C56.3473 33.9267 56.2107 34.1267 56.104 34.36C56.004 34.5933 55.944 34.8467 55.924 35.12H59.754ZM62.1331 35.04H65.0531V32.79H65.7231V38H65.0531V35.61H62.1331V38H61.4631V32.79H62.1331V35.04ZM67.9144 37.04L71.0244 32.79H71.5744V38H70.9044V33.83L67.8544 38H67.2444V32.79H67.9144V37.04ZM73.7738 35.04H76.6938V32.79H77.3638V38H76.6938V35.61H73.7738V38H73.1038V32.79H73.7738V35.04ZM82.065 33.31H79.555V38H78.885V32.79H82.065V33.31ZM85.6954 38.1C85.2554 38.1 84.8654 37.99 84.5254 37.77C84.1921 37.5433 83.9221 37.26 83.7154 36.92V40.13H83.0354V32.79H83.6454V33.8C83.8587 33.4733 84.1354 33.21 84.4754 33.01C84.8154 32.8033 85.1854 32.7 85.5854 32.7C85.9454 32.7 86.2754 32.7767 86.5754 32.93C86.8754 33.0767 87.1354 33.2767 87.3554 33.53C87.5754 33.7767 87.7454 34.0633 87.8654 34.39C87.9921 34.7167 88.0554 35.0533 88.0554 35.4C88.0554 35.7667 87.9987 36.1133 87.8854 36.44C87.7721 36.7667 87.6087 37.0533 87.3954 37.3C87.1887 37.5467 86.9387 37.7433 86.6454 37.89C86.3587 38.03 86.0421 38.1 85.6954 38.1ZM85.5054 37.5C85.7854 37.5 86.0387 37.44 86.2654 37.32C86.4987 37.2 86.6954 37.0433 86.8554 36.85C87.0221 36.65 87.1487 36.4267 87.2354 36.18C87.3221 35.9267 87.3654 35.6667 87.3654 35.4C87.3654 35.12 87.3154 34.8533 87.2154 34.6C87.1154 34.3467 86.9787 34.1233 86.8054 33.93C86.6321 33.7367 86.4254 33.5833 86.1854 33.47C85.9521 33.3567 85.6987 33.3 85.4254 33.3C85.2521 33.3 85.0687 33.3367 84.8754 33.41C84.6887 33.4767 84.5121 33.57 84.3454 33.69C84.1854 33.8033 84.0454 33.94 83.9254 34.1C83.8121 34.2533 83.7421 34.4167 83.7154 34.59V36.19C83.7954 36.3767 83.8954 36.55 84.0154 36.71C84.1421 36.87 84.2821 37.01 84.4354 37.13C84.5954 37.2433 84.7654 37.3333 84.9454 37.4C85.1254 37.4667 85.3121 37.5 85.5054 37.5ZM90.5268 38.1C90.2801 38.1 90.0501 38.06 89.8368 37.98C89.6301 37.8933 89.4468 37.7767 89.2868 37.63C89.1335 37.4833 89.0135 37.3133 88.9268 37.12C88.8401 36.92 88.7968 36.7067 88.7968 36.48C88.7968 36.2533 88.8501 36.0433 88.9568 35.85C89.0635 35.6567 89.2135 35.49 89.4068 35.35C89.6001 35.21 89.8301 35.1033 90.0968 35.03C90.3635 34.95 90.6568 34.91 90.9768 34.91C91.2435 34.91 91.5135 34.9333 91.7868 34.98C92.0601 35.0267 92.3035 35.0933 92.5168 35.18V34.71C92.5168 34.25 92.3868 33.8867 92.1268 33.62C91.8668 33.3467 91.5068 33.21 91.0468 33.21C90.7801 33.21 90.5068 33.2633 90.2268 33.37C89.9468 33.4767 89.6635 33.63 89.3768 33.83L89.1368 33.38C89.8101 32.9267 90.4635 32.7 91.0968 32.7C91.7501 32.7 92.2635 32.8833 92.6368 33.25C93.0101 33.6167 93.1968 34.1233 93.1968 34.77V37.12C93.1968 37.3067 93.2801 37.4 93.4468 37.4V38C93.3335 38.02 93.2468 38.03 93.1868 38.03C93.0135 38.03 92.8768 37.9867 92.7768 37.9C92.6835 37.8133 92.6335 37.6933 92.6268 37.54L92.6068 37.13C92.3668 37.4433 92.0635 37.6833 91.6968 37.85C91.3368 38.0167 90.9468 38.1 90.5268 38.1ZM90.6868 37.58C91.0401 37.58 91.3635 37.5133 91.6568 37.38C91.9568 37.2467 92.1835 37.07 92.3368 36.85C92.3968 36.79 92.4401 36.7267 92.4668 36.66C92.5001 36.5867 92.5168 36.52 92.5168 36.46V35.61C92.2901 35.5233 92.0535 35.4567 91.8068 35.41C91.5668 35.3633 91.3201 35.34 91.0668 35.34C90.5868 35.34 90.1968 35.44 89.8968 35.64C89.5968 35.84 89.4468 36.1033 89.4468 36.43C89.4468 36.59 89.4768 36.74 89.5368 36.88C89.6035 37.02 89.6901 37.1433 89.7968 37.25C89.9101 37.35 90.0435 37.43 90.1968 37.49C90.3501 37.55 90.5135 37.58 90.6868 37.58ZM94.1058 37.41H94.4058C94.5524 37.3767 94.6791 37.3033 94.7858 37.19C94.8991 37.07 94.9991 36.89 95.0858 36.65C95.1724 36.4033 95.2491 36.0833 95.3158 35.69C95.3824 35.29 95.4524 34.7933 95.5258 34.2L95.6858 32.79H98.7358V37.41H99.3758V39.61H98.7758V38H94.6758V39.61H94.1058V37.41ZM98.0758 37.41V33.33H96.3158L96.1658 34.49C96.0524 35.3167 95.9291 35.9633 95.7958 36.43C95.6691 36.8967 95.5158 37.2233 95.3358 37.41H98.0758ZM100.029 35.38C100.029 35.0133 100.092 34.6667 100.219 34.34C100.345 34.0133 100.522 33.73 100.749 33.49C100.982 33.2433 101.259 33.05 101.579 32.91C101.899 32.77 102.252 32.7 102.639 32.7C103.132 32.7 103.562 32.8133 103.929 33.04C104.295 33.26 104.572 33.56 104.759 33.94L104.099 34.15C103.952 33.8833 103.745 33.6767 103.479 33.53C103.219 33.3767 102.929 33.3 102.609 33.3C102.342 33.3 102.092 33.3533 101.859 33.46C101.632 33.5667 101.432 33.7133 101.259 33.9C101.092 34.08 100.959 34.2967 100.859 34.55C100.765 34.8033 100.719 35.08 100.719 35.38C100.719 35.6733 100.769 35.95 100.869 36.21C100.969 36.47 101.105 36.6967 101.279 36.89C101.452 37.0767 101.652 37.2267 101.879 37.34C102.112 37.4467 102.359 37.5 102.619 37.5C102.785 37.5 102.949 37.4767 103.109 37.43C103.275 37.3833 103.429 37.32 103.569 37.24C103.709 37.1533 103.829 37.0567 103.929 36.95C104.029 36.8433 104.099 36.73 104.139 36.61L104.809 36.81C104.735 36.9967 104.629 37.17 104.489 37.33C104.349 37.4833 104.182 37.62 103.989 37.74C103.802 37.8533 103.592 37.94 103.359 38C103.132 38.0667 102.895 38.1 102.649 38.1C102.269 38.1 101.919 38.03 101.599 37.89C101.279 37.7433 101.002 37.5467 100.769 37.3C100.535 37.0467 100.352 36.7567 100.219 36.43C100.092 36.1033 100.029 35.7533 100.029 35.38ZM108.967 32.79H109.727L107.757 35.31L109.897 38H109.137L107.297 35.62H106.557V38H105.887V32.79H106.557V35.09H107.237L108.967 32.79ZM111.401 37.04L114.511 32.79H115.061V38H114.391V33.83L111.341 38H110.731V32.79H111.401V37.04ZM120.22 30.84C120.207 31.1533 120.077 31.3933 119.83 31.56C119.59 31.72 119.257 31.8 118.83 31.8C118.397 31.8 118.06 31.72 117.82 31.56C117.58 31.3933 117.45 31.1533 117.43 30.84H117.86C117.873 31.0667 117.96 31.2267 118.12 31.32C118.28 31.4067 118.517 31.45 118.83 31.45C119.143 31.45 119.377 31.4067 119.53 31.32C119.69 31.2333 119.78 31.0733 119.8 30.84H120.22ZM117.26 37.04L120.37 32.79H120.92V38H120.25V33.83L117.2 38H116.59V32.79H117.26V37.04ZM129.089 38H128.429V33.38H125.659V38H124.989V32.79H129.089V38ZM133.283 38.1C132.843 38.1 132.453 37.99 132.113 37.77C131.78 37.5433 131.51 37.26 131.303 36.92V40.13H130.623V32.79H131.233V33.8C131.447 33.4733 131.723 33.21 132.063 33.01C132.403 32.8033 132.773 32.7 133.173 32.7C133.533 32.7 133.863 32.7767 134.163 32.93C134.463 33.0767 134.723 33.2767 134.943 33.53C135.163 33.7767 135.333 34.0633 135.453 34.39C135.58 34.7167 135.643 35.0533 135.643 35.4C135.643 35.7667 135.587 36.1133 135.473 36.44C135.36 36.7667 135.197 37.0533 134.983 37.3C134.777 37.5467 134.527 37.7433 134.233 37.89C133.947 38.03 133.63 38.1 133.283 38.1ZM133.093 37.5C133.373 37.5 133.627 37.44 133.853 37.32C134.087 37.2 134.283 37.0433 134.443 36.85C134.61 36.65 134.737 36.4267 134.823 36.18C134.91 35.9267 134.953 35.6667 134.953 35.4C134.953 35.12 134.903 34.8533 134.803 34.6C134.703 34.3467 134.567 34.1233 134.393 33.93C134.22 33.7367 134.013 33.5833 133.773 33.47C133.54 33.3567 133.287 33.3 133.013 33.3C132.84 33.3 132.657 33.3367 132.463 33.41C132.277 33.4767 132.1 33.57 131.933 33.69C131.773 33.8033 131.633 33.94 131.513 34.1C131.4 34.2533 131.33 34.4167 131.303 34.59V36.19C131.383 36.3767 131.483 36.55 131.603 36.71C131.73 36.87 131.87 37.01 132.023 37.13C132.183 37.2433 132.353 37.3333 132.533 37.4C132.713 37.4667 132.9 37.5 133.093 37.5ZM139.025 38.1C138.645 38.1 138.298 38.03 137.985 37.89C137.671 37.7433 137.398 37.5467 137.165 37.3C136.938 37.0533 136.761 36.7667 136.635 36.44C136.508 36.1133 136.445 35.77 136.445 35.41C136.445 35.0433 136.508 34.6967 136.635 34.37C136.768 34.0433 136.948 33.7567 137.175 33.51C137.408 33.2633 137.681 33.0667 137.995 32.92C138.308 32.7733 138.651 32.7 139.025 32.7C139.398 32.7 139.741 32.7733 140.055 32.92C140.375 33.0667 140.648 33.2633 140.875 33.51C141.108 33.7567 141.288 34.0433 141.415 34.37C141.548 34.6967 141.615 35.0433 141.615 35.41C141.615 35.77 141.551 36.1133 141.425 36.44C141.298 36.7667 141.118 37.0533 140.885 37.3C140.658 37.5467 140.385 37.7433 140.065 37.89C139.751 38.03 139.405 38.1 139.025 38.1ZM137.135 35.42C137.135 35.7133 137.185 35.9867 137.285 36.24C137.385 36.4867 137.518 36.7067 137.685 36.9C137.858 37.0867 138.058 37.2333 138.285 37.34C138.518 37.4467 138.765 37.5 139.025 37.5C139.285 37.5 139.528 37.4467 139.755 37.34C139.988 37.2267 140.191 37.0767 140.365 36.89C140.538 36.6967 140.675 36.4733 140.775 36.22C140.875 35.9667 140.925 35.6933 140.925 35.4C140.925 35.1133 140.875 34.8433 140.775 34.59C140.675 34.33 140.538 34.1067 140.365 33.92C140.191 33.7267 139.988 33.5767 139.755 33.47C139.528 33.3567 139.285 33.3 139.025 33.3C138.765 33.3 138.521 33.3567 138.295 33.47C138.068 33.5767 137.868 33.7267 137.695 33.92C137.521 34.1133 137.385 34.34 137.285 34.6C137.185 34.8533 137.135 35.1267 137.135 35.42ZM142.392 35.38C142.392 35.0133 142.455 34.6667 142.582 34.34C142.709 34.0133 142.885 33.73 143.112 33.49C143.345 33.2433 143.622 33.05 143.942 32.91C144.262 32.77 144.615 32.7 145.002 32.7C145.495 32.7 145.925 32.8133 146.292 33.04C146.659 33.26 146.935 33.56 147.122 33.94L146.462 34.15C146.315 33.8833 146.109 33.6767 145.842 33.53C145.582 33.3767 145.292 33.3 144.972 33.3C144.705 33.3 144.455 33.3533 144.222 33.46C143.995 33.5667 143.795 33.7133 143.622 33.9C143.455 34.08 143.322 34.2967 143.222 34.55C143.129 34.8033 143.082 35.08 143.082 35.38C143.082 35.6733 143.132 35.95 143.232 36.21C143.332 36.47 143.469 36.6967 143.642 36.89C143.815 37.0767 144.015 37.2267 144.242 37.34C144.475 37.4467 144.722 37.5 144.982 37.5C145.149 37.5 145.312 37.4767 145.472 37.43C145.639 37.3833 145.792 37.32 145.932 37.24C146.072 37.1533 146.192 37.0567 146.292 36.95C146.392 36.8433 146.462 36.73 146.502 36.61L147.172 36.81C147.099 36.9967 146.992 37.17 146.852 37.33C146.712 37.4833 146.545 37.62 146.352 37.74C146.165 37.8533 145.955 37.94 145.722 38C145.495 38.0667 145.259 38.1 145.012 38.1C144.632 38.1 144.282 38.03 143.962 37.89C143.642 37.7433 143.365 37.5467 143.132 37.3C142.899 37.0467 142.715 36.7567 142.582 36.43C142.455 36.1033 142.392 35.7533 142.392 35.38ZM152.35 38H151.69V33.38H148.92V38H148.25V32.79H152.35V38ZM156.125 38.1C155.745 38.1 155.395 38.03 155.075 37.89C154.762 37.7433 154.488 37.5467 154.255 37.3C154.022 37.0467 153.838 36.7567 153.705 36.43C153.578 36.1033 153.515 35.7533 153.515 35.38C153.515 35.0133 153.578 34.67 153.705 34.35C153.838 34.0233 154.018 33.74 154.245 33.5C154.478 33.2533 154.755 33.06 155.075 32.92C155.395 32.7733 155.742 32.7 156.115 32.7C156.495 32.7 156.842 32.7733 157.155 32.92C157.475 33.06 157.748 33.2533 157.975 33.5C158.202 33.7467 158.378 34.03 158.505 34.35C158.632 34.67 158.695 35.01 158.695 35.37C158.695 35.4233 158.695 35.4767 158.695 35.53C158.695 35.5833 158.692 35.62 158.685 35.64H154.225C154.245 35.92 154.308 36.18 154.415 36.42C154.528 36.6533 154.672 36.8567 154.845 37.03C155.018 37.2033 155.215 37.34 155.435 37.44C155.662 37.5333 155.902 37.58 156.155 37.58C156.322 37.58 156.488 37.5567 156.655 37.51C156.822 37.4633 156.975 37.4 157.115 37.32C157.255 37.24 157.382 37.1433 157.495 37.03C157.608 36.91 157.695 36.78 157.755 36.64L158.345 36.8C158.265 36.9933 158.152 37.17 158.005 37.33C157.858 37.4833 157.688 37.62 157.495 37.74C157.302 37.8533 157.088 37.94 156.855 38C156.622 38.0667 156.378 38.1 156.125 38.1ZM158.045 35.12C158.025 34.84 157.958 34.5867 157.845 34.36C157.738 34.1267 157.598 33.9267 157.425 33.76C157.258 33.5933 157.062 33.4633 156.835 33.37C156.615 33.2767 156.378 33.23 156.125 33.23C155.872 33.23 155.632 33.2767 155.405 33.37C155.178 33.4633 154.978 33.5933 154.805 33.76C154.638 33.9267 154.502 34.1267 154.395 34.36C154.295 34.5933 154.235 34.8467 154.215 35.12H158.045ZM162.834 32.79H163.594L161.624 35.31L163.764 38H163.004L161.164 35.62H160.424V38H159.754V32.79H160.424V35.09H161.104L162.834 32.79ZM166.538 38H165.878V33.38H164.048V32.79H168.368V33.38H166.538V38Z" fill="#959DA6"/>
<circle cx="178" cy="34" r="1" fill="#959DA6"/>
<path d="M187.61 38C187.61 37.7733 187.63 37.5467 187.67 37.32C187.71 37.0867 187.787 36.8567 187.9 36.63C188.02 36.4033 188.187 36.1867 188.4 35.98C188.62 35.7667 188.91 35.5667 189.27 35.38C189.463 35.28 189.663 35.1833 189.87 35.09C190.083 34.99 190.277 34.88 190.45 34.76C190.63 34.64 190.777 34.5067 190.89 34.36C191.003 34.2067 191.06 34.03 191.06 33.83C191.06 33.7033 191.03 33.58 190.97 33.46C190.917 33.3333 190.833 33.2233 190.72 33.13C190.613 33.03 190.477 32.95 190.31 32.89C190.15 32.83 189.96 32.8 189.74 32.8C189.52 32.8 189.323 32.8333 189.15 32.9C188.977 32.96 188.823 33.0333 188.69 33.12C188.563 33.2067 188.453 33.3 188.36 33.4C188.267 33.4933 188.197 33.57 188.15 33.63L187.7 33.14C187.74 33.1 187.817 33.0267 187.93 32.92C188.043 32.8133 188.19 32.7067 188.37 32.6C188.557 32.4933 188.773 32.4 189.02 32.32C189.267 32.2333 189.543 32.19 189.85 32.19C190.157 32.19 190.43 32.2333 190.67 32.32C190.91 32.4 191.113 32.5133 191.28 32.66C191.447 32.8067 191.573 32.9767 191.66 33.17C191.747 33.3567 191.79 33.5533 191.79 33.76C191.79 34.0333 191.73 34.27 191.61 34.47C191.49 34.67 191.34 34.8433 191.16 34.99C190.987 35.1367 190.8 35.2633 190.6 35.37C190.4 35.47 190.22 35.5567 190.06 35.63C189.847 35.7233 189.637 35.83 189.43 35.95C189.23 36.0633 189.05 36.19 188.89 36.33C188.73 36.47 188.597 36.6267 188.49 36.8C188.39 36.9733 188.34 37.1667 188.34 37.38H191.9V38H187.61ZM197.955 35.07C197.955 35.51 197.891 35.9167 197.765 36.29C197.638 36.6567 197.461 36.9767 197.235 37.25C197.015 37.5167 196.751 37.7267 196.445 37.88C196.138 38.0267 195.805 38.1 195.445 38.1C195.085 38.1 194.751 38.0267 194.445 37.88C194.138 37.7267 193.871 37.5167 193.645 37.25C193.425 36.9767 193.251 36.6567 193.125 36.29C192.998 35.9167 192.935 35.51 192.935 35.07C192.935 34.63 192.998 34.2267 193.125 33.86C193.251 33.4867 193.425 33.1667 193.645 32.9C193.871 32.6267 194.138 32.4133 194.445 32.26C194.751 32.1067 195.085 32.03 195.445 32.03C195.805 32.03 196.138 32.1067 196.445 32.26C196.751 32.4133 197.015 32.6267 197.235 32.9C197.461 33.1667 197.638 33.4867 197.765 33.86C197.891 34.2267 197.955 34.63 197.955 35.07ZM197.265 35.07C197.265 34.71 197.218 34.3833 197.125 34.09C197.038 33.7967 196.915 33.5467 196.755 33.34C196.595 33.1267 196.401 32.9633 196.175 32.85C195.955 32.73 195.711 32.67 195.445 32.67C195.171 32.67 194.921 32.73 194.695 32.85C194.475 32.9633 194.285 33.1267 194.125 33.34C193.965 33.5467 193.838 33.7967 193.745 34.09C193.658 34.3833 193.615 34.71 193.615 35.07C193.615 35.43 193.658 35.7567 193.745 36.05C193.838 36.3433 193.965 36.5967 194.125 36.81C194.285 37.0167 194.475 37.1767 194.695 37.29C194.921 37.4033 195.171 37.46 195.445 37.46C195.711 37.46 195.955 37.4033 196.175 37.29C196.401 37.1767 196.595 37.0167 196.755 36.81C196.915 36.5967 197.038 36.3433 197.125 36.05C197.218 35.7567 197.265 35.43 197.265 35.07ZM198.948 38C198.948 37.7733 198.968 37.5467 199.008 37.32C199.048 37.0867 199.124 36.8567 199.238 36.63C199.358 36.4033 199.524 36.1867 199.738 35.98C199.958 35.7667 200.248 35.5667 200.608 35.38C200.801 35.28 201.001 35.1833 201.208 35.09C201.421 34.99 201.614 34.88 201.788 34.76C201.968 34.64 202.114 34.5067 202.228 34.36C202.341 34.2067 202.398 34.03 202.398 33.83C202.398 33.7033 202.368 33.58 202.308 33.46C202.254 33.3333 202.171 33.2233 202.058 33.13C201.951 33.03 201.814 32.95 201.648 32.89C201.488 32.83 201.298 32.8 201.078 32.8C200.858 32.8 200.661 32.8333 200.488 32.9C200.314 32.96 200.161 33.0333 200.028 33.12C199.901 33.2067 199.791 33.3 199.698 33.4C199.604 33.4933 199.534 33.57 199.488 33.63L199.038 33.14C199.078 33.1 199.154 33.0267 199.268 32.92C199.381 32.8133 199.528 32.7067 199.708 32.6C199.894 32.4933 200.111 32.4 200.358 32.32C200.604 32.2333 200.881 32.19 201.188 32.19C201.494 32.19 201.768 32.2333 202.008 32.32C202.248 32.4 202.451 32.5133 202.618 32.66C202.784 32.8067 202.911 32.9767 202.998 33.17C203.084 33.3567 203.128 33.5533 203.128 33.76C203.128 34.0333 203.068 34.27 202.948 34.47C202.828 34.67 202.678 34.8433 202.498 34.99C202.324 35.1367 202.138 35.2633 201.938 35.37C201.738 35.47 201.558 35.5567 201.398 35.63C201.184 35.7233 200.974 35.83 200.768 35.95C200.568 36.0633 200.388 36.19 200.228 36.33C200.068 36.47 199.934 36.6267 199.828 36.8C199.728 36.9733 199.678 37.1667 199.678 37.38H203.238V38H198.948ZM207.783 37.38V38H204.393V37.38H205.813V33.1C205.759 33.18 205.666 33.2667 205.533 33.36C205.406 33.4533 205.263 33.54 205.103 33.62C204.949 33.7 204.789 33.7667 204.623 33.82C204.456 33.8733 204.309 33.9 204.183 33.9V33.24C204.336 33.24 204.503 33.1967 204.683 33.11C204.869 33.0233 205.043 32.9233 205.203 32.81C205.369 32.6967 205.509 32.59 205.623 32.49C205.736 32.39 205.799 32.3233 205.813 32.29H206.513V37.38H207.783Z" fill="#959DA6"/>
</svg>
