<svg width="443" height="42" viewBox="0 0 443 42" fill="none" xmlns="http://www.w3.org/2000/svg">
<path d="M9.15796 16.4141L9.15102 9.89009L6.60819 14.7508L5.53019 14.7519L2.97702 9.89666L2.98397 16.4207L1.05197 16.4227L1.04139 6.48272L3.11339 6.48052L6.0594 12.1334L9.02138 6.47423L11.0794 6.47204L11.09 16.412L9.15796 16.4141ZM17.0012 16.4057L17.0003 15.5097C16.4029 15.473 15.8381 15.3476 15.3059 15.1335C14.7737 14.9194 14.302 14.6213 13.8909 14.239C13.4799 13.8568 13.1527 13.4045 12.9095 12.8821C12.6756 12.3503 12.5583 11.7671 12.5576 11.1325C12.5569 10.4605 12.6776 9.863 12.9197 9.34008C13.1711 8.80781 13.5067 8.35479 13.9263 7.981C14.3459 7.59789 14.8169 7.30339 15.3393 7.0975C15.8711 6.8916 16.4216 6.76968 16.9909 6.73174L16.9901 5.97574L18.8241 5.97379L18.8249 6.72979C19.3943 6.76652 19.9451 6.89193 20.4773 7.10603C21.0096 7.3108 21.4812 7.6043 21.8923 7.98652C22.3127 8.35941 22.6445 8.81172 22.8877 9.34347C23.1309 9.86587 23.2529 10.4584 23.2536 11.1211C23.2543 11.7744 23.1336 12.3625 22.8915 12.8855C22.6587 13.4084 22.3325 13.8614 21.9129 14.2445C21.5027 14.6276 21.0317 14.9268 20.4999 15.142C19.9681 15.3479 19.4129 15.4698 18.8343 15.5078L18.8352 16.4038L17.0012 16.4057ZM17.0546 13.9557L17.0486 8.28568C16.582 8.31418 16.1528 8.4453 15.761 8.67905C15.3693 8.9128 15.0569 9.23514 14.824 9.64605C14.6005 10.0476 14.489 10.5424 14.4896 11.1304C14.4901 11.5691 14.5605 11.961 14.7009 12.3062C14.8412 12.642 15.0282 12.9312 15.2618 13.1736C15.5047 13.4067 15.7802 13.593 16.0884 13.7327C16.3965 13.863 16.7186 13.9374 17.0546 13.9557ZM18.7766 13.9538C19.2339 13.916 19.6585 13.7849 20.0502 13.5605C20.442 13.3267 20.7543 13.0091 20.9872 12.6075C21.2201 12.1966 21.3362 11.7018 21.3356 11.1231C21.3352 10.6845 21.2647 10.2972 21.1244 9.96134C20.9934 9.62548 20.8064 9.33635 20.5635 9.09394C20.3299 8.85152 20.059 8.66048 19.7508 8.5208C19.4427 8.38113 19.1159 8.30215 18.7706 8.28385L18.7766 13.9538ZM24.7733 16.3975L24.7627 6.45747L26.6807 6.45543L26.685 10.4594L27.665 10.4584L30.6147 6.45124L32.7707 6.44894L29.1639 11.2688L33.0613 16.3886L30.7233 16.3911L27.6389 12.2084L26.6869 12.2094L26.6913 16.3954L24.7733 16.3975ZM37.6112 16.3838L37.6006 6.4438L39.5186 6.44176L39.5229 10.4458L40.5029 10.4447L43.4526 6.43757L45.6086 6.43528L42.0017 11.2551L45.8992 16.375L43.5612 16.3775L40.4767 12.1947L39.5247 12.1958L39.5292 16.3818L37.6112 16.3838ZM49.9495 16.5107C49.3522 16.5113 48.8154 16.4139 48.3392 16.2184C47.863 16.0135 47.4567 15.734 47.1203 15.3797C46.7932 15.0254 46.5408 14.6196 46.363 14.1625C46.1852 13.7053 46.096 13.2248 46.0955 12.7208C46.0949 12.2074 46.1831 11.722 46.3599 11.2645C46.5368 10.807 46.7883 10.4007 47.1146 10.0457C47.4502 9.69065 47.8559 9.41488 48.3317 9.21838C48.8075 9.01254 49.3441 8.9093 49.9414 8.90866C50.5387 8.90803 51.0708 9.01013 51.5377 9.21496C52.0139 9.41046 52.4202 9.68536 52.7566 10.0397C53.093 10.394 53.3454 10.7997 53.5139 11.2569C53.6917 11.714 53.7809 12.1992 53.7815 12.7126C53.782 13.2166 53.6938 13.6973 53.517 14.1549C53.3495 14.6124 53.0979 15.0186 52.7623 15.3737C52.436 15.7287 52.035 16.0091 51.5592 16.2149C51.0834 16.4115 50.5468 16.51 49.9495 16.5107ZM48.0275 12.7187C48.0279 13.148 48.1123 13.5306 48.2807 13.8664C48.449 14.1929 48.678 14.4493 48.9675 14.6357C49.257 14.8221 49.5838 14.915 49.9478 14.9147C50.3025 14.9143 50.6244 14.8206 50.9135 14.6336C51.2026 14.4373 51.431 14.1757 51.5987 13.8489C51.7756 13.5127 51.8639 13.13 51.8634 12.7006C51.863 12.2806 51.7739 11.9027 51.5962 11.5669C51.4279 11.2311 51.1989 10.97 50.9094 10.7836C50.6199 10.5973 50.2978 10.5043 49.9431 10.5047C49.5791 10.5051 49.2525 10.6034 48.9634 10.7997C48.6743 10.9867 48.4459 11.2483 48.2782 11.5844C48.1106 11.9113 48.027 12.2894 48.0275 12.7187ZM55.0516 16.3652L55.0438 9.02923L57.0038 9.02715L59.3043 13.2667L61.6098 9.02224L63.5418 9.02018L63.5496 16.3562L61.7716 16.3581L61.7665 11.6121L59.8942 15.0581L58.7182 15.0593L56.8245 11.6173L56.8296 16.3633L55.0516 16.3652ZM65.2781 16.3543L65.2703 9.01834L71.8503 9.01134L71.8581 16.3473L69.9821 16.3493L69.9761 10.6513L67.1481 10.6543L67.1541 16.3523L65.2781 16.3543ZM73.0314 16.4441L73.0296 14.7781C73.2536 14.7685 73.4542 14.7123 73.6314 14.6094C73.8087 14.5066 73.9625 14.3338 74.0929 14.091C74.2326 13.8388 74.3396 13.4887 74.4138 13.0406C74.4973 12.5925 74.5527 12.0185 74.5799 11.3184L74.6755 9.00833L80.1775 9.00247L80.1853 16.3385L78.3093 16.3405L78.3032 10.6425L76.3292 10.6446L76.3021 11.4986C76.2658 12.46 76.1733 13.2581 76.0247 13.8929C75.876 14.5277 75.6666 15.0319 75.3963 15.4056C75.1353 15.7698 74.809 16.0315 74.4171 16.1906C74.0253 16.3497 73.5634 16.4342 73.0314 16.4441ZM85.2916 16.473C84.7036 16.4737 84.1715 16.3762 83.6953 16.1807C83.2191 15.9759 82.8128 15.701 82.4764 15.356C82.14 15.0017 81.8783 14.6007 81.6911 14.1529C81.5133 13.6957 81.4241 13.2152 81.4236 12.7112C81.4228 12.0112 81.5762 11.3717 81.8835 10.7927C82.2003 10.2137 82.6478 9.75118 83.2261 9.40523C83.8137 9.04994 84.5042 8.87187 85.2975 8.87102C86.1002 8.87017 86.7864 9.04677 87.3561 9.40083C87.9258 9.74556 88.3603 10.2071 88.6595 10.7854C88.9682 11.3545 89.1228 11.9703 89.1235 12.633C89.1236 12.745 89.1191 12.8616 89.1099 12.983C89.1007 13.095 89.0914 13.1883 89.0822 13.263L83.4122 13.269C83.4499 13.6423 83.5576 13.9689 83.7352 14.2487C83.9222 14.5285 84.1558 14.7429 84.4359 14.8919C84.7254 15.0316 85.0335 15.1013 85.3601 15.101C85.7335 15.1006 86.0834 15.0115 86.4099 14.8338C86.7457 14.6468 86.9741 14.4039 87.0951 14.1051L88.7056 14.5514C88.5286 14.9249 88.2723 15.2565 87.9366 15.5462C87.6103 15.8359 87.2232 16.065 86.7753 16.2335C86.3275 16.3926 85.8329 16.4725 85.2916 16.473ZM83.3689 12.0791L87.2049 12.075C87.1672 11.7017 87.0595 11.3798 86.8819 11.1093C86.7136 10.8295 86.4894 10.6151 86.2092 10.4661C85.929 10.3077 85.6163 10.2287 85.271 10.2291C84.935 10.2294 84.627 10.3091 84.3472 10.468C84.0767 10.6177 83.8529 10.8326 83.6759 11.1128C83.5082 11.3836 83.4059 11.7057 83.3689 12.0791ZM90.2703 16.3277L90.2625 8.99174L92.1385 8.98974L92.1414 11.7617L92.7714 11.7611L94.7565 8.98695L96.8005 8.98478L94.2003 12.5295L97.0883 16.3205L94.9463 16.3228L92.7452 13.4131L92.1432 13.4137L92.1463 16.3257L90.2703 16.3277ZM101.288 16.456C100.691 16.4566 100.154 16.3592 99.6777 16.1637C99.2015 15.9589 98.7952 15.6793 98.4588 15.325C98.1224 14.9614 97.8606 14.551 97.6735 14.0939C97.4957 13.6367 97.4065 13.1561 97.406 12.6521C97.4052 11.9615 97.5586 11.3313 97.8659 10.7616C98.1827 10.1826 98.6302 9.72016 99.2085 9.37421C99.7868 9.02827 100.473 8.85487 101.266 8.85402C102.059 8.85318 102.741 9.02512 103.31 9.36985C103.88 9.71457 104.305 10.1668 104.586 10.7265L102.753 11.2884C102.594 11.0179 102.383 10.8128 102.122 10.6731C101.86 10.5241 101.571 10.4497 101.254 10.45C100.899 10.4504 100.572 10.5441 100.274 10.7311C99.9848 10.9087 99.7564 11.1656 99.5887 11.5018C99.4211 11.8287 99.3375 12.2114 99.338 12.6501C99.3384 13.0794 99.4228 13.462 99.5912 13.7978C99.7689 14.1243 100.002 14.3854 100.292 14.5811C100.582 14.7674 100.904 14.8604 101.258 14.86C101.482 14.8598 101.692 14.8222 101.888 14.7474C102.093 14.6725 102.275 14.5696 102.434 14.4388C102.592 14.3079 102.709 14.1585 102.783 13.9904L104.618 14.5485C104.45 14.9126 104.203 15.2396 103.877 15.5292C103.56 15.8189 103.182 16.048 102.744 16.2165C102.315 16.3756 101.829 16.4554 101.288 16.456ZM108.631 14.1382C108.631 13.6622 108.761 13.2467 109.022 12.8918C109.292 12.5275 109.665 12.2471 110.141 12.0506C110.617 11.8541 111.163 11.7555 111.779 11.7548C112.087 11.7545 112.399 11.7775 112.717 11.8238C113.034 11.8702 113.31 11.9445 113.543 12.047L113.543 11.655C113.542 11.1883 113.402 10.8291 113.121 10.5774C112.85 10.3257 112.444 10.2001 111.903 10.2007C111.502 10.2011 111.119 10.2715 110.755 10.4119C110.391 10.5523 110.009 10.7581 109.608 11.0291L109.005 9.79779C109.49 9.47994 109.984 9.24141 110.488 9.08221C111.001 8.92299 111.538 8.84309 112.098 8.84249C113.143 8.84138 113.955 9.10185 114.534 9.6239C115.123 10.1459 115.418 10.8923 115.419 11.863L115.421 14.201C115.421 14.397 115.454 14.5369 115.52 14.6209C115.594 14.7048 115.711 14.756 115.87 14.7745L115.871 16.3005C115.704 16.3287 115.55 16.3522 115.41 16.371C115.279 16.3898 115.167 16.3992 115.074 16.3993C114.7 16.3997 114.415 16.316 114.219 16.1482C114.032 15.9804 113.916 15.7752 113.869 15.5326L113.826 15.1547C113.509 15.5657 113.113 15.8834 112.637 16.1079C112.162 16.3324 111.676 16.4449 111.182 16.4455C110.696 16.446 110.258 16.3485 109.865 16.1529C109.482 15.9479 109.179 15.6729 108.954 15.3278C108.739 14.9734 108.632 14.5769 108.631 14.1382ZM113.196 14.5113C113.298 14.3992 113.382 14.2871 113.447 14.1751C113.512 14.063 113.545 13.9603 113.545 13.867L113.544 13.125C113.32 13.0319 113.077 12.9621 112.816 12.9157C112.554 12.86 112.307 12.8323 112.074 12.8325C111.588 12.833 111.187 12.9408 110.87 13.1558C110.562 13.3615 110.409 13.637 110.409 13.9823C110.409 14.169 110.461 14.3462 110.564 14.5141C110.666 14.682 110.816 14.8172 111.012 14.9197C111.208 15.0221 111.442 15.0732 111.712 15.0729C111.992 15.0726 112.267 15.021 112.538 14.918C112.809 14.8057 113.028 14.6702 113.196 14.5113ZM117.177 16.2991L117.169 8.96309L123.749 8.95609L123.757 16.2921L121.881 16.2941L121.874 10.5961L119.046 10.5991L119.053 16.2971L117.177 16.2991ZM124.955 14.1208C124.955 13.6448 125.085 13.2293 125.346 12.8744C125.616 12.5101 125.989 12.2297 126.465 12.0332C126.941 11.8367 127.487 11.7381 128.103 11.7375C128.411 11.7371 128.724 11.7601 129.041 11.8065C129.358 11.8528 129.634 11.9272 129.867 12.0296L129.867 11.6376C129.866 11.1709 129.726 10.8117 129.446 10.56C129.175 10.3083 128.769 10.1827 128.227 10.1833C127.826 10.1837 127.443 10.2542 127.079 10.3945C126.716 10.5349 126.333 10.7407 125.932 11.0118L125.329 9.78041C125.814 9.46256 126.308 9.22403 126.812 9.06483C127.325 8.90561 127.862 8.82571 128.422 8.82511C129.467 8.824 130.279 9.08447 130.859 9.60652C131.447 10.1286 131.742 10.8749 131.743 11.8456L131.745 14.1836C131.746 14.3796 131.778 14.5195 131.844 14.6035C131.919 14.6874 132.035 14.7386 132.194 14.7571L132.196 16.2831C132.028 16.3113 131.874 16.3348 131.734 16.3536C131.603 16.3724 131.491 16.3819 131.398 16.3819C131.024 16.3823 130.74 16.2987 130.544 16.1309C130.357 15.9631 130.24 15.7578 130.193 15.5152L130.15 15.1373C129.834 15.5483 129.437 15.866 128.961 16.0905C128.486 16.3151 128.001 16.4276 127.506 16.4281C127.021 16.4286 126.582 16.3311 126.19 16.1355C125.807 15.9306 125.503 15.6556 125.279 15.3105C125.064 14.956 124.956 14.5595 124.955 14.1208ZM129.52 14.4939C129.622 14.3818 129.706 14.2697 129.771 14.1577C129.837 14.0456 129.869 13.9429 129.869 13.8496L129.868 13.1076C129.644 13.0145 129.401 12.9447 129.14 12.8984C128.879 12.8426 128.631 12.8149 128.398 12.8151C127.913 12.8157 127.511 12.9234 127.194 13.1384C126.887 13.3441 126.733 13.6196 126.733 13.9649C126.733 14.1516 126.785 14.3289 126.888 14.4968C126.991 14.6646 127.14 14.7998 127.336 14.9023C127.532 15.0047 127.766 15.0558 128.036 15.0555C128.316 15.0552 128.592 15.0036 128.862 14.9006C129.133 14.7884 129.352 14.6528 129.52 14.4939ZM137.897 16.417C137.328 16.4176 136.823 16.2922 136.384 16.0406C135.955 15.7798 135.619 15.4301 135.375 14.9917L135.38 19.2617L133.504 19.2637L133.493 8.94571L135.131 8.94397L135.132 10.204C135.412 9.77434 135.766 9.43796 136.195 9.19484C136.624 8.94238 137.114 8.81586 137.665 8.81527C138.159 8.81475 138.612 8.91226 139.023 9.10783C139.443 9.30338 139.808 9.57833 140.116 9.93266C140.424 10.2777 140.663 10.6787 140.831 11.1359C141.009 11.5837 141.098 12.069 141.099 12.5916C141.1 13.301 140.96 13.9451 140.681 14.5241C140.411 15.103 140.033 15.5654 139.548 15.9113C139.073 16.2478 138.522 16.4164 137.897 16.417ZM137.265 14.8217C137.555 14.8214 137.816 14.7604 138.049 14.6389C138.282 14.5173 138.483 14.3537 138.65 14.1482C138.828 13.9334 138.958 13.6952 139.042 13.4338C139.135 13.163 139.181 12.883 139.181 12.5937C139.18 12.2857 139.129 12.0011 139.026 11.7398C138.932 11.4786 138.792 11.2501 138.605 11.0543C138.418 10.8491 138.199 10.6907 137.947 10.579C137.704 10.4672 137.438 10.4115 137.149 10.4118C136.971 10.412 136.789 10.4449 136.603 10.5104C136.425 10.5666 136.253 10.6508 136.085 10.763C135.917 10.8751 135.768 11.006 135.637 11.1554C135.516 11.3049 135.428 11.4683 135.372 11.6457L135.374 13.3677C135.486 13.6383 135.636 13.8854 135.822 14.1092C136.019 14.333 136.243 14.5101 136.495 14.6405C136.747 14.7616 137.004 14.822 137.265 14.8217ZM144.068 16.2705L144.062 10.5725L141.738 10.5749L141.736 8.93694L148.274 8.92998L148.276 10.568L145.938 10.5705L145.944 16.2685L144.068 16.2705ZM148.799 14.0954C148.799 13.6194 148.929 13.204 149.19 12.849C149.46 12.4847 149.833 12.2043 150.309 12.0078C150.785 11.8113 151.331 11.7127 151.947 11.7121C152.255 11.7117 152.567 11.7347 152.885 11.7811C153.202 11.8274 153.477 11.9018 153.711 12.0042L153.71 11.6122C153.71 11.1455 153.57 10.7863 153.289 10.5346C153.018 10.2829 152.612 10.1574 152.071 10.1579C151.67 10.1584 151.287 10.2288 150.923 10.3692C150.559 10.5095 150.177 10.7153 149.776 10.9864L149.172 9.75502C149.657 9.43717 150.152 9.19865 150.656 9.03944C151.169 8.88023 151.705 8.80033 152.265 8.79973C153.311 8.79862 154.123 9.05909 154.702 9.58114C155.291 10.1032 155.586 10.8495 155.587 11.8202L155.589 14.1582C155.589 14.3542 155.622 14.4942 155.688 14.5781C155.762 14.662 155.879 14.7132 156.038 14.7317L156.039 16.2577C155.871 16.2859 155.717 16.3094 155.577 16.3282C155.447 16.347 155.335 16.3565 155.242 16.3566C154.868 16.357 154.583 16.2733 154.387 16.1055C154.2 15.9377 154.084 15.7325 154.037 15.4898L153.994 15.1119C153.677 15.5229 153.281 15.8407 152.805 16.0652C152.329 16.2897 151.844 16.4022 151.35 16.4027C150.864 16.4032 150.425 16.3057 150.033 16.1101C149.65 15.9052 149.347 15.6302 149.122 15.2851C148.907 14.9306 148.8 14.5341 148.799 14.0954ZM153.364 14.4686C153.466 14.3565 153.55 14.2444 153.615 14.1323C153.68 14.0202 153.713 13.9175 153.713 13.8242L153.712 13.0822C153.488 12.9891 153.245 12.9194 152.984 12.873C152.722 12.8172 152.475 12.7895 152.242 12.7898C151.756 12.7903 151.355 12.898 151.038 13.113C150.73 13.3187 150.577 13.5942 150.577 13.9395C150.577 14.1262 150.629 14.3035 150.732 14.4714C150.834 14.6393 150.984 14.7744 151.18 14.8769C151.376 14.9793 151.609 15.0304 151.88 15.0301C152.16 15.0298 152.435 14.9782 152.706 14.8753C152.976 14.763 153.196 14.6274 153.364 14.4686ZM157.344 16.2563L157.337 8.92033L159.297 8.91824L161.597 13.1578L163.903 8.91334L165.835 8.91128L165.842 16.2473L164.064 16.2492L164.059 11.5032L162.187 14.9492L161.011 14.9504L159.117 11.5084L159.122 16.2544L157.344 16.2563ZM170.973 16.3818C170.385 16.3824 169.853 16.285 169.377 16.0895C168.901 15.8847 168.494 15.6098 168.158 15.2648C167.822 14.9105 167.56 14.5095 167.373 14.0616C167.195 13.6045 167.106 13.1239 167.105 12.6199C167.104 11.9199 167.258 11.2804 167.565 10.7014C167.882 10.1224 168.329 9.65996 168.908 9.31401C169.495 8.95872 170.186 8.78065 170.979 8.77981C171.782 8.77895 172.468 8.95556 173.038 9.30962C173.607 9.65434 174.042 10.1159 174.341 10.6942C174.65 11.2632 174.804 11.8791 174.805 12.5417C174.805 12.6537 174.801 12.7704 174.791 12.8918C174.782 13.0038 174.773 13.0971 174.764 13.1718L169.094 13.1778C169.132 13.5511 169.239 13.8777 169.417 14.1575C169.604 14.4373 169.837 14.6517 170.118 14.8007C170.407 14.9404 170.715 15.0101 171.042 15.0097C171.415 15.0093 171.765 14.9203 172.091 14.7426C172.427 14.5556 172.656 14.3127 172.777 14.0139L174.387 14.4602C174.21 14.8337 173.954 15.1653 173.618 15.455C173.292 15.7447 172.905 15.9738 172.457 16.1422C172.009 16.3014 171.515 16.3812 170.973 16.3818ZM169.051 11.9879L172.887 11.9838C172.849 11.6105 172.741 11.2886 172.563 11.0181C172.395 10.7383 172.171 10.5239 171.891 10.3748C171.611 10.2165 171.298 10.1375 170.953 10.1378C170.617 10.1382 170.309 10.2179 170.029 10.3768C169.758 10.5264 169.535 10.7413 169.357 11.0215C169.19 11.2924 169.087 11.6145 169.051 11.9879ZM175.952 16.2365L175.944 8.90052L177.82 8.89852L177.823 11.6985L180.791 11.6954L180.788 8.89536L182.664 8.89337L182.672 16.2294L180.796 16.2314L180.793 13.2634L177.825 13.2665L177.828 16.2345L175.952 16.2365ZM186.081 16.2257L186.075 10.5277L183.751 10.5302L183.75 8.89221L190.288 8.88525L190.289 10.5233L187.951 10.5257L187.957 16.2237L186.081 16.2257ZM194.735 16.3565C194.137 16.3572 193.6 16.2597 193.124 16.0642C192.648 15.8594 192.242 15.5798 191.905 15.2255C191.578 14.8712 191.326 14.4655 191.148 14.0083C190.97 13.5512 190.881 13.0706 190.881 12.5666C190.88 12.0533 190.968 11.5679 191.145 11.1103C191.322 10.6528 191.573 10.2465 191.9 9.89154C192.235 9.53651 192.641 9.26075 193.117 9.06424C193.593 8.8584 194.129 8.75516 194.726 8.75453C195.324 8.75389 195.856 8.85599 196.323 9.06083C196.799 9.25632 197.205 9.53122 197.542 9.88553C197.878 10.2398 198.13 10.6456 198.299 11.1027C198.477 11.5599 198.566 12.0451 198.567 12.5584C198.567 13.0624 198.479 13.5432 198.302 14.0007C198.135 14.4582 197.883 14.8645 197.547 15.2195C197.221 15.5745 196.82 15.855 196.344 16.0608C195.868 16.2573 195.332 16.3559 194.735 16.3565ZM192.813 12.5646C192.813 12.9939 192.897 13.3765 193.066 13.7123C193.234 14.0388 193.463 14.2952 193.753 14.4816C194.042 14.6679 194.369 14.7609 194.733 14.7605C195.088 14.7601 195.409 14.6665 195.699 14.4795C195.988 14.2832 196.216 14.0216 196.384 13.6948C196.561 13.3586 196.649 12.9758 196.649 12.5465C196.648 12.1265 196.559 11.7486 196.381 11.4128C196.213 11.0769 195.984 10.8159 195.694 10.6295C195.405 10.4431 195.083 10.3501 194.728 10.3505C194.364 10.3509 194.038 10.4493 193.748 10.6456C193.459 10.8325 193.231 11.0941 193.063 11.4303C192.896 11.7571 192.812 12.1352 192.813 12.5646ZM199.837 16.2111L199.829 8.87509L203.917 8.87074C204.421 8.8702 204.827 8.95377 205.135 9.12144C205.453 9.28911 205.686 9.50819 205.836 9.7787C205.985 10.0492 206.06 10.3385 206.061 10.6465C206.061 11.0571 205.968 11.4166 205.782 11.7248C205.605 12.0329 205.325 12.2712 204.943 12.4397C205.372 12.5605 205.722 12.7702 205.993 13.0685C206.264 13.3576 206.4 13.7401 206.401 14.2161C206.401 14.6734 206.294 15.0515 206.08 15.3504C205.865 15.64 205.558 15.855 205.156 15.9954C204.755 16.1359 204.279 16.2064 203.729 16.2069L199.837 16.2111ZM201.613 14.9352L203.671 14.933C203.839 14.9328 203.993 14.8907 204.133 14.8065C204.273 14.7224 204.38 14.6103 204.455 14.4702C204.539 14.3301 204.58 14.176 204.58 14.008C204.58 13.8307 204.543 13.6767 204.468 13.5462C204.393 13.4062 204.286 13.299 204.145 13.2245C204.015 13.1406 203.861 13.0988 203.683 13.099L201.611 13.1012L201.613 14.9352ZM201.61 11.9252L203.444 11.9232C203.612 11.9231 203.761 11.8809 203.892 11.7968C204.023 11.7126 204.12 11.6005 204.186 11.4605C204.26 11.3204 204.297 11.1663 204.297 10.9983C204.297 10.7557 204.217 10.5551 204.058 10.3966C203.909 10.2288 203.708 10.145 203.456 10.1452L201.608 10.1472L201.61 11.9252ZM210.761 12.1675L214.454 9.51752L214.456 11.0435L212.26 12.5719L214.459 14.0115L214.461 15.5515L210.762 13.0775L210.761 12.1675ZM214.849 12.1631L218.528 9.51319L218.53 11.0392L216.334 12.5675L218.533 14.0072L218.535 15.5472L214.85 13.0731L214.849 12.1631ZM226.318 8.84689C226.252 8.78163 226.131 8.69309 225.953 8.58128C225.785 8.46946 225.575 8.36235 225.323 8.25995C225.08 8.15754 224.814 8.06916 224.525 7.9948C224.235 7.91111 223.941 7.86942 223.643 7.86974C223.12 7.8703 222.723 7.96872 222.453 8.16501C222.192 8.36129 222.061 8.63676 222.062 8.99142C222.062 9.26209 222.146 9.47667 222.314 9.63516C222.483 9.79364 222.735 9.92871 223.071 10.0404C223.407 10.152 223.827 10.2729 224.331 10.403C224.985 10.561 225.55 10.7564 226.026 10.9892C226.511 11.2127 226.88 11.511 227.133 11.884C227.395 12.2477 227.526 12.7329 227.526 13.3396C227.527 13.8716 227.429 14.329 227.234 14.7119C227.038 15.0855 226.768 15.3891 226.423 15.6228C226.078 15.8565 225.686 16.0296 225.247 16.142C224.809 16.2452 224.342 16.297 223.848 16.2975C223.353 16.2981 222.858 16.2472 222.363 16.1451C221.869 16.043 221.392 15.8988 220.935 15.7126C220.477 15.5171 220.057 15.2842 219.674 15.014L220.526 13.3471C220.61 13.431 220.76 13.5428 220.975 13.6826C221.19 13.813 221.451 13.9481 221.759 14.0877C222.067 14.2181 222.403 14.3297 222.768 14.4227C223.132 14.5156 223.5 14.5619 223.874 14.5615C224.396 14.5609 224.793 14.4719 225.063 14.2942C225.334 14.1166 225.469 13.8645 225.469 13.5378C225.468 13.2391 225.361 13.0059 225.146 12.8381C224.931 12.6704 224.632 12.526 224.249 12.4051C223.867 12.2748 223.414 12.1353 222.891 11.9865C222.265 11.8099 221.743 11.6144 221.322 11.4002C220.902 11.1767 220.589 10.897 220.383 10.5612C220.178 10.2254 220.075 9.80554 220.074 9.30154C220.073 8.62021 220.231 8.05071 220.548 7.59304C220.874 7.12602 221.313 6.77555 221.863 6.54163C222.414 6.29838 223.025 6.1764 223.697 6.17568C224.163 6.17519 224.602 6.22605 225.013 6.32828C225.433 6.4305 225.825 6.56542 226.189 6.73303C226.554 6.90064 226.88 7.08229 227.17 7.27799L226.318 8.84689ZM228.782 5.96027L230.658 5.95827L230.667 13.8263C230.667 14.1623 230.723 14.3909 230.836 14.5121C230.948 14.624 231.102 14.6798 231.298 14.6796C231.447 14.6794 231.601 14.6606 231.76 14.6231C231.918 14.5856 232.058 14.5388 232.18 14.4827L232.433 15.9104C232.181 16.032 231.887 16.1256 231.551 16.1913C231.215 16.257 230.912 16.29 230.641 16.2903C230.053 16.2909 229.596 16.1374 229.269 15.8298C228.951 15.5128 228.792 15.0649 228.792 14.4863L228.782 5.96027ZM232.744 14.0061C232.744 13.5301 232.874 13.1146 233.135 12.7596C233.405 12.3954 233.778 12.115 234.254 11.9184C234.73 11.7219 235.276 11.6234 235.892 11.6227C236.2 11.6224 236.513 11.6454 236.83 11.6917C237.147 11.738 237.423 11.8124 237.656 11.9148L237.656 11.5228C237.655 11.0562 237.515 10.697 237.235 10.4453C236.964 10.1936 236.558 10.068 236.016 10.0686C235.615 10.069 235.232 10.1394 234.868 10.2798C234.505 10.4202 234.122 10.6259 233.721 10.897L233.118 9.66565C233.603 9.3478 234.097 9.10928 234.601 8.95008C235.114 8.79086 235.651 8.71096 236.211 8.71036C237.256 8.70925 238.068 8.96972 238.648 9.49177C239.236 10.0138 239.531 10.7602 239.532 11.7308L239.534 14.0688C239.535 14.2648 239.567 14.4048 239.633 14.4887C239.708 14.5726 239.824 14.6239 239.983 14.6423L239.985 16.1683C239.817 16.1965 239.663 16.22 239.523 16.2388C239.392 16.2576 239.28 16.2671 239.187 16.2672C238.813 16.2676 238.529 16.1839 238.333 16.0161C238.146 15.8483 238.029 15.6431 237.982 15.4005L237.939 15.0225C237.623 15.4335 237.226 15.7513 236.75 15.9758C236.275 16.2003 235.79 16.3128 235.295 16.3133C234.81 16.3139 234.371 16.2163 233.979 16.0207C233.596 15.8158 233.292 15.5408 233.068 15.1957C232.853 14.8413 232.745 14.4447 232.744 14.0061ZM237.309 14.3792C237.411 14.2671 237.495 14.155 237.56 14.0429C237.626 13.9309 237.658 13.8282 237.658 13.7348L237.657 12.9928C237.433 12.8997 237.19 12.83 236.929 12.7836C236.668 12.7279 236.42 12.7001 236.187 12.7004C235.702 12.7009 235.3 12.8087 234.983 13.0237C234.676 13.2293 234.522 13.5048 234.522 13.8502C234.522 14.0368 234.574 14.2141 234.677 14.382C234.78 14.5499 234.929 14.6851 235.125 14.7875C235.321 14.89 235.555 14.9411 235.825 14.9408C236.105 14.9405 236.381 14.8889 236.651 14.7859C236.922 14.6736 237.141 14.538 237.309 14.3792ZM243.004 16.1651L240.294 8.83201L242.24 8.82994L244.094 14.456L245.95 8.82599L247.728 8.8241L245.048 16.163L243.004 16.1651ZM248.03 13.9898C248.029 13.5138 248.159 13.0983 248.42 12.7434C248.69 12.3791 249.064 12.0987 249.539 11.9022C250.015 11.7057 250.561 11.6071 251.177 11.6064C251.485 11.6061 251.798 11.6291 252.115 11.6754C252.432 11.7218 252.708 11.7961 252.941 11.8986L252.941 11.5066C252.94 11.0399 252.8 10.6807 252.52 10.429C252.249 10.1773 251.843 10.0517 251.301 10.0523C250.9 10.0527 250.517 10.1231 250.154 10.2635C249.79 10.4039 249.407 10.6096 249.006 10.8807L248.403 9.64938C248.888 9.33153 249.382 9.09301 249.886 8.9338C250.399 8.77459 250.936 8.69468 251.496 8.69409C252.541 8.69298 253.354 8.95344 253.933 9.47549C254.521 9.99754 254.816 10.7439 254.817 11.7146L254.82 14.0526C254.82 14.2486 254.853 14.3885 254.918 14.4724C254.993 14.5564 255.11 14.6076 255.268 14.6261L255.27 16.1521C255.102 16.1803 254.948 16.2038 254.808 16.2226C254.677 16.2414 254.565 16.2508 254.472 16.2509C254.099 16.2513 253.814 16.1676 253.618 15.9998C253.431 15.832 253.314 15.6268 253.267 15.3842L253.225 15.0063C252.908 15.4173 252.511 15.735 252.036 15.9595C251.56 16.184 251.075 16.2965 250.58 16.2971C250.095 16.2976 249.656 16.2001 249.264 16.0045C248.881 15.7995 248.577 15.5245 248.353 15.1794C248.138 14.825 248.03 14.4284 248.03 13.9898ZM252.594 14.3629C252.696 14.2508 252.78 14.1387 252.846 14.0267C252.911 13.9146 252.943 13.8119 252.943 13.7186L252.942 12.9766C252.718 12.8835 252.476 12.8137 252.214 12.7673C251.953 12.7116 251.705 12.6839 251.472 12.6841C250.987 12.6846 250.586 12.7924 250.268 13.0074C249.961 13.2131 249.807 13.4886 249.807 13.8339C249.808 14.0206 249.859 14.1978 249.962 14.3657C250.065 14.5336 250.214 14.6688 250.41 14.7712C250.606 14.8737 250.84 14.9248 251.111 14.9245C251.391 14.9242 251.666 14.8726 251.936 14.7696C252.207 14.6573 252.426 14.5218 252.594 14.3629ZM264.3 13.0205L260.606 15.5024L260.605 13.9624L262.815 12.518L260.601 10.9944L260.6 9.4684L264.299 12.1105L264.3 13.0205ZM260.226 13.0248L256.532 15.5067L256.531 13.9667L258.741 12.5224L256.527 10.9987L256.526 9.47273L260.225 12.1148L260.226 13.0248Z" fill="#1D2E43"/>
<path d="M0.929942 39.4229L0.922384 32.3229L3.86238 32.3197C4.16905 32.3194 4.44912 32.3825 4.70258 32.5089C4.96272 32.6352 5.18624 32.8083 5.37314 33.0281C5.56003 33.2413 5.70695 33.4811 5.8139 33.7477C5.92085 34.0076 5.97446 34.2742 5.97476 34.5475C5.97517 34.9342 5.88889 35.3009 5.71593 35.6478C5.54962 35.988 5.31325 36.2649 5.00681 36.4785C4.70037 36.6922 4.34048 36.7992 3.92715 36.7997L1.62715 36.8021L1.62994 39.4221L0.929942 39.4229ZM1.62649 36.1821L3.89649 36.1797C4.17649 36.1794 4.41974 36.1025 4.62625 35.9489C4.83275 35.7954 4.99254 35.5952 5.10561 35.3484C5.21868 35.1016 5.27506 34.8349 5.27476 34.5482C5.27444 34.2549 5.20749 33.985 5.07389 33.7385C4.9403 33.4919 4.76343 33.2988 4.54328 33.159C4.32979 33.0126 4.09304 32.9395 3.83304 32.9398L1.62304 32.9421L1.62649 36.1821ZM9.23075 39.514C8.85741 39.5144 8.51067 39.4448 8.19052 39.3051C7.87703 39.1588 7.60349 38.9624 7.3699 38.716C7.14296 38.4629 6.96599 38.1764 6.83898 37.8566C6.71197 37.5301 6.64827 37.1868 6.64788 36.8268C6.64749 36.4535 6.71045 36.1067 6.83678 35.7866C6.9631 35.4598 7.14279 35.1729 7.37586 34.926C7.60893 34.6724 7.88205 34.4755 8.19523 34.3351C8.51508 34.1881 8.86167 34.1144 9.235 34.114C9.60833 34.1136 9.95174 34.1866 10.2652 34.3329C10.5787 34.4726 10.8523 34.669 11.0859 34.9221C11.3195 35.1685 11.4998 35.455 11.6268 35.7815C11.7538 36.1013 11.8175 36.4479 11.8179 36.8213C11.8183 37.1813 11.7553 37.5247 11.629 37.8515C11.5027 38.1716 11.323 38.4585 11.0899 38.7121C10.8635 38.959 10.5904 39.1559 10.2705 39.3029C9.95734 39.4433 9.61075 39.5136 9.23075 39.514ZM7.3379 36.8361C7.33831 37.2227 7.42202 37.576 7.58902 37.8958C7.76269 38.2089 7.99296 38.4587 8.27982 38.645C8.56668 38.8247 8.88344 38.9144 9.23011 38.914C9.57677 38.9137 9.89334 38.82 10.1798 38.633C10.4663 38.4461 10.696 38.1925 10.869 37.8723C11.042 37.5454 11.1283 37.192 11.1279 36.812C11.1275 36.4253 11.0404 36.0721 10.8667 35.7523C10.6931 35.4325 10.4628 35.1794 10.1759 34.993C9.88907 34.8067 9.5723 34.7137 9.22564 34.714C8.87897 34.7144 8.56241 34.8114 8.27595 35.0051C7.99615 35.1987 7.76976 35.4556 7.59677 35.7758C7.42377 36.0893 7.33748 36.4427 7.3379 36.8361ZM15.218 39.5077C14.838 39.5081 14.4879 39.4384 14.1678 39.2988C13.8543 39.1524 13.5774 38.9527 13.3371 38.6997C13.1035 38.4466 12.9199 38.1568 12.7862 37.8303C12.6592 37.5037 12.5955 37.1571 12.5951 36.7905C12.5946 36.2971 12.7041 35.847 12.9237 35.4401C13.1432 35.0332 13.4496 34.7095 13.8426 34.4691C14.2357 34.2287 14.6889 34.1082 15.2023 34.1077C15.6889 34.1072 16.119 34.22 16.4926 34.4463C16.8662 34.6659 17.1432 34.9656 17.3236 35.3454L16.6638 35.5561C16.5169 35.2896 16.31 35.0832 16.0431 34.9368C15.783 34.7837 15.4929 34.7074 15.1729 34.7077C14.8262 34.7081 14.5097 34.7984 14.2232 34.9787C13.9367 35.159 13.707 35.4059 13.534 35.7195C13.3676 36.033 13.2847 36.3897 13.2851 36.7897C13.2855 37.1831 13.3726 37.5396 13.5463 37.8594C13.7199 38.1793 13.9502 38.4357 14.2371 38.6287C14.5239 38.8151 14.8407 38.9081 15.1874 38.9077C15.414 38.9075 15.6307 38.8672 15.8372 38.787C16.0505 38.7068 16.2337 38.5999 16.3869 38.4664C16.5468 38.3262 16.6533 38.1761 16.7064 38.0161L17.3766 38.2154C17.2836 38.4621 17.1271 38.6856 16.9073 38.8859C16.6942 39.0794 16.4411 39.233 16.1478 39.3467C15.8613 39.4536 15.5513 39.5073 15.218 39.5077ZM20.6575 39.5019C20.2775 39.5023 19.9274 39.4326 19.6072 39.293C19.2937 39.1467 19.0169 38.947 18.7766 38.6939C18.543 38.4408 18.3594 38.151 18.2257 37.8245C18.0987 37.4979 18.035 37.1513 18.0346 36.7847C18.034 36.2913 18.1436 35.8412 18.3631 35.4343C18.5827 35.0274 18.889 34.7038 19.2821 34.4633C19.6752 34.2229 20.1284 34.1024 20.6417 34.1019C21.1284 34.1014 21.5585 34.2142 21.9321 34.4405C22.3056 34.6601 22.5826 34.9598 22.763 35.3396L22.1033 35.5503C21.9563 35.2838 21.7494 35.0774 21.4826 34.931C21.2224 34.7779 20.9323 34.7016 20.6123 34.7019C20.2657 34.7023 19.9491 34.7926 19.6626 34.9729C19.3762 35.1532 19.1464 35.4001 18.9734 35.7137C18.8071 36.0272 18.7241 36.3839 18.7246 36.7839C18.725 37.1773 18.812 37.5338 18.9857 37.8537C19.1594 38.1735 19.3897 38.4299 19.6765 38.6229C19.9634 38.8093 20.2802 38.9023 20.6268 38.9019C20.8535 38.9017 21.0701 38.8614 21.2767 38.7812C21.4899 38.701 21.6732 38.5941 21.8264 38.4606C21.9862 38.3205 22.0927 38.1703 22.1459 38.0103L22.8161 38.2096C22.723 38.4563 22.5666 38.6798 22.3468 38.8801C22.1337 39.0736 21.8805 39.2272 21.5873 39.3409C21.3007 39.4479 20.9908 39.5015 20.6575 39.5019ZM23.8756 39.3984L23.8701 34.1984L24.5501 34.1977L24.5547 38.4777L27.7201 34.1844L28.3301 34.1837L28.3356 39.3937L27.6556 39.3944L27.6511 35.1844L24.5356 39.3977L23.8756 39.3984ZM29.4331 39.3925L30.9809 37.2609C30.6275 37.2079 30.3406 37.0549 30.1204 36.8018C29.9068 36.542 29.7997 36.1888 29.7992 35.7421C29.7989 35.4421 29.8686 35.1754 30.0084 34.9419C30.1481 34.7084 30.3446 34.5216 30.5978 34.3813C30.8576 34.241 31.1609 34.1707 31.5076 34.1703L33.4976 34.1682L33.5031 39.3882L32.8231 39.3889L32.821 37.3689L31.661 37.3702L30.1931 39.3917L29.4331 39.3925ZM31.5004 36.8503L32.8204 36.8489L32.8181 34.7089L31.6181 34.7102C31.2715 34.7106 30.9949 34.8109 30.7885 35.0111C30.582 35.2046 30.4789 35.4514 30.4793 35.7514C30.4796 36.0581 30.5632 36.318 30.7301 36.5311C30.9036 36.7443 31.1604 36.8507 31.5004 36.8503ZM35.1098 40.1965L35.2789 39.3563L35.0489 39.3566L35.0479 38.4066L35.7079 38.4058L35.7089 39.3558L35.4598 40.1961L35.1098 40.1965ZM46.2238 39.3747L46.2177 33.5947L43.6525 38.0874L43.2125 38.0879L40.6277 33.6006L40.6338 39.3806L39.9338 39.3814L39.9263 32.2814L40.6463 32.2806L43.4214 37.1376L46.2063 32.2747L46.9163 32.2739L46.9238 39.3739L46.2238 39.3747ZM50.7053 39.4699C50.332 39.4703 49.9853 39.4007 49.6651 39.261C49.3516 39.1147 49.0781 38.9183 48.8445 38.6719C48.6175 38.4188 48.4406 38.1323 48.3136 37.8124C48.1866 37.4859 48.1229 37.1426 48.1225 36.7826C48.1221 36.4093 48.185 36.0626 48.3114 35.7424C48.4377 35.4156 48.6174 35.1288 48.8504 34.8819C49.0835 34.6283 49.3566 34.4313 49.6698 34.291C49.9897 34.144 50.3362 34.0703 50.7096 34.0699C51.0829 34.0695 51.4263 34.1424 51.7398 34.2888C52.0533 34.4284 52.3268 34.6248 52.5604 34.8779C52.794 35.1243 52.9743 35.4108 53.1014 35.7373C53.2284 36.0572 53.2921 36.4038 53.2925 36.7771C53.2929 37.1371 53.2299 37.4805 53.1036 37.8073C52.9772 38.1275 52.7975 38.4143 52.5645 38.6679C52.3381 38.9148 52.065 39.1118 51.7451 39.2588C51.4319 39.3991 51.0853 39.4695 50.7053 39.4699ZM48.8125 36.7919C48.8129 37.1786 48.8966 37.5318 49.0636 37.8516C49.2373 38.1648 49.4675 38.4145 49.7544 38.6009C50.0413 38.7806 50.358 38.8703 50.7047 38.8699C51.0514 38.8695 51.3679 38.7758 51.6544 38.5889C51.9409 38.4019 52.1706 38.1483 52.3436 37.8281C52.5166 37.5013 52.6029 37.1479 52.6025 36.7679C52.602 36.3812 52.515 36.028 52.3413 35.7081C52.1677 35.3883 51.9374 35.1352 51.6505 34.9489C51.3637 34.7625 51.0469 34.6695 50.7002 34.6699C50.3536 34.6703 50.037 34.7673 49.7505 34.9609C49.4707 35.1545 49.2443 35.4114 49.0714 35.7316C48.8984 36.0451 48.8121 36.3986 48.8125 36.7919ZM56.6926 39.4635C56.3126 39.4639 55.9625 39.3943 55.6424 39.2546C55.3289 39.1083 55.052 38.9086 54.8117 38.6555C54.5781 38.4024 54.3945 38.1126 54.2608 37.7861C54.1338 37.4596 54.0701 37.113 54.0697 36.7463C54.0692 36.253 54.1787 35.8029 54.3983 35.3959C54.6178 34.989 54.9242 34.6654 55.3172 34.425C55.7103 34.1846 56.1635 34.0641 56.6768 34.0635C57.1635 34.063 57.5936 34.1759 57.9672 34.4021C58.3408 34.6218 58.6178 34.9215 58.7982 35.3013L58.1384 35.512C57.9914 35.2455 57.7846 35.039 57.5177 34.8926C57.2576 34.7396 56.9675 34.6632 56.6475 34.6636C56.3008 34.6639 55.9842 34.7543 55.6978 34.9346C55.4113 35.1149 55.1816 35.3618 55.0086 35.6753C54.8422 35.9888 54.7593 36.3456 54.7597 36.7456C54.7601 37.1389 54.8472 37.4955 55.0208 37.8153C55.1945 38.1351 55.4248 38.3915 55.7117 38.5846C55.9985 38.7709 56.3153 38.8639 56.662 38.8635C56.8886 38.8633 57.1052 38.8231 57.3118 38.7429C57.5251 38.6626 57.7083 38.5558 57.8615 38.4223C58.0213 38.2821 58.1278 38.132 58.181 37.9719L58.8512 38.1712C58.7581 38.418 58.6017 38.6415 58.3819 38.8417C58.1688 39.0353 57.9156 39.1889 57.6224 39.3025C57.3359 39.4095 57.0259 39.4632 56.6926 39.4635ZM59.9108 39.3601L59.9052 34.1501L60.5852 34.1494L60.5876 36.3794L61.3676 36.3785L63.1152 34.1467L63.8952 34.1458L61.9079 36.678L64.1508 39.3556L63.3508 39.3564L61.3683 37.0085L60.5883 37.0094L60.5908 39.3594L59.9108 39.3601ZM65.1061 39.3546L65.1005 34.1446L67.7005 34.1418C67.9939 34.1415 68.2406 34.2045 68.4407 34.331C68.6409 34.4508 68.791 34.6073 68.8912 34.8005C68.9981 34.9937 69.0517 35.2003 69.0519 35.4203C69.0522 35.7003 68.9858 35.9538 68.8527 36.1806C68.7196 36.4007 68.5264 36.5676 68.2732 36.6812C68.5733 36.7675 68.8168 36.9239 69.0037 37.1504C69.1906 37.3769 69.2843 37.6501 69.2846 37.9701C69.2849 38.2501 69.2152 38.4935 69.0754 38.7003C68.9423 38.9071 68.7558 39.0673 68.5159 39.1809C68.2827 39.2945 68.0127 39.3515 67.7061 39.3518L65.1061 39.3546ZM65.7556 38.8639L67.6856 38.8618C67.8589 38.8616 68.0155 38.8181 68.1554 38.7313C68.302 38.6378 68.4152 38.5177 68.495 38.3709C68.5815 38.2242 68.6247 38.0708 68.6245 37.9108C68.6244 37.7375 68.5842 37.5808 68.504 37.4409C68.4239 37.2944 68.3171 37.1778 68.1837 37.0913C68.0502 37.0048 67.8969 36.9616 67.7235 36.9618L65.7535 36.9639L65.7556 38.8639ZM65.753 36.4939L67.523 36.492C67.6964 36.4918 67.8496 36.445 67.9829 36.3515C68.1161 36.258 68.2193 36.1379 68.2925 35.9912C68.3657 35.8444 68.4022 35.691 68.402 35.531C68.4018 35.291 68.3215 35.0811 68.1613 34.9013C68.0078 34.7215 67.8077 34.6317 67.561 34.6319L65.7511 34.6339L65.753 36.4939ZM70.046 37.8493C70.0457 37.5226 70.1387 37.2425 70.3251 37.009C70.5116 36.7688 70.768 36.5852 71.0946 36.4582C71.4277 36.3245 71.811 36.2574 72.2443 36.257C72.4977 36.2567 72.761 36.2764 73.0344 36.3161C73.3078 36.3558 73.5512 36.4156 73.7646 36.4953L73.7641 36.0553C73.7637 35.6153 73.6333 35.2655 73.373 35.0057C73.1127 34.746 72.7526 34.6164 72.2926 34.6169C72.0126 34.6172 71.736 34.6708 71.4628 34.7778C71.1962 34.8781 70.9164 35.0284 70.6232 35.2287L70.3627 34.749C70.7025 34.5153 71.0356 34.3416 71.3622 34.2279C71.6887 34.1075 72.022 34.0472 72.362 34.0468C73.002 34.0461 73.5089 34.2289 73.8826 34.5952C74.2563 34.9615 74.4435 35.4679 74.4442 36.1146L74.4468 38.5246C74.4469 38.6179 74.4669 38.6879 74.507 38.7345C74.547 38.7745 74.6104 38.7978 74.6971 38.8043L74.6976 39.3443C74.6243 39.3511 74.561 39.3578 74.5077 39.3645C74.4543 39.3713 74.4143 39.3713 74.3877 39.3647C74.221 39.3582 74.0943 39.305 74.0075 39.2051C73.9207 39.1052 73.8739 38.9986 73.8671 38.8852L73.8567 38.5052C73.6237 38.8055 73.3206 39.0391 72.9475 39.2062C72.5743 39.3666 72.1944 39.447 71.8077 39.4474C71.4744 39.4478 71.171 39.3781 70.8975 39.2384C70.6307 39.092 70.4205 38.8989 70.2669 38.6591C70.12 38.4125 70.0464 38.1426 70.046 37.8493ZM73.5365 38.2456C73.6097 38.1522 73.6663 38.0621 73.7062 37.9754C73.7461 37.8887 73.766 37.812 73.7659 37.7453L73.7651 36.9853C73.5384 36.8989 73.3016 36.8325 73.0549 36.7861C72.8149 36.7397 72.5715 36.7166 72.3248 36.7169C71.8382 36.7174 71.4449 36.8145 71.1451 37.0081C70.8453 37.2018 70.6956 37.4653 70.696 37.7986C70.6962 37.9919 70.7464 38.1752 70.8466 38.3484C70.9467 38.515 71.0936 38.6548 71.287 38.768C71.4805 38.8744 71.7072 38.9275 71.9672 38.9272C72.2939 38.9269 72.5971 38.8632 72.877 38.7363C73.1635 38.6093 73.3833 38.4457 73.5365 38.2456Z" fill="#959DA6"/>
<circle cx="85.0362" cy="35.3329" r="1" transform="rotate(-0.0609972 85.0362 35.3329)" fill="#959DA6"/>
<path d="M94.8042 39.3234C94.8039 39.0967 94.8237 38.87 94.8634 38.6433C94.9032 38.41 94.9796 38.1799 95.0927 37.9531C95.2058 37.7263 95.3722 37.5095 95.592 37.3026C95.8118 37.089 96.1016 36.8887 96.4614 36.7016C96.6546 36.6014 96.8545 36.5045 97.0611 36.411C97.2676 36.3108 97.4608 36.2039 97.6407 36.0904C97.8273 35.9702 97.9738 35.8367 98.0803 35.6899C98.1935 35.5365 98.2499 35.3564 98.2497 35.1497C98.2495 34.9831 98.1994 34.8198 98.0992 34.6599C98.0057 34.5 97.8589 34.3701 97.6588 34.2704C97.4653 34.1706 97.222 34.1208 96.9286 34.1211C96.7153 34.1214 96.522 34.1516 96.3487 34.2118C96.1755 34.2719 96.0222 34.3488 95.889 34.4422C95.7557 34.529 95.6425 34.6192 95.5493 34.7126C95.456 34.7994 95.3794 34.8728 95.3195 34.9328L94.889 34.4633C94.9223 34.4233 94.9955 34.3532 95.1088 34.2531C95.2286 34.1463 95.3785 34.0361 95.5584 33.9226C95.745 33.8091 95.9615 33.7122 96.2081 33.6319C96.4614 33.5516 96.738 33.5113 97.038 33.511C97.4446 33.5106 97.7914 33.5835 98.0782 33.7299C98.3717 33.8696 98.5952 34.0594 98.7488 34.2992C98.9024 34.539 98.9793 34.799 98.9796 35.079C98.9799 35.3523 98.9202 35.589 98.8004 35.7891C98.6873 35.9826 98.5375 36.1528 98.3509 36.2996C98.1711 36.4398 97.9812 36.5633 97.7813 36.6702C97.5881 36.7704 97.4115 36.8573 97.2516 36.9308C96.9384 37.0778 96.6753 37.2247 96.4621 37.3716C96.2489 37.5185 96.0791 37.6687 95.9526 37.8222C95.8261 37.969 95.7262 38.1158 95.653 38.2625C95.5865 38.4026 95.54 38.5493 95.5135 38.7026L99.0935 38.6988L99.0942 39.3188L94.8042 39.3234ZM105.146 36.3824C105.147 36.9691 105.037 37.4925 104.818 37.9527C104.605 38.4063 104.308 38.7633 103.929 39.0237C103.549 39.2841 103.119 39.4145 102.639 39.4151C102.159 39.4156 101.729 39.286 101.349 39.0264C100.975 38.7668 100.678 38.4105 100.458 37.9574C100.237 37.4976 100.127 36.9744 100.126 36.3877C100.125 35.8011 100.235 35.2809 100.454 34.8274C100.674 34.3671 100.97 34.0068 101.343 33.7464C101.723 33.4794 102.153 33.3456 102.633 33.3451C103.113 33.3446 103.543 33.4774 103.923 33.7437C104.303 34.0033 104.6 34.363 104.814 34.8227C105.035 35.2758 105.145 35.7957 105.146 36.3824ZM104.456 36.3831C104.455 35.9098 104.378 35.4932 104.225 35.1334C104.071 34.7735 103.857 34.4938 103.584 34.294C103.31 34.0877 102.993 33.9847 102.633 33.9851C102.273 33.9854 101.957 34.0891 101.684 34.2961C101.411 34.4964 101.194 34.7766 101.035 35.1368C100.882 35.4969 100.805 35.9137 100.806 36.387C100.806 36.8603 100.883 37.2769 101.037 37.6368C101.198 37.9966 101.415 38.2764 101.688 38.4761C101.962 38.6758 102.278 38.7754 102.638 38.7751C102.998 38.7747 103.315 38.6743 103.588 38.474C103.861 38.2671 104.074 37.9869 104.227 37.6334C104.38 37.2732 104.456 36.8565 104.456 36.3831ZM106.142 39.3113C106.142 39.0847 106.162 38.858 106.201 38.6313C106.241 38.3979 106.317 38.1678 106.431 37.941C106.544 37.7142 106.71 37.4974 106.93 37.2905C107.15 37.0769 107.439 36.8766 107.799 36.6896C107.992 36.5894 108.192 36.4925 108.399 36.3989C108.606 36.2987 108.799 36.1918 108.979 36.0783C109.165 35.9581 109.312 35.8246 109.418 35.6778C109.531 35.5244 109.588 35.3443 109.588 35.1377C109.587 34.971 109.537 34.8077 109.437 34.6478C109.344 34.4879 109.197 34.3581 108.997 34.2583C108.803 34.1585 108.56 34.1088 108.267 34.1091C108.053 34.1093 107.86 34.1395 107.687 34.1997C107.513 34.2599 107.36 34.3367 107.227 34.4302C107.094 34.517 106.98 34.6071 106.887 34.7005C106.794 34.7873 106.717 34.8607 106.657 34.9208L106.227 34.4512C106.26 34.4112 106.333 34.3411 106.447 34.241C106.567 34.1342 106.716 34.024 106.896 33.9105C107.083 33.797 107.299 33.7001 107.546 33.6198C107.799 33.5396 108.076 33.4993 108.376 33.4989C108.783 33.4985 109.129 33.5715 109.416 33.7178C109.71 33.8575 109.933 34.0473 110.087 34.2871C110.24 34.527 110.317 34.7869 110.318 35.0669C110.318 35.3402 110.258 35.5769 110.138 35.7771C110.025 35.9705 109.875 36.1407 109.689 36.2876C109.509 36.4277 109.319 36.5513 109.119 36.6582C108.926 36.7584 108.749 36.8452 108.589 36.9187C108.276 37.0657 108.013 37.2127 107.8 37.3596C107.587 37.5065 107.417 37.6566 107.29 37.8101C107.164 37.9569 107.064 38.1037 106.991 38.2504C106.924 38.3905 106.878 38.5372 106.851 38.6906L110.431 38.6868L110.432 39.3068L106.142 39.3113ZM116.484 36.3703C116.484 36.957 116.375 37.4804 116.155 37.9407C115.943 38.3942 115.646 38.7512 115.267 39.0116C114.887 39.272 114.457 39.4025 113.977 39.403C113.497 39.4035 113.067 39.274 112.687 39.0144C112.313 38.7548 112.016 38.3984 111.795 37.9453C111.575 37.4855 111.464 36.9623 111.464 36.3757C111.463 35.789 111.573 35.2689 111.792 34.8153C112.012 34.3551 112.308 33.9948 112.681 33.7344C113.061 33.4673 113.491 33.3335 113.971 33.333C114.451 33.3325 114.881 33.4654 115.261 33.7316C115.641 33.9912 115.938 34.3509 116.152 34.8107C116.373 35.2638 116.483 35.7837 116.484 36.3703ZM115.794 36.3711C115.793 35.8977 115.716 35.4811 115.562 35.1213C115.409 34.7615 115.195 34.4817 114.922 34.282C114.648 34.0756 114.331 33.9726 113.971 33.973C113.611 33.9734 113.295 34.077 113.022 34.284C112.748 34.4843 112.532 34.7645 112.372 35.1247C112.219 35.4849 112.143 35.9016 112.144 36.3749C112.144 36.8483 112.221 37.2649 112.375 37.6247C112.535 37.9845 112.752 38.2643 113.026 38.464C113.3 38.6637 113.616 38.7634 113.976 38.763C114.336 38.7626 114.653 38.6623 114.926 38.462C115.199 38.255 115.412 37.9748 115.565 37.6213C115.718 37.2611 115.794 36.8444 115.794 36.3711Z" fill="#959DA6"/>
</svg>
