<svg width="78" height="78" viewBox="0 0 78 78" fill="none" xmlns="http://www.w3.org/2000/svg">
<g opacity="0.76" filter="url(#filter0_bd_460_5729)">
<circle cx="39" cy="39" r="32" fill="url(#paint0_linear_460_5729)"/>
<circle cx="39" cy="39" r="31.5" stroke="#F6F6F6"/>
</g>
<path d="M16.42 39.4C16.42 38.9667 16.4933 38.5433 16.64 38.13C16.7933 37.71 17.0133 37.33 17.3 36.99C17.5867 36.6433 17.94 36.37 18.36 36.17C18.78 35.9633 19.2567 35.86 19.79 35.86C20.4233 35.86 20.9633 36.0067 21.41 36.3C21.8633 36.5867 22.1967 36.9567 22.41 37.41L21.86 37.75C21.7067 37.4367 21.5133 37.19 21.28 37.01C21.0467 36.8233 20.7967 36.69 20.53 36.61C20.27 36.53 20.01 36.49 19.75 36.49C19.3233 36.49 18.9467 36.5767 18.62 36.75C18.2933 36.9167 18.0167 37.1433 17.79 37.43C17.57 37.71 17.4033 38.0267 17.29 38.38C17.1767 38.7267 17.12 39.08 17.12 39.44C17.12 39.8333 17.1867 40.21 17.32 40.57C17.4533 40.93 17.64 41.25 17.88 41.53C18.12 41.8033 18.4 42.0233 18.72 42.19C19.0467 42.35 19.4 42.43 19.78 42.43C20.0467 42.43 20.32 42.3833 20.6 42.29C20.88 42.1967 21.14 42.0533 21.38 41.86C21.6267 41.6667 21.8233 41.4167 21.97 41.11L22.55 41.41C22.4033 41.7633 22.1767 42.0633 21.87 42.31C21.5633 42.5567 21.22 42.7433 20.84 42.87C20.4667 42.9967 20.1 43.06 19.74 43.06C19.2533 43.06 18.8067 42.9567 18.4 42.75C17.9933 42.5367 17.64 42.2567 17.34 41.91C17.0467 41.5567 16.82 41.1633 16.66 40.73C16.5 40.29 16.42 39.8467 16.42 39.4ZM23.5955 43V37.79H24.2955L26.3655 41.38L28.4455 37.79H29.1155V43H28.4655V38.81L26.5855 42.07H26.1455L24.2455 38.81V43H23.5955ZM32.8372 43.1C32.4639 43.1 32.1172 43.03 31.7972 42.89C31.4839 42.7433 31.2105 42.5467 30.9772 42.3C30.7505 42.0467 30.5739 41.76 30.4472 41.44C30.3205 41.1133 30.2572 40.77 30.2572 40.41C30.2572 40.0367 30.3205 39.69 30.4472 39.37C30.5739 39.0433 30.7539 38.7567 30.9872 38.51C31.2205 38.2567 31.4939 38.06 31.8072 37.92C32.1272 37.7733 32.4739 37.7 32.8472 37.7C33.2205 37.7 33.5639 37.7733 33.8772 37.92C34.1905 38.06 34.4639 38.2567 34.6972 38.51C34.9305 38.7567 35.1105 39.0433 35.2372 39.37C35.3639 39.69 35.4272 40.0367 35.4272 40.41C35.4272 40.77 35.3639 41.1133 35.2372 41.44C35.1105 41.76 34.9305 42.0467 34.6972 42.3C34.4705 42.5467 34.1972 42.7433 33.8772 42.89C33.5639 43.03 33.2172 43.1 32.8372 43.1ZM30.9472 40.42C30.9472 40.8067 31.0305 41.16 31.1972 41.48C31.3705 41.7933 31.6005 42.0433 31.8872 42.23C32.1739 42.41 32.4905 42.5 32.8372 42.5C33.1839 42.5 33.5005 42.4067 33.7872 42.22C34.0739 42.0333 34.3039 41.78 34.4772 41.46C34.6505 41.1333 34.7372 40.78 34.7372 40.4C34.7372 40.0133 34.6505 39.66 34.4772 39.34C34.3039 39.02 34.0739 38.7667 33.7872 38.58C33.5005 38.3933 33.1839 38.3 32.8372 38.3C32.4905 38.3 32.1739 38.3967 31.8872 38.59C31.6072 38.7833 31.3805 39.04 31.2072 39.36C31.0339 39.6733 30.9472 40.0267 30.9472 40.42ZM37.8645 43V38.4H36.0045V37.79H40.4045V38.4H38.5445V43H37.8645ZM43.9901 43.1C43.5567 43.1 43.1667 42.9867 42.8201 42.76C42.4801 42.5333 42.2101 42.2533 42.0101 41.92V45.13H41.3301V37.79H41.9401V38.8C42.1467 38.4733 42.4234 38.21 42.7701 38.01C43.1167 37.8033 43.4867 37.7 43.8801 37.7C44.2401 37.7 44.5701 37.7767 44.8701 37.93C45.1701 38.0767 45.4301 38.2767 45.6501 38.53C45.8701 38.7833 46.0401 39.0733 46.1601 39.4C46.2867 39.72 46.3501 40.0533 46.3501 40.4C46.3501 40.8867 46.2501 41.3367 46.0501 41.75C45.8567 42.1567 45.5834 42.4833 45.2301 42.73C44.8767 42.9767 44.4634 43.1 43.9901 43.1ZM43.8001 42.5C44.0867 42.5 44.3434 42.4433 44.5701 42.33C44.7967 42.21 44.9901 42.05 45.1501 41.85C45.3167 41.65 45.4434 41.4267 45.5301 41.18C45.6167 40.9267 45.6601 40.6667 45.6601 40.4C45.6601 40.12 45.6101 39.8533 45.5101 39.6C45.4167 39.3467 45.2801 39.1233 45.1001 38.93C44.9201 38.7367 44.7134 38.5833 44.4801 38.47C44.2467 38.3567 43.9934 38.3 43.7201 38.3C43.5467 38.3 43.3667 38.3333 43.1801 38.4C42.9934 38.4667 42.8134 38.5633 42.6401 38.69C42.4734 38.81 42.3334 38.9467 42.2201 39.1C42.1067 39.2533 42.0367 39.4167 42.0101 39.59V41.19C42.1167 41.4367 42.2601 41.66 42.4401 41.86C42.6201 42.0533 42.8267 42.21 43.0601 42.33C43.3001 42.4433 43.5467 42.5 43.8001 42.5ZM49.752 43.1C49.3786 43.1 49.032 43.03 48.712 42.89C48.392 42.7433 48.1153 42.5467 47.882 42.3C47.6486 42.0467 47.4653 41.7567 47.332 41.43C47.2053 41.1033 47.142 40.7533 47.142 40.38C47.142 39.8933 47.252 39.4467 47.472 39.04C47.6986 38.6333 48.0086 38.31 48.402 38.07C48.7953 37.8233 49.242 37.7 49.742 37.7C50.2553 37.7 50.702 37.8233 51.082 38.07C51.4686 38.3167 51.772 38.6433 51.992 39.05C52.212 39.45 52.322 39.89 52.322 40.37C52.322 40.4233 52.322 40.4767 52.322 40.53C52.322 40.5767 52.3186 40.6133 52.312 40.64H47.852C47.8853 41.0133 47.9886 41.3467 48.162 41.64C48.342 41.9267 48.572 42.1567 48.852 42.33C49.1386 42.4967 49.4486 42.58 49.782 42.58C50.122 42.58 50.442 42.4933 50.742 42.32C51.0486 42.1467 51.262 41.92 51.382 41.64L51.972 41.8C51.8653 42.0467 51.702 42.27 51.482 42.47C51.262 42.67 51.002 42.8267 50.702 42.94C50.4086 43.0467 50.092 43.1 49.752 43.1ZM47.832 40.15H51.682C51.6553 39.77 51.552 39.4367 51.372 39.15C51.1986 38.8633 50.9686 38.64 50.682 38.48C50.402 38.3133 50.092 38.23 49.752 38.23C49.412 38.23 49.102 38.3133 48.822 38.48C48.542 38.64 48.312 38.8667 48.132 39.16C47.9586 39.4467 47.8586 39.7767 47.832 40.15ZM54.6711 43V38.4H52.8111V37.79H57.2111V38.4H55.3511V43H54.6711ZM58.1267 43V37.79H58.8067V39.63H60.1567C60.7501 39.63 61.1967 39.7833 61.4967 40.09C61.8034 40.39 61.9567 40.7867 61.9567 41.28C61.9567 41.6 61.8901 41.89 61.7567 42.15C61.6234 42.41 61.4267 42.6167 61.1667 42.77C60.9134 42.9233 60.5934 43 60.2067 43H58.1267ZM58.8067 42.46H60.1167C60.3901 42.46 60.6101 42.4067 60.7767 42.3C60.9434 42.1867 61.0667 42.0433 61.1467 41.87C61.2267 41.69 61.2667 41.4967 61.2667 41.29C61.2667 41.09 61.2301 40.9067 61.1567 40.74C61.0901 40.5667 60.9701 40.43 60.7967 40.33C60.6301 40.2233 60.3967 40.17 60.0967 40.17H58.8067V42.46Z" fill="#F6F6F6"/>
<defs>
<filter id="filter0_bd_460_5729" x="-1" y="-1" width="80" height="80" filterUnits="userSpaceOnUse" color-interpolation-filters="sRGB">
<feFlood flood-opacity="0" result="BackgroundImageFix"/>
<feGaussianBlur in="BackgroundImageFix" stdDeviation="4"/>
<feComposite in2="SourceAlpha" operator="in" result="effect1_backgroundBlur_460_5729"/>
<feColorMatrix in="SourceAlpha" type="matrix" values="0 0 0 0 0 0 0 0 0 0 0 0 0 0 0 0 0 0 127 0" result="hardAlpha"/>
<feOffset/>
<feGaussianBlur stdDeviation="3.5"/>
<feComposite in2="hardAlpha" operator="out"/>
<feColorMatrix type="matrix" values="0 0 0 0 0.172549 0 0 0 0 0.231373 0 0 0 0 0.266667 0 0 0 0.25 0"/>
<feBlend mode="normal" in2="effect1_backgroundBlur_460_5729" result="effect2_dropShadow_460_5729"/>
<feBlend mode="normal" in="SourceGraphic" in2="effect2_dropShadow_460_5729" result="shape"/>
</filter>
<linearGradient id="paint0_linear_460_5729" x1="8.53846" y1="9.90909" x2="65.0841" y2="78.1248" gradientUnits="userSpaceOnUse">
<stop stop-color="white"/>
<stop offset="0.153872" stop-color="#C5D8E9"/>
<stop offset="0.588542" stop-color="#E4DEE3"/>
<stop offset="0.75" stop-color="#EAD2D1"/>
<stop offset="1" stop-color="white"/>
</linearGradient>
</defs>
</svg>
