<svg width="116" height="12" viewBox="0 0 116 12" fill="none" xmlns="http://www.w3.org/2000/svg">
<path d="M5.81 11.098C5.07267 11.098 4.39133 10.972 3.766 10.72C3.14067 10.468 2.59467 10.1133 2.128 9.656C1.67067 9.19867 1.31133 8.662 1.05 8.046C0.798 7.43 0.672 6.758 0.672 6.03C0.672 5.31133 0.798 4.644 1.05 4.028C1.31133 3.412 1.67067 2.88 2.128 2.432C2.59467 1.97467 3.14067 1.62 3.766 1.368C4.39133 1.116 5.07267 0.99 5.81 0.99C6.54733 0.99 7.22867 1.116 7.854 1.368C8.48867 1.62 9.03933 1.97467 9.506 2.432C9.97267 2.88 10.332 3.412 10.584 4.028C10.8453 4.644 10.976 5.31133 10.976 6.03C10.976 6.758 10.8453 7.43 10.584 8.046C10.332 8.662 9.97267 9.19867 9.506 9.656C9.03933 10.1133 8.48867 10.468 7.854 10.72C7.22867 10.972 6.54733 11.098 5.81 11.098ZM5.81 10.58C6.46333 10.58 7.06533 10.4727 7.616 10.258C8.176 10.034 8.666 9.72133 9.086 9.32C9.506 8.91867 9.83267 8.44267 10.066 7.892C10.3087 7.34133 10.43 6.73 10.43 6.058C10.43 5.414 10.3133 4.81667 10.08 4.266C9.84667 3.706 9.52 3.22067 9.1 2.81C8.68933 2.39933 8.204 2.082 7.644 1.858C7.084 1.62467 6.47267 1.508 5.81 1.508C5.15667 1.508 4.55 1.62467 3.99 1.858C3.43 2.082 2.94 2.39933 2.52 2.81C2.10933 3.22067 1.78733 3.70133 1.554 4.252C1.33 4.79333 1.218 5.39067 1.218 6.044C1.218 6.688 1.33 7.28533 1.554 7.836C1.78733 8.37733 2.10933 8.858 2.52 9.278C2.94 9.68867 3.43 10.0107 3.99 10.244C4.55 10.468 5.15667 10.58 5.81 10.58ZM5.922 9.278C5.49267 9.278 5.082 9.20333 4.69 9.054C4.298 8.89533 3.948 8.676 3.64 8.396C3.34133 8.10667 3.09867 7.766 2.912 7.374C2.73467 6.97267 2.646 6.52467 2.646 6.03C2.646 5.638 2.71133 5.25067 2.842 4.868C2.97267 4.476 3.16867 4.12133 3.43 3.804C3.69133 3.48667 4.02267 3.23467 4.424 3.048C4.82533 2.852 5.29667 2.754 5.838 2.754C6.454 2.754 7 2.88933 7.476 3.16C7.96133 3.42133 8.31133 3.804 8.526 4.308L7.602 4.602C7.48067 4.322 7.31267 4.112 7.098 3.972C6.89267 3.82267 6.678 3.72467 6.454 3.678C6.23 3.622 6.02467 3.594 5.838 3.594C5.46467 3.594 5.138 3.664 4.858 3.804C4.578 3.944 4.34467 4.13533 4.158 4.378C3.98067 4.61133 3.84533 4.87267 3.752 5.162C3.668 5.442 3.626 5.73133 3.626 6.03C3.626 6.422 3.69133 6.76733 3.822 7.066C3.962 7.36467 4.13933 7.61667 4.354 7.822C4.578 8.02733 4.82067 8.186 5.082 8.298C5.35267 8.40067 5.614 8.452 5.866 8.452C6.09933 8.452 6.33733 8.41 6.58 8.326C6.82267 8.23267 7.04667 8.10667 7.252 7.948C7.45733 7.78933 7.60667 7.60267 7.7 7.388L8.624 7.654C8.53067 7.878 8.36267 8.116 8.12 8.368C7.87733 8.62 7.56933 8.83467 7.196 9.012C6.82267 9.18933 6.398 9.278 5.922 9.278ZM25.2688 11V2.908L21.6708 9.194H21.0548L17.4428 2.908V11H16.4628V1.06H17.4708L21.3488 7.864L25.2548 1.06H26.2488V11H25.2688ZM31.8201 1.06H32.6461L36.7761 11H35.7401L34.4521 7.892H29.9861L28.7121 11H27.6621L31.8201 1.06ZM34.2281 7.122L32.2261 2.208L30.1961 7.122H34.2281ZM38.2011 11V1.06H42.4011C42.8304 1.06 43.2224 1.14867 43.5771 1.326C43.9317 1.50333 44.2397 1.746 44.5011 2.054C44.7717 2.35267 44.9771 2.68867 45.1171 3.062C45.2664 3.426 45.3411 3.79933 45.3411 4.182C45.3411 4.658 45.2477 5.106 45.0611 5.526C44.8837 5.946 44.6271 6.30067 44.2911 6.59C43.9644 6.87933 43.5771 7.07067 43.1291 7.164L45.5651 11H44.4591L42.1211 7.332H39.1811V11H38.2011ZM39.1811 6.464H42.4291C42.8211 6.464 43.1617 6.35667 43.4511 6.142C43.7404 5.92733 43.9644 5.64733 44.1231 5.302C44.2817 4.94733 44.3611 4.574 44.3611 4.182C44.3611 3.78067 44.2677 3.412 44.0811 3.076C43.9037 2.73067 43.6611 2.45533 43.3531 2.25C43.0544 2.03533 42.7184 1.928 42.3451 1.928H39.1811V6.464ZM47.3476 11V1.074H48.3276V6.842L53.8016 1.06H54.8796L50.8196 5.428L55.0896 11H53.9836L50.1896 6.016L48.3276 7.948V11H47.3476ZM62.1537 2.922C62.0137 2.76333 61.8503 2.62333 61.6637 2.502C61.477 2.37133 61.267 2.25933 61.0337 2.166C60.8003 2.07267 60.5483 1.998 60.2777 1.942C60.0163 1.886 59.7363 1.858 59.4377 1.858C58.5697 1.858 57.9303 2.026 57.5197 2.362C57.1183 2.68867 56.9177 3.13667 56.9177 3.706C56.9177 4.098 57.011 4.406 57.1977 4.63C57.3937 4.854 57.697 5.036 58.1077 5.176C58.5183 5.316 59.041 5.46067 59.6757 5.61C60.385 5.75933 60.9963 5.93667 61.5097 6.142C62.023 6.34733 62.4197 6.62733 62.6997 6.982C62.9797 7.32733 63.1197 7.79867 63.1197 8.396C63.1197 8.85333 63.031 9.25 62.8537 9.586C62.6763 9.922 62.429 10.202 62.1117 10.426C61.7943 10.65 61.4163 10.818 60.9777 10.93C60.539 11.0327 60.0583 11.084 59.5357 11.084C59.0223 11.084 58.5277 11.0327 58.0517 10.93C57.585 10.818 57.1417 10.6593 56.7217 10.454C56.3017 10.2393 55.9097 9.96867 55.5457 9.642L56.0357 8.844C56.213 9.03067 56.423 9.208 56.6657 9.376C56.9177 9.53467 57.193 9.67933 57.4917 9.81C57.7997 9.94067 58.1263 10.0433 58.4717 10.118C58.8263 10.1833 59.1903 10.216 59.5637 10.216C60.357 10.216 60.973 10.0713 61.4117 9.782C61.8597 9.49267 62.0837 9.06333 62.0837 8.494C62.0837 8.08333 61.9717 7.75667 61.7477 7.514C61.5237 7.262 61.1877 7.05667 60.7397 6.898C60.2917 6.73933 59.741 6.58533 59.0877 6.436C58.397 6.27733 57.8137 6.1 57.3377 5.904C56.8617 5.708 56.5023 5.45133 56.2597 5.134C56.0263 4.80733 55.9097 4.378 55.9097 3.846C55.9097 3.23 56.059 2.712 56.3577 2.292C56.6657 1.86267 57.0857 1.54067 57.6177 1.326C58.1497 1.102 58.761 0.99 59.4517 0.99C59.8903 0.99 60.2963 1.03667 60.6697 1.13C61.0523 1.214 61.4023 1.34 61.7197 1.508C62.0463 1.676 62.3497 1.886 62.6297 2.138L62.1537 2.922ZM64.8476 11V1.06H68.2216C69.2762 1.06 70.1536 1.284 70.8536 1.732C71.5629 2.17067 72.0949 2.768 72.4496 3.524C72.8042 4.27067 72.9816 5.10133 72.9816 6.016C72.9816 7.024 72.7856 7.90133 72.3936 8.648C72.0109 9.39467 71.4602 9.97333 70.7416 10.384C70.0322 10.7947 69.1922 11 68.2216 11H64.8476ZM72.0016 6.016C72.0016 5.22267 71.8522 4.518 71.5536 3.902C71.2642 3.286 70.8396 2.80533 70.2796 2.46C69.7196 2.10533 69.0336 1.928 68.2216 1.928H65.8276V10.132H68.2216C69.0429 10.132 69.7336 9.95 70.2936 9.586C70.8536 9.222 71.2782 8.732 71.5676 8.116C71.8569 7.49067 72.0016 6.79067 72.0016 6.016ZM74.8554 11V1.06H75.8354V11H74.8554ZM82.318 11.07C81.6554 11.07 81.0394 10.93 80.47 10.65C79.9007 10.3607 79.406 9.97333 78.986 9.488C78.566 9.00267 78.2394 8.46133 78.006 7.864C77.782 7.26667 77.67 6.65067 77.67 6.016C77.67 5.344 77.782 4.70933 78.006 4.112C78.2394 3.50533 78.5614 2.96867 78.972 2.502C79.3827 2.03533 79.868 1.66667 80.428 1.396C80.988 1.12533 81.5994 0.99 82.262 0.99C83.242 0.99 84.04 1.19067 84.656 1.592C85.272 1.99333 85.7387 2.516 86.056 3.16L85.3 3.664C84.9827 3.048 84.558 2.59533 84.026 2.306C83.494 2.01667 82.9014 1.872 82.248 1.872C81.6974 1.872 81.198 1.98867 80.75 2.222C80.3114 2.45533 79.9334 2.768 79.616 3.16C79.2987 3.552 79.056 3.99533 78.888 4.49C78.7294 4.98467 78.65 5.498 78.65 6.03C78.65 6.59 78.7434 7.122 78.93 7.626C79.1167 8.12067 79.3827 8.564 79.728 8.956C80.0734 9.33867 80.47 9.642 80.918 9.866C81.3754 10.0807 81.8654 10.188 82.388 10.188C82.9947 10.188 83.5687 10.0387 84.11 9.74C84.6514 9.432 85.1694 8.96067 85.664 8.326V9.362C84.7214 10.5007 83.606 11.07 82.318 11.07ZM85.51 6.87H83.298V6.114H86.336V11H85.51V6.87ZM88.3495 11V1.06H89.3295V11H88.3495ZM98.8782 1.928H95.3362V11H94.3562V1.928H90.8142V1.06H98.8782V1.928ZM102.49 1.06H103.316L107.446 11H106.41L105.122 7.892H100.656L99.3821 11H98.3321L102.49 1.06ZM104.898 7.122L102.896 2.208L100.866 7.122H104.898ZM108.871 11V1.06H109.851V10.132H115.591V11H108.871Z" fill="#C0C5CB"/>
</svg>
