<svg width="153" height="16" viewBox="0 0 153 16" fill="none" xmlns="http://www.w3.org/2000/svg">
<path d="M12.728 12H11.32V7.328C11.32 6.45333 11.176 5.808 10.888 5.392C10.6107 4.976 10.1947 4.768 9.64 4.768C9.07467 4.768 8.56267 4.976 8.104 5.392C7.64533 5.79733 7.32 6.32533 7.128 6.976V12H5.72V7.328C5.72 6.44267 5.58133 5.79733 5.304 5.392C5.02667 4.976 4.61067 4.768 4.056 4.768C3.50133 4.768 2.98933 4.97067 2.52 5.376C2.06133 5.77067 1.736 6.29867 1.544 6.96V12H0.136V3.648H1.416V5.44C1.75733 4.82133 2.2 4.34667 2.744 4.016C3.288 3.67467 3.90133 3.504 4.584 3.504C5.27733 3.504 5.832 3.696 6.248 4.08C6.664 4.45333 6.92 4.93867 7.016 5.536C7.38933 4.87467 7.84267 4.37333 8.376 4.032C8.90933 3.68 9.51733 3.504 10.2 3.504C10.68 3.504 11.08 3.59467 11.4 3.776C11.7307 3.94667 11.992 4.192 12.184 4.512C12.376 4.82133 12.5147 5.18933 12.6 5.616C12.6853 6.04267 12.728 6.50667 12.728 7.008V12ZM14.2613 9.584C14.2613 9.05067 14.4106 8.592 14.7093 8.208C15.0186 7.81333 15.4399 7.50933 15.9733 7.296C16.5066 7.08267 17.1253 6.976 17.8293 6.976C18.2026 6.976 18.5973 7.008 19.0133 7.072C19.4293 7.12533 19.7973 7.21067 20.1173 7.328V6.72C20.1173 6.08 19.9253 5.57867 19.5413 5.216C19.1573 4.84267 18.6133 4.656 17.9093 4.656C17.4506 4.656 17.0079 4.74133 16.5813 4.912C16.1653 5.072 15.7226 5.30667 15.2533 5.616L14.7413 4.624C15.2853 4.25067 15.8293 3.97333 16.3733 3.792C16.9173 3.6 17.4826 3.504 18.0693 3.504C19.1359 3.504 19.9786 3.80267 20.5973 4.4C21.2159 4.98667 21.5253 5.808 21.5253 6.864V10.4C21.5253 10.5707 21.5573 10.6987 21.6213 10.784C21.6959 10.8587 21.8133 10.9013 21.9733 10.912V12C21.8346 12.0213 21.7119 12.0373 21.6053 12.048C21.5093 12.0587 21.4293 12.064 21.3653 12.064C21.0346 12.064 20.7839 11.9733 20.6133 11.792C20.4533 11.6107 20.3626 11.4187 20.3413 11.216L20.3093 10.688C19.9466 11.1573 19.4719 11.52 18.8853 11.776C18.2986 12.032 17.7173 12.16 17.1413 12.16C16.5866 12.16 16.0906 12.048 15.6533 11.824C15.2159 11.5893 14.8746 11.28 14.6293 10.896C14.3839 10.5013 14.2613 10.064 14.2613 9.584ZM19.7013 10.176C19.8293 10.0267 19.9306 9.87733 20.0053 9.728C20.0799 9.568 20.1173 9.43467 20.1173 9.328V8.288C19.7866 8.16 19.4399 8.064 19.0773 8C18.7146 7.92533 18.3573 7.888 18.0052 7.888C17.2906 7.888 16.7093 8.032 16.2613 8.32C15.8239 8.59733 15.6053 8.98133 15.6053 9.472C15.6053 9.73867 15.6746 10 15.8133 10.256C15.9626 10.5013 16.1759 10.704 16.4533 10.864C16.7413 11.024 17.0933 11.104 17.5093 11.104C17.9466 11.104 18.3626 11.0187 18.7573 10.848C19.1519 10.6667 19.4666 10.4427 19.7013 10.176ZM23.7766 12V3.648H25.1846V12H23.7766ZM23.7766 2.08V0.32H25.1846V2.08H23.7766ZM27.4961 0.32H28.9041V9.84C28.9041 10.2987 28.9681 10.5813 29.0961 10.688C29.2241 10.7947 29.3788 10.848 29.5601 10.848C29.7841 10.848 29.9975 10.8267 30.2001 10.784C30.4028 10.7307 30.5735 10.6773 30.7121 10.624L30.9361 11.776C30.7015 11.872 30.4241 11.952 30.1041 12.016C29.7841 12.08 29.5015 12.112 29.2561 12.112C28.7121 12.112 28.2801 11.9573 27.9601 11.648C27.6508 11.3387 27.4961 10.9067 27.4961 10.352V0.32ZM37.6103 2.352C38.3996 2.352 39.1463 2.496 39.8503 2.784C40.5543 3.06133 41.1783 3.46667 41.7223 4C42.2663 4.53333 42.6929 5.17867 43.0023 5.936C43.3223 6.68267 43.4823 7.52 43.4823 8.448C43.4823 8.62933 43.4663 8.87467 43.4343 9.184C43.4129 9.49333 43.3596 9.824 43.2743 10.176C43.1889 10.528 43.0609 10.864 42.8903 11.184C42.7196 11.4933 42.4849 11.7493 42.1863 11.952C41.8983 12.1547 41.5356 12.256 41.0983 12.256C40.7356 12.256 40.4583 12.1867 40.2663 12.048C40.0743 11.9093 39.9409 11.7333 39.8663 11.52C39.7916 11.296 39.7383 11.0667 39.7063 10.832C39.4076 11.152 39.0183 11.424 38.5383 11.648C38.0689 11.8613 37.5516 11.968 36.9863 11.968C36.2076 11.968 35.6049 11.76 35.1783 11.344C34.7623 10.928 34.5543 10.4107 34.5543 9.792C34.5543 9.22667 34.7036 8.784 35.0023 8.464C35.3009 8.144 35.6796 7.91467 36.1383 7.776C36.6076 7.63733 37.0769 7.568 37.5463 7.568C38.0049 7.568 38.4049 7.616 38.7463 7.712C39.0876 7.79733 39.3436 7.872 39.5143 7.936C39.5143 7.46667 39.4609 7.056 39.3542 6.704C39.2476 6.34133 39.0503 6.05867 38.7623 5.856C38.4849 5.65333 38.0903 5.552 37.5783 5.552C37.1516 5.552 36.7516 5.62133 36.3783 5.76C36.0049 5.888 35.6689 6.064 35.3703 6.288L35.0503 5.504C35.4343 5.248 35.8503 5.05067 36.2983 4.912C36.7463 4.76267 37.2156 4.688 37.7063 4.688C38.3356 4.688 38.8316 4.78933 39.1943 4.992C39.5569 5.184 39.8236 5.44533 39.9943 5.776C40.1649 6.096 40.2769 6.45333 40.3303 6.848C40.3836 7.232 40.4103 7.61067 40.4103 7.984V9.888C40.4103 10.1973 40.4263 10.48 40.4583 10.736C40.4903 10.992 40.5649 11.1947 40.6823 11.344C40.7996 11.4827 40.9809 11.552 41.2263 11.552C41.5463 11.552 41.8076 11.4453 42.0103 11.232C42.2236 11.008 42.3836 10.7307 42.4903 10.4C42.6076 10.0587 42.6876 9.712 42.7303 9.36C42.7836 8.99733 42.8103 8.68267 42.8103 8.416C42.8103 7.648 42.6769 6.93867 42.4103 6.288C42.1543 5.62667 41.7916 5.05067 41.3223 4.56C40.8529 4.06933 40.2983 3.68533 39.6583 3.408C39.0289 3.13067 38.3356 2.992 37.5783 2.992C36.8423 2.992 36.1543 3.12533 35.5143 3.392C34.8743 3.648 34.3143 4.016 33.8343 4.496C33.3649 4.976 32.9916 5.54133 32.7143 6.192C32.4476 6.84267 32.3143 7.552 32.3143 8.32C32.3143 9.06667 32.4423 9.76533 32.6983 10.416C32.9543 11.0667 33.3116 11.6373 33.7703 12.128C34.2289 12.6187 34.7729 13.0027 35.4023 13.28C36.0316 13.5573 36.7196 13.696 37.4663 13.696C37.9356 13.696 38.3623 13.6373 38.7463 13.52C39.1409 13.4133 39.5356 13.2693 39.9303 13.088L40.1543 13.696C39.7276 13.9093 39.2849 14.0693 38.8263 14.176C38.3676 14.2827 37.9089 14.336 37.4503 14.336C36.6503 14.336 35.8983 14.1867 35.1943 13.888C34.5009 13.6 33.8876 13.184 33.3543 12.64C32.8209 12.1067 32.3996 11.472 32.0903 10.736C31.7916 10 31.6423 9.19467 31.6423 8.32C31.6423 7.40267 31.8023 6.576 32.1223 5.84C32.4529 5.104 32.8956 4.48 33.4503 3.968C34.0156 3.44533 34.6556 3.04533 35.3703 2.768C36.0849 2.49067 36.8316 2.352 37.6103 2.352ZM38.5223 10.784C38.7996 10.656 39.0076 10.512 39.1463 10.352C39.2849 10.1813 39.3756 10.0053 39.4183 9.824C39.4716 9.632 39.4983 9.44533 39.4983 9.264V8.672C39.3596 8.65067 39.1143 8.58667 38.7623 8.48C38.4209 8.37333 38.0103 8.32 37.5303 8.32C37.1676 8.32 36.8263 8.36267 36.5063 8.448C36.1969 8.53333 35.9463 8.68267 35.7543 8.896C35.5623 9.09867 35.4663 9.376 35.4663 9.728C35.4663 9.99467 35.5303 10.2347 35.6583 10.448C35.7969 10.6613 35.9836 10.832 36.2183 10.96C36.4529 11.0773 36.7303 11.136 37.0503 11.136C37.3063 11.136 37.5623 11.104 37.8183 11.04C38.0849 10.9653 38.3196 10.88 38.5223 10.784ZM58.0718 12H56.6638V7.328C56.6638 6.45333 56.5198 5.808 56.2318 5.392C55.9544 4.976 55.5384 4.768 54.9838 4.768C54.4184 4.768 53.9064 4.976 53.4478 5.392C52.9891 5.79733 52.6638 6.32533 52.4718 6.976V12H51.0638V7.328C51.0638 6.44267 50.9251 5.79733 50.6478 5.392C50.3704 4.976 49.9544 4.768 49.3998 4.768C48.8451 4.768 48.3331 4.97067 47.8638 5.376C47.4051 5.77067 47.0798 6.29867 46.8878 6.96V12H45.4798V3.648H46.7598V5.44C47.1011 4.82133 47.5438 4.34667 48.0878 4.016C48.6318 3.67467 49.2451 3.504 49.9278 3.504C50.6211 3.504 51.1758 3.696 51.5918 4.08C52.0078 4.45333 52.2638 4.93867 52.3598 5.536C52.7331 4.87467 53.1864 4.37333 53.7198 4.032C54.2531 3.68 54.8611 3.504 55.5438 3.504C56.0238 3.504 56.4238 3.59467 56.7438 3.776C57.0744 3.94667 57.3358 4.192 57.5278 4.512C57.7198 4.82133 57.8584 5.18933 57.9438 5.616C58.0291 6.04267 58.0718 6.50667 58.0718 7.008V12ZM59.605 9.584C59.605 9.05067 59.7543 8.592 60.053 8.208C60.3623 7.81333 60.7837 7.50933 61.317 7.296C61.8503 7.08267 62.469 6.976 63.173 6.976C63.5463 6.976 63.941 7.008 64.357 7.072C64.773 7.12533 65.141 7.21067 65.461 7.328V6.72C65.461 6.08 65.269 5.57867 64.885 5.216C64.501 4.84267 63.957 4.656 63.253 4.656C62.7943 4.656 62.3517 4.74133 61.925 4.912C61.509 5.072 61.0663 5.30667 60.597 5.616L60.085 4.624C60.629 4.25067 61.173 3.97333 61.717 3.792C62.261 3.6 62.8263 3.504 63.413 3.504C64.4797 3.504 65.3223 3.80267 65.941 4.4C66.5597 4.98667 66.869 5.808 66.869 6.864V10.4C66.869 10.5707 66.901 10.6987 66.965 10.784C67.0397 10.8587 67.157 10.9013 67.317 10.912V12C67.1783 12.0213 67.0557 12.0373 66.949 12.048C66.853 12.0587 66.773 12.064 66.709 12.064C66.3783 12.064 66.1277 11.9733 65.957 11.792C65.797 11.6107 65.7063 11.4187 65.685 11.216L65.653 10.688C65.2903 11.1573 64.8157 11.52 64.229 11.776C63.6423 12.032 63.061 12.16 62.485 12.16C61.9303 12.16 61.4343 12.048 60.997 11.824C60.5597 11.5893 60.2183 11.28 59.973 10.896C59.7277 10.5013 59.605 10.064 59.605 9.584ZM65.045 10.176C65.173 10.0267 65.2743 9.87733 65.349 9.728C65.4237 9.568 65.461 9.43467 65.461 9.328V8.288C65.1303 8.16 64.7837 8.064 64.421 8C64.0583 7.92533 63.701 7.888 63.349 7.888C62.6343 7.888 62.053 8.032 61.605 8.32C61.1677 8.59733 60.949 8.98133 60.949 9.472C60.949 9.73867 61.0183 10 61.157 10.256C61.3063 10.5013 61.5197 10.704 61.797 10.864C62.085 11.024 62.437 11.104 62.853 11.104C63.2903 11.104 63.7063 11.0187 64.101 10.848C64.4957 10.6667 64.8103 10.4427 65.045 10.176ZM73.5364 4.88C72.8324 4.89067 72.2084 5.072 71.6644 5.424C71.131 5.76533 70.7524 6.24 70.5284 6.848V12H69.1204V3.648H70.4324V5.584C70.7204 5.008 71.099 4.544 71.5684 4.192C72.0484 3.82933 72.5497 3.62667 73.0724 3.584C73.179 3.584 73.2697 3.584 73.3444 3.584C73.419 3.584 73.483 3.58933 73.5364 3.6V4.88ZM80.8209 12L77.9249 7.936L76.3409 9.424V12H74.9329V0.32H76.3409V7.952L80.6609 3.664H82.1809L78.8529 7.12L82.3409 12H80.8209ZM86.4219 12.16C85.7285 12.16 85.0779 12.048 84.4699 11.824C83.8619 11.5893 83.3392 11.2427 82.9019 10.784L83.4459 9.792C83.9259 10.24 84.4059 10.56 84.8859 10.752C85.3659 10.944 85.8565 11.04 86.3579 11.04C86.9339 11.04 87.4032 10.9333 87.7659 10.72C88.1285 10.496 88.3099 10.1707 88.3099 9.744C88.3099 9.43467 88.2139 9.20533 88.0219 9.056C87.8405 8.90667 87.5792 8.784 87.2379 8.688C86.8965 8.58133 86.4912 8.464 86.0219 8.336C85.4459 8.16533 84.9605 7.984 84.5659 7.792C84.1712 7.6 83.8725 7.36 83.6699 7.072C83.4672 6.784 83.3659 6.42133 83.3659 5.984C83.3659 5.45067 83.5045 5.00267 83.7819 4.64C84.0592 4.26667 84.4379 3.984 84.9179 3.792C85.4085 3.6 85.9632 3.504 86.5819 3.504C87.2005 3.504 87.7605 3.6 88.2619 3.792C88.7632 3.984 89.1952 4.26667 89.5579 4.64L88.9179 5.616C88.5872 5.27467 88.2245 5.024 87.8299 4.864C87.4352 4.69333 86.9925 4.608 86.5019 4.608C86.2139 4.608 85.9312 4.64533 85.6539 4.72C85.3765 4.784 85.1472 4.90667 84.9659 5.088C84.7845 5.25867 84.6939 5.504 84.6939 5.824C84.6939 6.09067 84.7632 6.304 84.9019 6.464C85.0512 6.61333 85.2645 6.74133 85.5419 6.848C85.8299 6.95467 86.1765 7.072 86.5819 7.2C87.2112 7.38133 87.7552 7.56267 88.2139 7.744C88.6832 7.92533 89.0459 8.16 89.3019 8.448C89.5579 8.736 89.6859 9.136 89.6859 9.648C89.6859 10.4373 89.3872 11.056 88.7899 11.504C88.1925 11.9413 87.4032 12.16 86.4219 12.16ZM94.6984 12.096C94.133 12.096 93.6104 11.984 93.1304 11.76C92.661 11.5253 92.2557 11.2107 91.9144 10.816C91.573 10.4107 91.3064 9.952 91.1144 9.44C90.933 8.928 90.8424 8.39467 90.8424 7.84C90.8424 7.25333 90.933 6.69867 91.1144 6.176C91.3064 5.65333 91.573 5.19467 91.9144 4.8C92.2664 4.39467 92.677 4.08 93.1464 3.856C93.6157 3.62133 94.1384 3.504 94.7144 3.504C95.4077 3.504 96.0104 3.67467 96.5224 4.016C97.045 4.35733 97.4824 4.78933 97.8344 5.312V3.648H99.0824V11.904C99.0824 12.6933 98.8904 13.36 98.5064 13.904C98.133 14.448 97.621 14.8587 96.9704 15.136C96.3304 15.424 95.6157 15.568 94.8264 15.568C93.8877 15.568 93.1197 15.4027 92.5224 15.072C91.925 14.7413 91.429 14.2933 91.0344 13.728L91.8504 13.008C92.181 13.4987 92.6077 13.8667 93.1304 14.112C93.6637 14.3573 94.229 14.48 94.8264 14.48C95.3384 14.48 95.8077 14.384 96.2344 14.192C96.6717 14.0107 97.0184 13.728 97.2744 13.344C97.541 12.96 97.6744 12.48 97.6744 11.904V10.432C97.365 10.944 96.9384 11.3493 96.3944 11.648C95.861 11.9467 95.2957 12.096 94.6984 12.096ZM95.1304 10.944C95.429 10.944 95.717 10.8907 95.9944 10.784C96.2717 10.6773 96.5277 10.5387 96.7624 10.368C96.997 10.1867 97.1944 9.984 97.3544 9.76C97.5144 9.536 97.621 9.30667 97.6744 9.072V6.672C97.525 6.288 97.3117 5.952 97.0344 5.664C96.757 5.36533 96.4424 5.136 96.0904 4.976C95.7384 4.80533 95.3757 4.72 95.0024 4.72C94.5757 4.72 94.1917 4.81067 93.8504 4.992C93.5197 5.17333 93.237 5.41867 93.0024 5.728C92.7677 6.02667 92.5864 6.36267 92.4584 6.736C92.3304 7.10933 92.2664 7.488 92.2664 7.872C92.2664 8.288 92.341 8.68267 92.4904 9.056C92.6397 9.41867 92.8424 9.744 93.0984 10.032C93.3544 10.32 93.6584 10.544 94.0104 10.704C94.3624 10.864 94.7357 10.944 95.1304 10.944ZM105.771 4.88C105.067 4.89067 104.443 5.072 103.899 5.424C103.365 5.76533 102.987 6.24 102.763 6.848V12H101.355V3.648H102.667V5.584C102.955 5.008 103.333 4.544 103.803 4.192C104.283 3.82933 104.784 3.62667 105.307 3.584C105.413 3.584 105.504 3.584 105.579 3.584C105.653 3.584 105.717 3.58933 105.771 3.6V4.88ZM110.612 12.16C109.983 12.16 109.412 12.048 108.9 11.824C108.388 11.5893 107.945 11.2747 107.572 10.88C107.199 10.4747 106.911 10.0107 106.708 9.488C106.505 8.96533 106.404 8.416 106.404 7.84C106.404 7.25333 106.505 6.69867 106.708 6.176C106.911 5.65333 107.199 5.19467 107.572 4.8C107.945 4.39467 108.388 4.08 108.9 3.856C109.423 3.62133 109.993 3.504 110.612 3.504C111.241 3.504 111.812 3.62133 112.324 3.856C112.836 4.08 113.279 4.39467 113.652 4.8C114.036 5.19467 114.329 5.65333 114.532 6.176C114.735 6.69867 114.836 7.25333 114.836 7.84C114.836 8.416 114.735 8.96533 114.532 9.488C114.329 10.0107 114.041 10.4747 113.668 10.88C113.295 11.2747 112.847 11.5893 112.324 11.824C111.812 12.048 111.241 12.16 110.612 12.16ZM107.844 7.856C107.844 8.432 107.967 8.95467 108.212 9.424C108.468 9.89333 108.804 10.2667 109.22 10.544C109.636 10.8107 110.1 10.944 110.612 10.944C111.124 10.944 111.588 10.8053 112.004 10.528C112.431 10.2507 112.767 9.87733 113.012 9.408C113.268 8.928 113.396 8.4 113.396 7.824C113.396 7.248 113.268 6.72533 113.012 6.256C112.767 5.78667 112.431 5.41333 112.004 5.136C111.588 4.85867 111.124 4.72 110.612 4.72C110.1 4.72 109.636 4.864 109.22 5.152C108.804 5.42933 108.468 5.80267 108.212 6.272C107.967 6.74133 107.844 7.26933 107.844 7.856ZM116.462 8.656V3.648H117.87V8.384C117.87 9.23733 118.02 9.87733 118.318 10.304C118.617 10.7307 119.06 10.944 119.646 10.944C120.03 10.944 120.398 10.864 120.75 10.704C121.113 10.5333 121.438 10.2933 121.726 9.984C122.014 9.67467 122.238 9.30667 122.398 8.88V3.648H123.806V10.4C123.806 10.5707 123.838 10.6987 123.902 10.784C123.977 10.8587 124.094 10.9013 124.254 10.912V12C124.094 12.0213 123.966 12.032 123.87 12.032C123.785 12.0427 123.7 12.048 123.614 12.048C123.348 12.048 123.118 11.968 122.926 11.808C122.734 11.6373 122.633 11.4293 122.622 11.184L122.59 10.208C122.228 10.8267 121.737 11.3067 121.118 11.648C120.51 11.9893 119.844 12.16 119.118 12.16C118.244 12.16 117.582 11.8667 117.134 11.28C116.686 10.6827 116.462 9.808 116.462 8.656ZM130.648 12.16C129.965 12.16 129.357 11.9893 128.824 11.648C128.29 11.3067 127.869 10.8747 127.56 10.352V15.408H126.152V3.648H127.4V5.216C127.73 4.704 128.162 4.29333 128.696 3.984C129.229 3.664 129.81 3.504 130.44 3.504C131.016 3.504 131.544 3.62133 132.024 3.856C132.504 4.09067 132.92 4.41067 133.272 4.816C133.624 5.22133 133.896 5.68533 134.088 6.208C134.29 6.72 134.392 7.25867 134.392 7.824C134.392 8.61333 134.232 9.33867 133.912 10C133.602 10.6613 133.165 11.1893 132.6 11.584C132.034 11.968 131.384 12.16 130.648 12.16ZM130.216 10.944C130.632 10.944 131.005 10.8587 131.336 10.688C131.677 10.5067 131.965 10.272 132.2 9.984C132.445 9.68533 132.632 9.34933 132.76 8.976C132.888 8.60267 132.952 8.21867 132.952 7.824C132.952 7.408 132.877 7.01333 132.728 6.64C132.589 6.26667 132.386 5.936 132.12 5.648C131.864 5.36 131.56 5.136 131.208 4.976C130.866 4.80533 130.493 4.72 130.088 4.72C129.832 4.72 129.565 4.768 129.288 4.864C129.021 4.96 128.765 5.09867 128.52 5.28C128.274 5.45067 128.066 5.648 127.896 5.872C127.725 6.096 127.613 6.336 127.56 6.592V8.976C127.72 9.33867 127.933 9.66933 128.2 9.968C128.466 10.2667 128.776 10.5067 129.128 10.688C129.48 10.8587 129.842 10.944 130.216 10.944ZM136.008 12V10.208H137.192V12H136.008ZM143.771 4.88C143.067 4.89067 142.443 5.072 141.899 5.424C141.365 5.76533 140.987 6.24 140.763 6.848V12H139.355V3.648H140.667V5.584C140.955 5.008 141.333 4.544 141.803 4.192C142.283 3.82933 142.784 3.62667 143.307 3.584C143.413 3.584 143.504 3.584 143.579 3.584C143.653 3.584 143.717 3.58933 143.771 3.6V4.88ZM145.087 8.656V3.648H146.495V8.384C146.495 9.23733 146.645 9.87733 146.943 10.304C147.242 10.7307 147.685 10.944 148.271 10.944C148.655 10.944 149.023 10.864 149.375 10.704C149.738 10.5333 150.063 10.2933 150.351 9.984C150.639 9.67467 150.863 9.30667 151.023 8.88V3.648H152.431V10.4C152.431 10.5707 152.463 10.6987 152.527 10.784C152.602 10.8587 152.719 10.9013 152.879 10.912V12C152.719 12.0213 152.591 12.032 152.495 12.032C152.41 12.0427 152.325 12.048 152.239 12.048C151.973 12.048 151.743 11.968 151.551 11.808C151.359 11.6373 151.258 11.4293 151.247 11.184L151.215 10.208C150.853 10.8267 150.362 11.3067 149.743 11.648C149.135 11.9893 148.469 12.16 147.743 12.16C146.869 12.16 146.207 11.8667 145.759 11.28C145.311 10.6827 145.087 9.808 145.087 8.656Z" fill="#1D2E43"/>
</svg>
